{
.formatVersion = 3;
axes = (
{
name = Weight;
tag = wght;
}
);
classes = (
{
code = "Kacyr kacyr zhecyr yucyr Elcyr Decyr gecyr decyr elcyr icyr ishortcyr shacyr shchacyr tsecyr igravecyr hardcyr softcyr ylongcyr";
name = locl;
},
{
code = "Kacyr.loclBGR kacyr.loclBGR zhecyr.loclBGR yucyr.loclBGR Elcyr.loclBGR Decyr.loclBGR gecyr.loclBGR decyr.loclBGR elcyr.loclBGR icyr.loclBGR ishortcyr.loclBGR shacyr.loclBGR shchacyr.loclBGR tsecyr.loclBGR igravecyr.loclBGR hardcyr.loclBGR softcyr.loclBGR ylongcyr.loclBGR";
name = locl2;
}
);
familyName = Ruzland;
customParameters = (
{
name = glyphOrder;
value = (
.notdef,
.null,
CR,
space,
exclam,
quotedbl,
numbersign,
dollar,
percent,
ampersand,
quotesingle,
parenleft,
parenright,
asterisk,
plus,
comma,
hyphen,
period,
slash,
zero,
one,
two,
three,
four,
five,
six,
seven,
eight,
nine,
colon,
semicolon,
less,
equal,
greater,
question,
at,
A,
B,
C,
D,
E,
F,
G,
H,
I,
J,
K,
L,
M,
N,
O,
P,
Q,
R,
S,
T,
U,
V,
W,
X,
Y,
Z,
bracketleft,
backslash,
bracketright,
asciicircum,
underscore,
grave,
a,
b,
c,
d,
e,
f,
g,
h,
i,
j,
k,
l,
m,
n,
o,
p,
q,
r,
s,
t,
u,
v,
w,
x,
y,
z,
braceleft,
bar,
braceright,
asciitilde,
exclamdown,
cent,
sterling,
currency,
yen,
brokenbar,
section,
dieresis,
copyright,
ordfeminine,
guillemotleft,
logicalnot,
registered,
macron,
degree,
plusminus,
twosuperior,
threesuperior,
acute,
mu,
paragraph,
periodcentered,
cedilla,
onesuperior,
ordmasculine,
guillemotright,
onequarter,
onehalf,
threequarters,
questiondown,
Agrave,
Aacute,
Acircumflex,
Atilde,
Adieresis,
Aring,
AE,
Ccedilla,
Egrave,
Eacute,
Ecircumflex,
Edieresis,
Igrave,
Iacute,
Icircumflex,
Idieresis,
Eth,
Ntilde,
Ograve,
Oacute,
Ocircumflex,
Otilde,
Odieresis,
multiply,
Oslash,
Ugrave,
Uacute,
Ucircumflex,
Udieresis,
Yacute,
Thorn,
germandbls,
agrave,
aacute,
acircumflex,
atilde,
adieresis,
aring,
ae,
ccedilla,
egrave,
eacute,
ecircumflex,
edieresis,
igrave,
iacute,
icircumflex,
idieresis,
eth,
ntilde,
ograve,
oacute,
ocircumflex,
otilde,
odieresis,

glyphs = (
{
glyphname = .notdef;
layers = (
{
layerId = "C6F19E25-0F49-451F-AEE1-A003FA0ED529";
shapes = (
{
closed = 1;
nodes = (
(269,0,l),
(269,1210,l),
(1237,1210,l),
(1237,0,l)
);
},
{
closed = 1;
nodes = (
(299,30,l),
(1207,30,l),
(1207,1180,l),
(299,1180,l)
);
}
);
width = 1593;
},
{
layerId = "EDE6E634-030B-4ED7-B889-69990611018D";
shapes = (
{
closed = 1;
nodes = (
(269,0,l),
(269,1210,l),
(1237,1210,l),
(1237,0,l)
);
},
{
closed = 1;
nodes = (
(299,30,l),
(1207,30,l),
(1207,1180,l),
(299,1180,l)
);
}
);
width = 1593;
},
{
layerId = "EE85CFF4-71C8-4DB0-B443-69364CCEBDFC";
shapes = (
{
closed = 1;
nodes = (
(269,0,l),
(269,1210,l),
(1237,1210,l),
(1237,0,l)
);
},
{
closed = 1;
nodes = (
(299,30,l),
(1207,30,l),
(1207,1180,l),
(299,1180,l)
);
}
);
width = 1593;
},
{
layerId = "52A4F8C9-22CB-40B3-89C9-4EF9D272773E";
shapes = (
{
closed = 1;
nodes = (
(269,0,l),
(269,1210,l),
(1237,1210,l),
(1237,0,l)
);
},
{
closed = 1;
nodes = (
(299,30,l),
(1207,30,l),
(1207,1180,l),
(299,1180,l)
);
}
);
width = 1593;
}
);
},
{
glyphname = exclam;
layers = (
{
layerId = "C6F19E25-0F49-451F-AEE1-A003FA0ED529";
shapes = (
{
closed = 1;
nodes = (
(171,1356,l),
(513,1356,l),
(513,743,l),
(449,446,l),
(235,446,l),
(171,743,l)
);
},
{
closed = 1;
nodes = (
(145,262,o),
(227,328,o),
(339,328,cs),
(461,328,o),
(538,262,o),
(538,153,c),
(541,33,o),
(441,-21,o),
(339,-21,cs),
(239,-21,o),
(145,39,o),
(145,153,cs)
);
}
);
width = 682;
},
{
layerId = "EDE6E634-030B-4ED7-B889-69990611018D";
shapes = (
{
closed = 1;
nodes = (
(201,1356,l),
(484,1356,l),
(484,722,l),
(430,410,l),
(255,410,l),
(201,722,l)
);
},
{
closed = 1;
nodes = (
(172,227,o),
(241,285,o),
(340,285,cs),
(444,285,o),
(511,227,o),
(511,131,c),
(513,32,o),
(432,-22,o),
(340,-22,cs),
(248,-22,o),
(172,35,o),
(172,131,cs)
);
}
);
width = 682;
},
{
layerId = "EE85CFF4-71C8-4DB0-B443-69364CCEBDFC";
shapes = (
{
closed = 1;
nodes = (
(246,1356,l),
(440,1356,l),
(440,691,l),
(401,356,l),
(285,356,l),
(246,691,l)
);
},
{
closed = 1;
nodes = (
(212,174,o),
(262,220,o),
(342,220,cs),
(418,220,o),
(471,174,o),
(471,98,cs),
(471,30,o),
(418,-24,o),
(342,-24,cs),
(262,-24,o),
(212,29,o),
(212,98,cs)
);
}
);
width = 682;
},
{
layerId = "52A4F8C9-22CB-40B3-89C9-4EF9D272773E";
shapes = (
{
closed = 1;
nodes = (
(269,1356,l),
(418,1356,l),
(418,675,l),
(386,329,l),
(300,329,l),
(269,675,l)
);
},
{
closed = 1;
nodes = (
(232,147,o),
(273,187,o),
(343,187,cs),
(405,187,o),
(451,147,o),
(451,81,c),
(450,29,o),
(411,-25,o),
(343,-25,cs),
(269,-25,o),
(232,26,o),
(232,81,cs)
);
}
);
width = 682;
}
);
unicode = 33;
},
{
glyphname = quotedbl;
layers = (
{
layerId = "C6F19E25-0F49-451F-AEE1-A003FA0ED529";
shapes = (
{
closed = 1;
nodes = (
(319,1356,l),
(600,1356,l),
(522,907,l),
(319,907,l)
);
},
{
closed = 1;
nodes = (
(641,1356,l),
(922,1356,l),
(844,907,l),
(641,907,l)
);
}
);
width = 1338;
},
{
layerId = "EDE6E634-030B-4ED7-B889-69990611018D";
shapes = (
{
closed = 1;
nodes = (
(265,1356,l),
(505,1356,l),
(431,933,l),
(265,933,l)
);
},
{
closed = 1;
nodes = (
(574,1356,l),
(814,1356,l),
(740,933,l),
(574,933,l)
);
}
);
width = 1137;
},
{
layerId = "EE85CFF4-71C8-4DB0-B443-69364CCEBDFC";
shapes = (
{
closed = 1;
nodes = (
(184,1356,l),
(362,1356,l),
(294,972,l),
(184,972,l)
);
},
{
closed = 1;
nodes = (
(474,1356,l),
(652,1356,l),
(584,972,l),
(474,972,l)
);
}
);
width = 836;
},
{
layerId = "52A4F8C9-22CB-40B3-89C9-4EF9D272773E";
shapes = (
{
closed = 1;
nodes = (
(143,1356,l),
(290,1356,l),
(225,992,l),
(143,992,l)
);
},
{
closed = 1;
nodes = (
(424,1356,l),
(570,1356,l),
(505,992,l),
(424,992,l)
);
}
);
width = 684;
}
);
unicode = 34;
},
{
glyphname = numbersign;
layers = (
{
layerId = "C6F19E25-0F49-451F-AEE1-A003FA0ED529";
shapes = (
{
closed = 1;
nodes = (
(516,370,l),
(350,370,l),
(279,86,l),
(22,86,l),
(93,370,l),
(-5,370,l),
(51,604,l),
(154,604,l),
(196,771,l),
(99,771,l),
(153,1005,l),
(254,1005,l),
(322,1268,l),
(578,1268,l),
(513,1005,l),
(679,1005,l),
(747,1268,l),
(1004,1268,l),
(936,1005,l),
(1027,1005,l),
(967,771,l),
(877,771,l),
(831,604,l),
(920,604,l),
(862,370,l),
(771,370,l),
(704,86,l),
(447,86,l)
);
},
{
closed = 1;
nodes = (
(409,604,l),
(578,604,l),
(620,771,l),
(451,771,l)
);
}
);
width = 1024;
},
{
layerId = "EDE6E634-030B-4ED7-B889-69990611018D";
shapes = (
{
closed = 1;
nodes = (
(532,393,l),
(345,393,l),
(270,96,l),
(53,96,l),
(128,393,l),
(3,393,l),
(50,589,l),
(179,589,l),
(229,786,l),
(108,786,l),
(154,982,l),
(279,982,l),
(351,1259,l),
(567,1259,l),
(497,982,l),
(684,982,l),
(756,1259,l),
(973,1259,l),
(901,982,l),
(1020,982,l),
(969,786,l),
(851,786,l),
(798,589,l),
(913,589,l),
(863,393,l),
(748,393,l),
(674,96,l),
(458,96,l)
);
},
{
closed = 1;
nodes = (
(395,589,l),
(584,589,l),
(634,786,l),
(445,786,l)
);
}
);
width = 1024;
},
{
layerId = "EE85CFF4-71C8-4DB0-B443-69364CCEBDFC";
shapes = (
{
closed = 1;
nodes = (
(556,428,l),
(337,428,l),
(256,111,l),
(99,111,l),
(180,428,l),
(15,428,l),
(48,567,l),
(217,567,l),
(279,808,l),
(122,808,l),
(155,947,l),
(316,947,l),
(394,1245,l),
(550,1245,l),
(473,947,l),
(691,947,l),
(769,1245,l),
(926,1245,l),
(848,947,l),
(1009,947,l),
(972,808,l),
(812,808,l),
(749,567,l),
(902,567,l),
(865,428,l),
(713,428,l),
(629,111,l),
(475,111,l)
);
},
{
closed = 1;
nodes = (
(374,567,l),
(593,567,l),
(655,808,l),
(436,808,l)
);
}
);
width = 1024;
},
{
layerId = "52A4F8C9-22CB-40B3-89C9-4EF9D272773E";
shapes = (
{
closed = 1;
nodes = (
(568,446,l),
(333,446,l),
(249,119,l),
(122,119,l),
(206,446,l),
(21,446,l),
(47,556,l),
(236,556,l),
(304,819,l),
(129,819,l),
(156,929,l),
(335,929,l),
(416,1238,l),
(541,1238,l),
(461,929,l),
(695,929,l),
(776,1238,l),
(902,1238,l),
(821,929,l),
(1003,929,l),
(974,819,l),
(792,819,l),
(724,556,l),
(896,556,l),
(866,446,l),
(695,446,l),
(606,119,l),
(484,119,l)
);
},
{
closed = 1;
nodes = (
(363,556,l),
(598,556,l),
(666,819,l),
(431,819,l)
);
}
);
width = 1024;
}
);
unicode = 35;
},
{
glyphname = dollar;
layers = (
{
layerId = "C6F19E25-0F49-451F-AEE1-A003FA0ED529";
shapes = (
{
closed = 1;
nodes = (
(380,-26,l),
(216,-21,o),
(95,14,o),
(31,45,c),
(126,328,l),
(173,299,o),
(262,271,o),
(380,260,c),
(380,544,l),
(200,605,o),
(17,707,o),
(17,958,cs),
(17,1210,o),
(165,1334,o),
(380,1372,c),
(380,1549,l),
(642,1549,l),
(642,1379,l),
(781,1368,o),
(860,1337,o),
(923,1306,c),
(839,1032,l),
(800,1048,o),
(719,1075,o),
(642,1089,c),
(642,825,l),
(843,753,o),
(1006,667,o),
(1008,427,c),
(1011,166,o),
(872,30,o),
(642,-12,c),
(642,-194,l),
(380,-194,l)
);
},
{
closed = 1;
nodes = (
(518,254,l),
(642,264,o),
(669,317,o),
(669,381,cs),
(669,457,o),
(556,486,o),
(518,498,c)
);
},
{
closed = 1;
nodes = (
(501,1103,l),
(351,1102,o),
(356,1047,o),
(356,990,c),
(359,922,o),
(446,894,o),
(501,873,c)
);
}
);
width = 1024;
},
{
layerId = "EDE6E634-030B-4ED7-B889-69990611018D";
shapes = (
{
closed = 1;
nodes = (
(399,-26,l),
(238,-21,o),
(115,11,o),
(48,44,c),
(129,279,l),
(181,250,o),
(272,220,o),
(399,211,c),
(399,575,l),
(222,641,o),
(42,737,o),
(42,982,cs),
(42,1215,o),
(176,1339,o),
(399,1373,c),
(399,1549,l),
(617,1549,l),
(617,1379,l),
(742,1371,o),
(831,1347,o),
(907,1311,c),
(834,1083,l),
(790,1103,o),
(710,1128,o),
(617,1140,c),
(617,804,l),
(808,729,o),
(983,641,o),
(983,405,c),
(985,162,o),
(851,26,o),
(617,-13,c),
(617,-194,l),
(399,-194,l)
);
},
{
closed = 1;
nodes = (
(526,209,l),
(653,221,o),
(704,279,o),
(704,370,cs),
(704,460,o),
(596,501,o),
(526,529,c)
);
},
{
closed = 1;
nodes = (
(489,1148,l),
(353,1143,o),
(321,1090,o),
(321,1007,c),
(323,920,o),
(421,881,o),
(489,852,c)
);
}
);
width = 1024;
},
{
layerId = "EE85CFF4-71C8-4DB0-B443-69364CCEBDFC";
shapes = (
{
closed = 1;
nodes = (
(428,-26,l),
(271,-21,o),
(145,6,o),
(73,43,c),
(133,205,l),
(193,176,o),
(287,144,o),
(428,137,c),
(428,621,l),
(255,695,o),
(79,782,o),
(79,1018,cs),
(79,1222,o),
(193,1347,o),
(428,1375,c),
(428,1549,l),
(580,1549,l),
(580,1379,l),
(683,1376,o),
(788,1362,o),
(883,1319,c),
(827,1160,l),
(775,1185,o),
(697,1208,o),
(580,1216,c),
(580,773,l),
(756,693,o),
(949,602,o),
(946,372,c),
(946,156,o),
(820,20,o),
(580,-15,c),
(580,-194,l),
(428,-194,l)
);
},
{
closed = 1;
nodes = (
(538,142,l),
(670,157,o),
(757,222,o),
(757,353,cs),
(757,465,o),
(656,524,o),
(538,575,c)
);
},
{
closed = 1;
nodes = (
(471,1216,l),
(356,1205,o),
(269,1154,o),
(269,1033,cs),
(269,917,o),
(383,861,o),
(471,821,c)
);
}
);
width = 1024;
},
{
layerId = "52A4F8C9-22CB-40B3-89C9-4EF9D272773E";
shapes = (
{
closed = 1;
nodes = (
(443,-26,l),
(288,-21,o),
(160,3,o),
(86,42,c),
(135,168,l),
(199,139,o),
(295,106,o),
(443,100,c),
(443,644,l),
(272,722,o),
(98,805,o),
(98,1036,cs),
(98,1226,o),
(202,1351,o),
(443,1376,c),
(443,1549,l),
(561,1549,l),
(561,1379,l),
(653,1379,o),
(766,1370,o),
(871,1323,c),
(823,1199,l),
(767,1226,o),
(690,1248,o),
(561,1254,c),
(561,757,l),
(730,675,o),
(932,582,o),
(927,355,c),
(926,153,o),
(804,17,o),
(561,-16,c),
(561,-194,l),
(443,-194,l)
);
},
{
closed = 1;
nodes = (
(544,108,l),
(679,125,o),
(784,193,o),
(784,344,cs),
(784,468,o),
(686,536,o),
(544,598,c)
);
},
{
closed = 1;
nodes = (
(462,1250,l),
(358,1236,o),
(243,1186,o),
(243,1046,c),
(242,915,o),
(364,851,o),
(462,805,c)
);
}
);
width = 1024;
}
);
unicode = 36;
},
{
glyphname = percent;
layers = (
{
layerId = "C6F19E25-0F49-451F-AEE1-A003FA0ED529";
shapes = (
{
closed = 1;
nodes = (
(161,1280,o),
(319,1379,o),
(553,1379,cs),
(779,1379,o),
(943,1289,o),
(943,1050,cs),
(943,808,o),
(779,721,o),
(553,721,cs),
(319,721,o),
(161,808,o),
(161,1050,cs)
);
},
{
closed = 1;
nodes = (
(458,976,o),
(473,918,o),
(553,918,cs),
(611,918,o),
(643,934,o),
(643,1050,cs),
(643,1165,o),
(610,1181,o),
(553,1181,cs),
(494,1181,o),
(458,1165,o),
(458,1050,cs)
);
},
{
closed = 1;
nodes = (
(1335,561,o),
(1496,658,o),
(1726,658,cs),
(1953,658,o),
(2115,569,o),
(2115,329,cs),
(2115,87,o),
(1953,0,o),
(1726,0,cs),
(1496,0,o),
(1335,87,o),
(1335,329,cs)
);
},
{
closed = 1;
nodes = (
(1631,254,o),
(1645,196,o),
(1726,196,cs),
(1802,196,o),
(1816,237,o),
(1816,329,cs),
(1816,443,o),
(1783,462,o),
(1726,462,cs),
(1665,462,o),
(1631,445,o),
(1631,329,cs)
);
},
{
closed = 1;
nodes = (
(1385,1378,l),
(1573,1256,l),
(855,-76,l),
(666,33,l)
);
}
);
width = 2276;
},
{
layerId = "EDE6E634-030B-4ED7-B889-69990611018D";
shapes = (
{
closed = 1;
nodes = (
(150,1279,o),
(301,1379,o),
(518,1379,cs),
(730,1379,o),
(886,1288,o),
(886,1050,cs),
(886,810,o),
(730,721,o),
(518,721,cs),
(301,721,o),
(150,810,o),
(150,1050,cs)
);
},
{
closed = 1;
nodes = (
(396,949,o),
(427,889,o),
(518,889,cs),
(605,889,o),
(638,934,o),
(638,1050,cs),
(638,1166,o),
(605,1210,o),
(518,1210,cs),
(430,1210,o),
(396,1166,o),
(396,1050,cs)
);
},
{
closed = 1;
nodes = (
(1163,559,o),
(1316,658,o),
(1531,658,cs),
(1744,658,o),
(1898,568,o),
(1898,329,cs),
(1898,89,o),
(1744,0,o),
(1531,0,cs),
(1316,0,o),
(1163,89,o),
(1163,329,cs)
);
},
{
closed = 1;
nodes = (
(1409,228,o),
(1440,168,o),
(1531,168,cs),
(1618,168,o),
(1651,213,o),
(1651,329,cs),
(1651,445,o),
(1618,490,o),
(1531,490,cs),
(1442,490,o),
(1409,445,o),
(1409,329,cs)
);
},
{
closed = 1;
nodes = (
(1372,1379,l),
(1530,1269,l),
(656,-56,l),
(498,48,l)
);
}
);
width = 2048;
},
{
layerId = "EE85CFF4-71C8-4DB0-B443-69364CCEBDFC";
shapes = (
{
closed = 1;
nodes = (
(133,1277,o),
(274,1379,o),
(466,1379,cs),
(657,1379,o),
(801,1287,o),
(801,1050,cs),
(801,813,o),
(657,721,o),
(466,721,cs),
(274,721,o),
(133,813,o),
(133,1050,cs)
);
},
{
closed = 1;
nodes = (
(303,909,o),
(358,846,o),
(466,846,cs),
(596,846,o),
(630,934,o),
(630,1050,cs),
(630,1168,o),
(598,1253,o),
(466,1253,cs),
(334,1253,o),
(303,1167,o),
(303,1050,cs)
);
},
{
closed = 1;
nodes = (
(905,556,o),
(1046,658,o),
(1238,658,cs),
(1430,658,o),
(1573,566,o),
(1573,329,cs),
(1573,92,o),
(1430,0,o),
(1238,0,cs),
(1046,0,o),
(905,92,o),
(905,329,cs)
);
},
{
closed = 1;
nodes = (
(1076,189,o),
(1133,126,o),
(1238,126,cs),
(1342,126,o),
(1403,177,o),
(1403,329,cs),
(1403,448,o),
(1370,532,o),
(1238,532,cs),
(1107,532,o),
(1076,445,o),
(1076,329,cs)
);
},
{
closed = 1;
nodes = (
(1353,1381,l),
(1465,1288,l),
(357,-26,l),
(246,70,l)
);
}
);
width = 1706;
},
{
layerId = "52A4F8C9-22CB-40B3-89C9-4EF9D272773E";
shapes = (
{
closed = 1;
nodes = (
(124,1276,o),
(260,1379,o),
(440,1379,cs),
(620,1379,o),
(758,1286,o),
(758,1050,cs),
(758,815,o),
(620,721,o),
(440,721,cs),
(260,721,o),
(124,815,o),
(124,1050,cs)
);
},
{
closed = 1;
nodes = (
(256,889,o),
(323,824,o),
(440,824,cs),
(591,824,o),
(626,934,o),
(626,1050,cs),
(626,1169,o),
(594,1275,o),
(440,1275,cs),
(286,1275,o),
(256,1168,o),
(256,1050,cs)
);
},
{
closed = 1;
nodes = (
(775,554,o),
(910,658,o),
(1091,658,cs),
(1272,658,o),
(1409,565,o),
(1409,329,cs),
(1409,94,o),
(1272,0,o),
(1091,0,cs),
(910,0,o),
(775,94,o),
(775,329,cs)
);
},
{
closed = 1;
nodes = (
(908,169,o),
(978,105,o),
(1091,105,cs),
(1203,105,o),
(1278,159,o),
(1278,329,cs),
(1278,450,o),
(1245,553,o),
(1091,553,cs),
(938,553,o),
(908,445,o),
(908,329,cs)
);
},
{
closed = 1;
nodes = (
(1343,1382,l),
(1432,1298,l),
(207,-11,l),
(119,81,l)
);
}
);
width = 1534;
}
);
unicode = 37;
},
{
glyphname = ampersand;
layers = (
{
layerId = "C6F19E25-0F49-451F-AEE1-A003FA0ED529";
shapes = (
{
closed = 1;
nodes = (
(162,541,o),
(316,702,o),
(574,815,c),
(499,877,o),
(444,990,o),
(444,1079,cs),
(444,1220,o),
(580,1383,o),
(873,1383,cs),
(1149,1383,o),
(1250,1246,o),
(1250,1107,cs),
(1250,925,o),
(1082,812,o),
(962,768,c),
(1069,626,o),
(1141,556,o),
(1223,509,c),
(1287,574,o),
(1366,648,o),
(1430,753,c),
(1667,614,l),
(1587,483,o),
(1502,413,o),
(1447,361,c),
(1486,328,o),
(1660,234,o),
(1705,212,c),
(1525,-28,l),
(1453,1,o),
(1299,86,o),
(1230,145,c),
(1016,-22,o),
(867,-28,o),
(671,-28,cs),
(373,-28,o),
(162,96,o),
(162,351,cs)
);
},
{
closed = 1;
nodes = (
(909,410,o),
(786,510,o),
(711,622,c),
(574,585,o),
(490,490,o),
(490,407,cs),
(490,281,o),
(592,247,o),
(694,247,cs),
(763,247,o),
(875,228,o),
(1018,324,c)
);
},
{
closed = 1;
nodes = (
(769,1019,o),
(806,960,o),
(854,911,c),
(964,946,o),
(1004,1031,o),
(1004,1075,cs),
(1004,1129,o),
(957,1150,o),
(884,1150,cs),
(842,1150,o),
(769,1107,o),
(769,1060,cs)
);
}
);
width = 1781;
},
{
layerId = "EDE6E634-030B-4ED7-B889-69990611018D";
shapes = (
{
closed = 1;
nodes = (
(162,552,o),
(321,717,o),
(553,826,c),
(481,900,o),
(426,1003,o),
(426,1098,cs),
(426,1232,o),
(543,1382,o),
(810,1382,cs),
(1070,1382,o),
(1162,1250,o),
(1162,1121,cs),
(1162,970,o),
(1028,853,o),
(876,786,c),
(980,641,o),
(1078,538,o),
(1182,457,c),
(1246,521,o),
(1320,618,o),
(1373,722,c),
(1571,610,l),
(1510,496,o),
(1420,390,o),
(1360,328,c),
(1429,270,o),
(1558,197,o),
(1616,170,c),
(1465,-27,l),
(1393,5,o),
(1264,79,o),
(1187,148,c),
(1019,12,o),
(872,-27,o),
(665,-27,cs),
(380,-27,o),
(162,105,o),
(162,357,cs)
);
},
{
closed = 1;
nodes = (
(887,410,o),
(749,551,o),
(669,666,c),
(537,610,o),
(433,509,o),
(433,394,cs),
(433,258,o),
(555,200,o),
(689,200,cs),
(785,200,o),
(904,215,o),
(1015,300,c)
);
},
{
closed = 1;
nodes = (
(694,1032,o),
(730,969,o),
(781,909,c),
(905,963,o),
(949,1041,o),
(949,1088,cs),
(949,1154,o),
(906,1187,o),
(819,1187,cs),
(754,1187,o),
(694,1142,o),
(694,1085,cs)
);
}
);
width = 1706;
},
{
layerId = "EE85CFF4-71C8-4DB0-B443-69364CCEBDFC";
shapes = (
{
closed = 1;
nodes = (
(162,569,o),
(329,739,o),
(521,843,c),
(454,934,o),
(399,1022,o),
(399,1127,cs),
(399,1250,o),
(487,1381,o),
(715,1381,cs),
(952,1381,o),
(1030,1256,o),
(1030,1142,cs),
(1030,1037,o),
(947,914,o),
(747,813,c),
(847,664,o),
(984,511,o),
(1121,379,c),
(1184,442,o),
(1251,573,o),
(1288,676,c),
(1427,604,l),
(1395,515,o),
(1297,355,o),
(1229,279,c),
(1344,183,o),
(1405,142,o),
(1483,107,c),
(1375,-26,l),
(1303,11,o),
(1212,69,o),
(1123,153,c),
(1023,63,o),
(880,-26,o),
(656,-26,cs),
(390,-26,o),
(162,119,o),
(162,366,cs)
);
},
{
closed = 1;
nodes = (
(854,410,o),
(694,612,o),
(606,732,c),
(481,648,o),
(347,538,o),
(347,374,cs),
(347,223,o),
(499,130,o),
(682,130,cs),
(818,130,o),
(948,196,o),
(1011,264,c)
);
},
{
closed = 1;
nodes = (
(582,1051,o),
(616,982,o),
(672,906,c),
(816,989,o),
(867,1056,o),
(867,1107,cs),
(867,1191,o),
(830,1242,o),
(722,1242,cs),
(622,1242,o),
(582,1195,o),
(582,1123,cs)
);
}
);
width = 1593;
},
{
layerId = "52A4F8C9-22CB-40B3-89C9-4EF9D272773E";
shapes = (
{
closed = 1;
nodes = (
(162,578,o),
(333,750,o),
(505,852,c),
(440,951,o),
(385,1032,o),
(385,1142,cs),
(385,1259,o),
(459,1380,o),
(667,1380,cs),
(893,1380,o),
(964,1259,o),
(964,1153,cs),
(964,1071,o),
(906,945,o),
(682,827,c),
(780,676,o),
(937,497,o),
(1090,340,c),
(1153,402,o),
(1216,550,o),
(1245,653,c),
(1355,601,l),
(1337,525,o),
(1235,337,o),
(1163,254,c),
(1301,139,o),
(1328,114,o),
(1416,75,c),
(1330,-25,l),
(1258,14,o),
(1186,64,o),
(1091,156,c),
(1025,89,o),
(884,-25,o),
(651,-25,cs),
(395,-25,o),
(162,126,o),
(162,371,cs)
);
},
{
closed = 1;
nodes = (
(837,410,o),
(666,643,o),
(574,765,c),
(453,667,o),
(304,553,o),
(304,364,cs),
(304,205,o),
(471,95,o),
(678,95,cs),
(835,95,o),
(970,186,o),
(1009,246,c)
);
},
{
closed = 1;
nodes = (
(526,1061,o),
(559,989,o),
(617,904,c),
(771,1002,o),
(826,1064,o),
(826,1117,cs),
(826,1210,o),
(792,1270,o),
(673,1270,cs),
(556,1270,o),
(526,1222,o),
(526,1142,cs)
);
}
);
width = 1536;
}
);
unicode = 38;
},
{
glyphname = quotesingle;
layers = (
{
layerId = "C6F19E25-0F49-451F-AEE1-A003FA0ED529";
shapes = (
{
closed = 1;
nodes = (
(188,1356,l),
(470,1356,l),
(392,907,l),
(188,907,l)
);
}
);
width = 702;
},
{
layerId = "EDE6E634-030B-4ED7-B889-69990611018D";
shapes = (
{
closed = 1;
nodes = (
(164,1356,l),
(404,1356,l),
(330,933,l),
(164,933,l)
);
}
);
width = 569;
},
{
layerId = "EE85CFF4-71C8-4DB0-B443-69364CCEBDFC";
shapes = (
{
closed = 1;
nodes = (
(128,1356,l),
(305,1356,l),
(237,972,l),
(128,972,l)
);
}
);
width = 369;
},
{
layerId = "52A4F8C9-22CB-40B3-89C9-4EF9D272773E";
shapes = (
{
closed = 1;
nodes = (
(110,1356,l),
(255,1356,l),
(190,992,l),
(110,992,l)
);
}
);
width = 268;
}
);
unicode = 39;
},
{
glyphname = parenleft;
layers = (
{
layerId = "C6F19E25-0F49-451F-AEE1-A003FA0ED529";
shapes = (
{
closed = 1;
nodes = (
(445,-426,l),
(314,-302,o),
(229,-150,o),
(175,7,c),
(119,163,o),
(96,326,o),
(96,471,cs),
(96,612,o),
(119,772,o),
(176,933,cs),
(232,1093,o),
(323,1247,o),
(453,1379,c),
(668,1237,l),
(582,1127,o),
(517,999,o),
(482,868,cs),
(445,737,o),
(426,601,o),
(426,471,cs),
(426,345,o),
(449,209,o),
(487,80,cs),
(526,-51,o),
(589,-179,o),
(673,-284,c)
);
}
);
width = 682;
},
{
layerId = "EDE6E634-030B-4ED7-B889-69990611018D";
shapes = (
{
closed = 1;
nodes = (
(467,-426,l),
(336,-302,o),
(250,-150,o),
(195,7,cs),
(139,163,o),
(116,326,o),
(116,471,cs),
(116,612,o),
(139,773,o),
(196,933,cs),
(252,1092,o),
(343,1247,o),
(474,1379,c),
(648,1260,l),
(552,1143,o),
(484,1010,o),
(445,875,cs),
(405,740,o),
(387,602,o),
(387,471,cs),
(387,346,o),
(409,206,o),
(451,71,cs),
(493,-65,o),
(560,-198,o),
(652,-306,c)
);
}
);
width = 682;
},
{
layerId = "EE85CFF4-71C8-4DB0-B443-69364CCEBDFC";
shapes = (
{
closed = 1;
nodes = (
(500,-426,l),
(369,-302,o),
(281,-150,o),
(225,7,cs),
(169,163,o),
(146,326,o),
(146,471,cs),
(146,612,o),
(169,775,o),
(226,933,cs),
(282,1091,o),
(373,1247,o),
(506,1379,c),
(618,1295,l),
(507,1167,o),
(434,1027,o),
(390,886,cs),
(345,745,o),
(328,603,o),
(328,471,cs),
(328,347,o),
(349,201,o),
(397,58,cs),
(444,-86,o),
(516,-226,o),
(620,-339,c)
);
}
);
width = 682;
},
{
layerId = "52A4F8C9-22CB-40B3-89C9-4EF9D272773E";
shapes = (
{
closed = 1;
nodes = (
(517,-426,l),
(386,-302,o),
(297,-150,o),
(240,7,cs),
(184,163,o),
(161,326,o),
(161,471,cs),
(161,612,o),
(184,776,o),
(241,933,cs),
(297,1090,o),
(388,1247,o),
(522,1379,c),
(603,1313,l),
(484,1179,o),
(409,1036,o),
(362,892,cs),
(315,748,o),
(298,604,o),
(298,471,cs),
(298,348,o),
(319,198,o),
(370,51,c),
(419,-97,o),
(494,-240,o),
(604,-356,c)
);
}
);
width = 682;
}
);
unicode = 40;
},
{
glyphname = parenright;
layers = (
{
layerId = "C6F19E25-0F49-451F-AEE1-A003FA0ED529";
shapes = (
{
closed = 1;
nodes = (
(9,-284,l),
(93,-179,o),
(158,-51,o),
(196,80,cs),
(235,209,o),
(256,345,o),
(256,471,cs),
(256,601,o),
(239,737,o),
(202,868,cs),
(165,999,o),
(102,1127,o),
(14,1237,c),
(229,1379,l),
(359,1247,o),
(450,1093,o),
(507,933,c),
(563,772,o),
(586,612,o),
(586,471,cs),
(586,326,o),
(563,163,o),
(509,7,cs),
(453,-150,o),
(368,-302,o),
(237,-426,c)
);
}
);
width = 682;
},
{
layerId = "EDE6E634-030B-4ED7-B889-69990611018D";
shapes = (
{
closed = 1;
nodes = (
(30,-306,l),
(122,-198,o),
(190,-65,o),
(232,71,cs),
(274,206,o),
(295,346,o),
(295,471,cs),
(295,602,o),
(278,740,o),
(238,875,cs),
(198,1010,o),
(131,1143,o),
(34,1260,c),
(208,1379,l),
(339,1247,o),
(430,1092,o),
(487,933,cs),
(543,773,o),
(566,612,o),
(566,471,cs),
(566,326,o),
(543,163,o),
(488,7,cs),
(432,-150,o),
(346,-302,o),
(215,-426,c)
);
}
);
width = 682;
},
{
layerId = "EE85CFF4-71C8-4DB0-B443-69364CCEBDFC";
shapes = (
{
closed = 1;
nodes = (
(62,-339,l),
(166,-226,o),
(238,-86,o),
(286,58,cs),
(333,201,o),
(354,347,o),
(354,471,cs),
(354,603,o),
(337,745,o),
(292,886,cs),
(247,1026,o),
(175,1167,o),
(64,1295,c),
(176,1379,l),
(309,1247,o),
(400,1091,o),
(457,933,cs),
(513,775,o),
(536,612,o),
(536,471,cs),
(536,326,o),
(513,163,o),
(457,7,cs),
(401,-150,o),
(313,-302,o),
(182,-426,c)
);
}
);
width = 682;
},
{
layerId = "52A4F8C9-22CB-40B3-89C9-4EF9D272773E";
shapes = (
{
closed = 1;
nodes = (
(78,-356,l),
(188,-240,o),
(262,-97,o),
(313,51,cs),
(363,198,o),
(384,348,o),
(384,471,cs),
(384,604,o),
(367,748,o),
(319,892,cs),
(272,1034,o),
(197,1179,o),
(79,1313,c),
(160,1379,l),
(294,1247,o),
(385,1090,o),
(442,933,cs),
(498,776,o),
(521,612,o),
(521,471,cs),
(521,326,o),
(498,163,o),
(441,7,cs),
(385,-150,o),
(296,-302,o),
(165,-426,c)
);
}
);
width = 682;
}
);
unicode = 41;
},
{
glyphname = asterisk;
layers = (
{
layerId = "C6F19E25-0F49-451F-AEE1-A003FA0ED529";
shapes = (
{
closed = 1;
nodes = (
(433,1437,l),
(486,1354,l),
(509,1249,l),
(528,1344,l),
(582,1437,l),
(714,1365,l),
(656,1264,l),
(569,1199,l),
(678,1232,l),
(791,1232,l),
(791,1082,l),
(684,1082,l),
(580,1118,l),
(673,1039,l),
(721,959,l),
(585,883,l),
(536,970,l),
(507,1082,l),
(491,984,l),
(433,887,l),
(302,963,l),
(360,1062,l),
(441,1115,l),
(347,1082,l),
(233,1082,l),
(233,1235,l),
(350,1235,l),
(447,1199,l),
(351,1270,l),
(299,1358,l)
);
}
);
width = 1024;
},
{
layerId = "EDE6E634-030B-4ED7-B889-69990611018D";
shapes = (
{
closed = 1;
nodes = (
(419,1423,l),
(477,1332,l),
(508,1214,l),
(539,1325,l),
(597,1423,l),
(727,1352,l),
(665,1247,l),
(566,1162,l),
(701,1195,l),
(818,1195,l),
(818,1046,l),
(706,1046,l),
(579,1081,l),
(682,987,l),
(734,900,l),
(603,826,l),
(547,920,l),
(506,1046,l),
(479,931,l),
(419,831,l),
(287,906,l),
(350,1007,l),
(442,1079,l),
(326,1046,l),
(206,1046,l),
(206,1197,l),
(328,1197,l),
(450,1162,l),
(346,1249,l),
(287,1347,l)
);
}
);
width = 1024;
},
{
layerId = "EE85CFF4-71C8-4DB0-B443-69364CCEBDFC";
shapes = (
{
closed = 1;
nodes = (
(398,1402,l),
(463,1299,l),
(507,1162,l),
(556,1297,l),
(619,1402,l),
(746,1332,l),
(678,1222,l),
(561,1107,l),
(735,1140,l),
(858,1140,l),
(858,992,l),
(739,992,l),
(578,1025,l),
(695,909,l),
(753,812,l),
(630,740,l),
(563,845,l),
(505,992,l),
(461,852,l),
(398,747,l),
(264,820,l),
(335,925,l),
(443,1025,l),
(295,992,l),
(166,992,l),
(166,1140,l),
(295,1140,l),
(454,1107,l),
(338,1217,l),
(269,1330,l)
);
}
);
width = 1024;
},
{
layerId = "52A4F8C9-22CB-40B3-89C9-4EF9D272773E";
shapes = (
{
closed = 1;
nodes = (
(387,1391,l),
(456,1282,l),
(506,1136,l),
(565,1283,l),
(630,1391,l),
(756,1322,l),
(685,1209,l),
(558,1079,l),
(752,1112,l),
(878,1112,l),
(878,965,l),
(756,965,l),
(577,997,l),
(702,870,l),
(763,768,l),
(644,697,l),
(571,807,l),
(504,965,l),
(452,812,l),
(387,705,l),
(252,777,l),
(327,884,l),
(444,998,l),
(279,965,l),
(146,965,l),
(146,1111,l),
(278,1111,l),
(456,1079,l),
(334,1201,l),
(260,1321,l)
);
}
);
width = 1024;
}
);
unicode = 42;
},
{
glyphname = plus;
layers = (
{
layerId = "C6F19E25-0F49-451F-AEE1-A003FA0ED529";
shapes = (
{
closed = 1;
nodes = (
(121,792,l),
(443,792,l),
(443,1129,l),
(732,1129,l),
(732,792,l),
(1053,792,l),
(1053,513,l),
(732,513,l),
(732,176,l),
(443,176,l),
(443,513,l),
(121,513,l)
);
}
);
width = 1175;
},
{
layerId = "EDE6E634-030B-4ED7-B889-69990611018D";
shapes = (
{
closed = 1;
nodes = (
(122,769,l),
(463,769,l),
(463,1118,l),
(703,1118,l),
(703,769,l),
(1044,769,l),
(1044,536,l),
(703,536,l),
(703,186,l),
(463,186,l),
(463,536,l),
(122,536,l)
);
}
);
width = 1167;
},
{
layerId = "EE85CFF4-71C8-4DB0-B443-69364CCEBDFC";
shapes = (
{
closed = 1;
nodes = (
(124,734,l),
(493,734,l),
(493,1102,l),
(660,1102,l),
(660,734,l),
(1030,734,l),
(1030,571,l),
(660,571,l),
(660,201,l),
(493,201,l),
(493,571,l),
(124,571,l)
);
}
);
width = 1155;
},
{
layerId = "52A4F8C9-22CB-40B3-89C9-4EF9D272773E";
shapes = (
{
closed = 1;
nodes = (
(125,716,l),
(508,716,l),
(508,1094,l),
(638,1094,l),
(638,716,l),
(1023,716,l),
(1023,589,l),
(638,589,l),
(638,209,l),
(508,209,l),
(508,589,l),
(125,589,l)
);
}
);
width = 1149;
}
);
unicode = 43;
},
{
glyphname = comma;
layers = (
{
layerId = "C6F19E25-0F49-451F-AEE1-A003FA0ED529";
shapes = (
{
closed = 1;
nodes = (
(68,268,o),
(155,322,o),
(256,322,cs),
(393,322,o),
(467,224,o),
(467,105,cs),
(467,-170,o),
(263,-251,o),
(156,-285,c),
(62,-156,l),
(91,-149,o),
(120,-132,o),
(147,-103,cs),
(173,-74,o),
(192,-42,o),
(201,-7,c),
(174,-5,o),
(145,10,o),
(115,34,cs),
(84,58,o),
(68,98,o),
(68,156,cs)
);
}
);
width = 512;
},
{
layerId = "EDE6E634-030B-4ED7-B889-69990611018D";
shapes = (
{
closed = 1;
nodes = (
(96,224,o),
(171,275,o),
(259,275,cs),
(378,275,o),
(447,191,o),
(447,76,cs),
(447,-169,o),
(272,-255,o),
(165,-287,c),
(87,-174,l),
(124,-163,o),
(156,-142,o),
(182,-110,cs),
(208,-78,o),
(224,-44,o),
(229,-8,c),
(199,-11,o),
(169,-1,o),
(140,21,cs),
(111,43,o),
(96,79,o),
(96,130,cs)
);
}
);
width = 512;
},
{
layerId = "EE85CFF4-71C8-4DB0-B443-69364CCEBDFC";
shapes = (
{
closed = 1;
nodes = (
(138,158,o),
(195,205,o),
(264,205,cs),
(356,205,o),
(417,141,o),
(417,33,cs),
(417,-168,o),
(285,-261,o),
(179,-290,c),
(124,-201,l),
(173,-184,o),
(210,-157,o),
(235,-121,cs),
(260,-84,o),
(272,-47,o),
(271,-9,c),
(236,-20,o),
(205,-17,o),
(178,1,cs),
(151,20,o),
(138,50,o),
(138,91,cs)
);
}
);
width = 512;
},
{
layerId = "52A4F8C9-22CB-40B3-89C9-4EF9D272773E";
shapes = (
{
closed = 1;
nodes = (
(159,125,o),
(207,170,o),
(267,170,cs),
(345,170,o),
(402,116,o),
(402,11,cs),
(402,-167,o),
(292,-264,o),
(186,-292,c),
(143,-215,l),
(198,-195,o),
(237,-165,o),
(262,-127,c),
(286,-87,o),
(296,-49,o),
(292,-10,c),
(255,-25,o),
(223,-25,o),
(197,-9,cs),
(171,8,o),
(159,35,o),
(159,71,cs)
);
}
);
width = 512;
}
);
unicode = 44;
},
{
glyphname = hyphen;
layers = (
{
layerId = "C6F19E25-0F49-451F-AEE1-A003FA0ED529";
shapes = (
{
closed = 1;
nodes = (
(73,701,l),
(609,701,l),
(609,412,l),
(73,412,l)
);
}
);
width = 682;
},
{
layerId = "EDE6E634-030B-4ED7-B889-69990611018D";
shapes = (
{
closed = 1;
nodes = (
(77,678,l),
(605,678,l),
(605,438,l),
(77,438,l)
);
}
);
width = 682;
},
{
layerId = "EE85CFF4-71C8-4DB0-B443-69364CCEBDFC";
shapes = (
{
closed = 1;
nodes = (
(83,643,l),
(599,643,l),
(599,477,l),
(83,477,l)
);
}
);
width = 682;
},
{
layerId = "52A4F8C9-22CB-40B3-89C9-4EF9D272773E";
shapes = (
{
closed = 1;
nodes = (
(86,625,l),
(596,625,l),
(596,497,l),
(86,497,l)
);
}
);
width = 682;
}
);
unicode = (45,173);
},
{
glyphname = period;
layers = (
{
layerId = "C6F19E25-0F49-451F-AEE1-A003FA0ED529";
shapes = (
{
closed = 1;
nodes = (
(59,262,o),
(139,328,o),
(253,328,cs),
(375,328,o),
(451,262,o),
(451,153,c),
(454,33,o),
(355,-21,o),
(253,-21,cs),
(153,-21,o),
(59,39,o),
(59,153,cs)
);
}
);
width = 512;
},
{
layerId = "EDE6E634-030B-4ED7-B889-69990611018D";
shapes = (
{
closed = 1;
nodes = (
(86,227,o),
(154,285,o),
(254,285,cs),
(358,285,o),
(425,227,o),
(425,131,c),
(427,32,o),
(346,-22,o),
(254,-22,cs),
(162,-22,o),
(86,35,o),
(86,131,cs)
);
}
);
width = 512;
},
{
layerId = "EE85CFF4-71C8-4DB0-B443-69364CCEBDFC";
shapes = (
{
closed = 1;
nodes = (
(126,174,o),
(176,220,o),
(256,220,cs),
(333,220,o),
(386,174,o),
(386,98,cs),
(386,30,o),
(333,-24,o),
(256,-24,cs),
(176,-24,o),
(126,29,o),
(126,98,cs)
);
}
);
width = 512;
},
{
layerId = "52A4F8C9-22CB-40B3-89C9-4EF9D272773E";
shapes = (
{
closed = 1;
nodes = (
(146,147,o),
(187,187,o),
(257,187,cs),
(320,187,o),
(366,147,o),
(366,81,c),
(365,29,o),
(326,-25,o),
(257,-25,cs),
(183,-25,o),
(146,26,o),
(146,81,cs)
);
}
);
width = 512;
}
);
unicode = 46;
},
{
glyphname = slash;
layers = (
{
layerId = "C6F19E25-0F49-451F-AEE1-A003FA0ED529";
shapes = (
{
closed = 1;
nodes = (
(382,1376,l),
(656,1311,l),
(197,-383,l),
(-86,-319,l)
);
}
);
width = 569;
},
{
layerId = "EDE6E634-030B-4ED7-B889-69990611018D";
shapes = (
{
closed = 1;
nodes = (
(428,1377,l),
(650,1312,l),
(146,-338,l),
(-81,-272,l)
);
}
);
width = 569;
},
{
layerId = "EE85CFF4-71C8-4DB0-B443-69364CCEBDFC";
shapes = (
{
closed = 1;
nodes = (
(497,1379,l),
(641,1313,l),
(69,-271,l),
(-73,-201,l)
);
}
);
width = 569;
},
{
layerId = "52A4F8C9-22CB-40B3-89C9-4EF9D272773E";
shapes = (
{
closed = 1;
nodes = (
(582,1380,l),
(687,1314,l),
(-20,-237,l),
(-119,-165,l)
);
}
);
width = 569;
}
);
unicode = 47;
},
{
glyphname = zero;
layers = (
{
layerId = "C6F19E25-0F49-451F-AEE1-A003FA0ED529";
shapes = (
{
closed = 1;
nodes = (
(63,1143,o),
(216,1383,o),
(513,1383,cs),
(766,1383,o),
(961,1195,o),
(961,676,cs),
(961,150,o),
(768,-29,o),
(514,-29,cs),
(235,-29,o),
(63,190,o),
(63,676,cs)
);
},
{
closed = 1;
nodes = (
(402,366,o),
(401,243,o),
(513,243,cs),
(626,243,o),
(622,402,o),
(622,676,cs),
(622,987,o),
(611,1110,o),
(513,1110,cs),
(400,1110,o),
(402,954,o),
(402,676,cs)
);
}
);
width = 1024;
},
{
layerId = "EDE6E634-030B-4ED7-B889-69990611018D";
shapes = (
{
closed = 1;
nodes = (
(70,1138,o),
(215,1382,o),
(512,1382,cs),
(809,1382,o),
(954,1138,o),
(954,677,cs),
(954,216,o),
(809,-28,o),
(512,-28,cs),
(215,-28,o),
(70,216,o),
(70,677,cs)
);
},
{
closed = 1;
nodes = (
(349,365,o),
(368,198,o),
(512,198,cs),
(657,198,o),
(675,365,o),
(675,677,cs),
(675,989,o),
(656,1156,o),
(512,1156,cs),
(367,1156,o),
(349,989,o),
(349,677,cs)
);
}
);
width = 1024;
},
{
layerId = "EE85CFF4-71C8-4DB0-B443-69364CCEBDFC";
shapes = (
{
closed = 1;
nodes = (
(80,1130,o),
(214,1381,o),
(511,1381,cs),
(874,1381,o),
(944,1052,o),
(944,678,cs),
(944,315,o),
(870,-26,o),
(509,-26,cs),
(185,-26,o),
(80,255,o),
(80,678,cs)
);
},
{
closed = 1;
nodes = (
(270,364,o),
(318,130,o),
(511,130,cs),
(704,130,o),
(755,309,o),
(755,678,cs),
(755,992,o),
(723,1225,o),
(511,1225,cs),
(318,1225,o),
(270,1042,o),
(270,678,cs)
);
}
);
width = 1024;
},
{
layerId = "52A4F8C9-22CB-40B3-89C9-4EF9D272773E";
shapes = (
{
closed = 1;
nodes = (
(85,1126,o),
(213,1380,o),
(510,1380,cs),
(907,1380,o),
(939,1009,o),
(939,679,cs),
(939,365,o),
(901,-25,o),
(507,-25,cs),
(170,-25,o),
(85,275,o),
(85,679,cs)
);
},
{
closed = 1;
nodes = (
(230,363,o),
(293,96,o),
(510,96,cs),
(728,96,o),
(795,281,o),
(795,679,cs),
(795,994,o),
(757,1260,o),
(510,1260,cs),
(293,1260,o),
(230,1069,o),
(230,679,cs)
);
}
);
width = 1024;
}
);
unicode = 48;
},
{
glyphname = one;
layers = (
{
layerId = "C6F19E25-0F49-451F-AEE1-A003FA0ED529";
shapes = (
{
closed = 1;
nodes = (
(139,270,l),
(394,270,l),
(394,840,l),
(401,1000,l),
(291,884,l),
(191,822,l),
(67,1011,l),
(511,1358,l),
(710,1358,l),
(710,270,l),
(957,270,l),
(957,0,l),
(139,0,l)
);
}
);
width = 1024;
},
{
layerId = "EDE6E634-030B-4ED7-B889-69990611018D";
shapes = (
{
closed = 1;
nodes = (
(138,227,l),
(409,227,l),
(409,921,l),
(422,1064,l),
(322,956,l),
(170,857,l),
(63,1016,l),
(516,1358,l),
(670,1358,l),
(670,227,l),
(934,227,l),
(934,0,l),
(138,0,l)
);
}
);
width = 1024;
},
{
layerId = "EE85CFF4-71C8-4DB0-B443-69364CCEBDFC";
shapes = (
{
closed = 1;
nodes = (
(137,163,l),
(432,163,l),
(432,1042,l),
(454,1160,l),
(369,1064,l),
(139,909,l),
(57,1023,l),
(524,1358,l),
(610,1358,l),
(610,163,l),
(900,163,l),
(900,0,l),
(137,0,l)
);
}
);
width = 1024;
},
{
layerId = "52A4F8C9-22CB-40B3-89C9-4EF9D272773E";
shapes = (
{
closed = 1;
nodes = (
(136,131,l),
(444,131,l),
(444,1103,l),
(470,1208,l),
(393,1118,l),
(123,935,l),
(54,1027,l),
(528,1358,l),
(580,1358,l),
(580,131,l),
(883,131,l),
(883,0,l),
(136,0,l)
);
}
);
width = 1024;
}
);
unicode = 49;
},
{
glyphname = two;
layers = (
{
layerId = "C6F19E25-0F49-451F-AEE1-A003FA0ED529";
shapes = (
{
closed = 1;
nodes = (
(869,712,o),
(647,458,o),
(524,320,c),
(412,241,l),
(412,234,l),
(567,270,l),
(852,270,l),
(852,0,l),
(46,0,l),
(46,178,l),
(396,463,o),
(530,708,o),
(530,922,cs),
(530,1017,o),
(478,1091,o),
(376,1091,cs),
(294,1091,o),
(244,1058,o),
(172,995,c),
(38,1232,l),
(176,1331,o),
(300,1383,o),
(456,1383,cs),
(679,1383,o),
(869,1258,o),
(869,1008,cs)
);
}
);
width = 1024;
},
{
layerId = "EDE6E634-030B-4ED7-B889-69990611018D";
shapes = (
{
closed = 1;
nodes = (
(874,738,o),
(646,466,o),
(486,285,c),
(377,204,l),
(377,197,l),
(526,227,l),
(877,227,l),
(877,0,l),
(52,0,l),
(52,135,l),
(337,376,o),
(595,704,o),
(595,956,cs),
(595,1069,o),
(526,1142,o),
(411,1142,cs),
(319,1142,o),
(246,1103,o),
(174,1042,c),
(62,1236,l),
(187,1329,o),
(315,1382,o),
(474,1382,cs),
(694,1382,o),
(874,1261,o),
(874,1020,cs)
);
}
);
width = 1024;
},
{
layerId = "EE85CFF4-71C8-4DB0-B443-69364CCEBDFC";
shapes = (
{
closed = 1;
nodes = (
(882,777,o),
(645,478,o),
(429,233,c),
(325,149,l),
(325,142,l),
(464,163,l),
(915,163,l),
(915,0,l),
(61,0,l),
(61,70,l),
(248,246,o),
(693,698,o),
(693,1007,cs),
(693,1147,o),
(598,1218,o),
(464,1218,cs),
(356,1218,o),
(249,1171,o),
(177,1112,c),
(98,1242,l),
(203,1326,o),
(337,1381,o),
(501,1381,cs),
(716,1381,o),
(882,1266,o),
(882,1038,cs)
);
}
);
width = 1024;
},
{
layerId = "52A4F8C9-22CB-40B3-89C9-4EF9D272773E";
shapes = (
{
closed = 1;
nodes = (
(886,797,o),
(644,484,o),
(400,207,c),
(299,121,l),
(299,114,l),
(433,131,l),
(934,131,l),
(934,0,l),
(66,0,l),
(66,37,l),
(203,181,o),
(742,695,o),
(742,1033,cs),
(742,1186,o),
(634,1256,o),
(491,1256,cs),
(375,1256,o),
(251,1205,o),
(179,1147,c),
(116,1245,l),
(211,1324,o),
(348,1380,o),
(515,1380,cs),
(727,1380,o),
(886,1269,o),
(886,1047,cs)
);
}
);
width = 1024;
}
);
unicode = 50;
},
{
glyphname = three;
layers = (
{
layerId = "C6F19E25-0F49-451F-AEE1-A003FA0ED529";
shapes = (
{
closed = 1;
nodes = (
(542,245,o),
(575,330,o),
(575,414,cs),
(575,535,o),
(501,587,o),
(312,587,cs),
(195,587,l),
(195,779,l),
(397,1012,l),
(483,1095,l),
(335,1086,l),
(88,1086,l),
(88,1356,l),
(848,1356,l),
(848,1163,l),
(638,913,l),
(498,811,l),
(597,807,l),
(755,777,o),
(902,675,o),
(902,424,cs),
(902,106,o),
(703,-28,o),
(391,-28,cs),
(275,-28,o),
(94,-6,o),
(14,39,c),
(105,306,l),
(181,274,o),
(270,245,o),
(382,245,cs)
);
}
);
width = 1024;
},
{
layerId = "EDE6E634-030B-4ED7-B889-69990611018D";
shapes = (
{
closed = 1;
nodes = (
(571,200,o),
(644,295,o),
(644,407,cs),
(644,548,o),
(552,612,o),
(355,612,cs),
(222,612,l),
(222,756,l),
(462,1057,l),
(554,1141,l),
(408,1129,l),
(97,1129,l),
(97,1356,l),
(859,1356,l),
(859,1210,l),
(602,884,l),
(487,798,l),
(576,801,l),
(759,782,o),
(914,661,o),
(914,420,cs),
(914,115,o),
(701,-27,o),
(402,-27,cs),
(282,-27,o),
(131,-5,o),
(51,35,c),
(125,259,l),
(198,227,o),
(286,200,o),
(398,200,cs)
);
}
);
width = 1024;
},
{
layerId = "EE85CFF4-71C8-4DB0-B443-69364CCEBDFC";
shapes = (
{
closed = 1;
nodes = (
(614,133,o),
(747,242,o),
(747,397,cs),
(747,568,o),
(629,649,o),
(420,649,cs),
(263,649,l),
(263,722,l),
(560,1125,l),
(660,1210,l),
(517,1193,l),
(111,1193,l),
(111,1356,l),
(875,1356,l),
(875,1280,l),
(548,841,l),
(470,778,l),
(544,792,l),
(765,789,o),
(932,640,o),
(932,414,cs),
(932,129,o),
(698,-26,o),
(418,-26,cs),
(293,-26,o),
(186,-4,o),
(106,29,c),
(155,188,l),
(223,157,o),
(310,133,o),
(422,133,cs)
);
}
);
width = 1024;
},
{
layerId = "52A4F8C9-22CB-40B3-89C9-4EF9D272773E";
shapes = (
{
closed = 1;
nodes = (
(636,99,o),
(799,215,o),
(799,392,cs),
(799,578,o),
(668,668,o),
(453,668,cs),
(284,668,l),
(284,705,l),
(609,1159,l),
(713,1245,l),
(572,1225,l),
(118,1225,l),
(118,1356,l),
(883,1356,l),
(883,1315,l),
(521,819,l),
(461,768,l),
(528,787,l),
(768,793,o),
(941,629,o),
(941,411,cs),
(941,136,o),
(696,-25,o),
(426,-25,cs),
(299,-25,o),
(214,-3,o),
(134,26,c),
(170,152,l),
(236,122,o),
(322,99,o),
(434,99,cs)
);
}
);
width = 1024;
}
);
unicode = 51;
},
{
glyphname = four;
layers = (
{
layerId = "C6F19E25-0F49-451F-AEE1-A003FA0ED529";
shapes = (
{
closed = 1;
nodes = (
(1024,351,l),
(866,351,l),
(866,0,l),
(560,0,l),
(560,351,l),
(23,351,l),
(23,548,l),
(578,1356,l),
(866,1356,l),
(866,600,l),
(1024,600,l)
);
},
{
closed = 1;
nodes = (
(560,801,l),
(554,960,l),
(490,815,l),
(379,665,l),
(328,599,l),
(429,600,l),
(560,600,l)
);
}
);
width = 1024;
},
{
layerId = "EDE6E634-030B-4ED7-B889-69990611018D";
shapes = (
{
closed = 1;
nodes = (
(1012,374,l),
(842,374,l),
(842,0,l),
(587,0,l),
(587,374,l),
(20,374,l),
(20,525,l),
(617,1356,l),
(842,1356,l),
(842,584,l),
(1012,584,l)
);
},
{
closed = 1;
nodes = (
(587,854,l),
(591,1011,l),
(521,874,l),
(356,653,l),
(284,577,l),
(403,584,l),
(587,584,l)
);
}
);
width = 1024;
},
{
layerId = "EE85CFF4-71C8-4DB0-B443-69364CCEBDFC";
shapes = (
{
closed = 1;
nodes = (
(994,408,l),
(806,408,l),
(806,0,l),
(628,0,l),
(628,408,l),
(15,408,l),
(15,490,l),
(676,1356,l),
(806,1356,l),
(806,560,l),
(994,560,l)
);
},
{
closed = 1;
nodes = (
(628,934,l),
(646,1088,l),
(568,963,l),
(321,635,l),
(218,544,l),
(364,560,l),
(628,560,l)
);
}
);
width = 1024;
},
{
layerId = "52A4F8C9-22CB-40B3-89C9-4EF9D272773E";
shapes = (
{
closed = 1;
nodes = (
(985,425,l),
(788,425,l),
(788,0,l),
(649,0,l),
(649,425,l),
(12,425,l),
(12,472,l),
(706,1356,l),
(788,1356,l),
(788,548,l),
(985,548,l)
);
},
{
closed = 1;
nodes = (
(649,974,l),
(674,1127,l),
(592,1008,l),
(303,626,l),
(185,527,l),
(344,548,l),
(649,548,l)
);
}
);
width = 1024;
}
);
unicode = 52;
},
{
glyphname = five;
layers = (
{
layerId = "C6F19E25-0F49-451F-AEE1-A003FA0ED529";
shapes = (
{
closed = 1;
nodes = (
(583,264,o),
(615,372,o),
(615,458,cs),
(615,571,o),
(528,637,o),
(315,619,c),
(153,611,l),
(153,1356,l),
(862,1356,l),
(862,1050,l),
(433,1050,l),
(433,882,l),
(518,894,l),
(788,879,o),
(947,701,o),
(945,443,c),
(945,127,o),
(743,-28,o),
(412,-28,cs),
(281,-28,o),
(155,6,o),
(78,42,c),
(168,316,l),
(230,292,o),
(290,264,o),
(402,264,cs)
);
}
);
width = 1024;
},
{
layerId = "EDE6E634-030B-4ED7-B889-69990611018D";
shapes = (
{
closed = 1;
nodes = (
(576,213,o),
(656,311,o),
(656,441,cs),
(656,581,o),
(551,656,o),
(335,645,cs),
(167,637,l),
(167,1356,l),
(861,1356,l),
(861,1104,l),
(403,1104,l),
(403,863,l),
(491,872,l),
(763,861,o),
(928,695,o),
(928,436,cs),
(928,130,o),
(714,-27,o),
(400,-27,cs),
(272,-27,o),
(161,0,o),
(84,33,c),
(158,259,l),
(221,235,o),
(284,213,o),
(396,213,cs)
);
}
);
width = 1024;
},
{
layerId = "EE85CFF4-71C8-4DB0-B443-69364CCEBDFC";
shapes = (
{
closed = 1;
nodes = (
(565,137,o),
(718,220,o),
(718,416,cs),
(718,596,o),
(586,684,o),
(365,684,c),
(188,676,l),
(188,1356,l),
(860,1356,l),
(860,1185,l),
(358,1185,l),
(358,835,l),
(450,839,l),
(726,834,o),
(900,686,o),
(903,426,c),
(903,134,o),
(670,-26,o),
(382,-26,cs),
(258,-26,o),
(170,-9,o),
(93,19,c),
(143,174,l),
(207,150,o),
(275,137,o),
(387,137,cs)
);
}
);
width = 1024;
},
{
layerId = "52A4F8C9-22CB-40B3-89C9-4EF9D272773E";
shapes = (
{
closed = 1;
nodes = (
(559,99,o),
(749,174,o),
(749,403,cs),
(749,604,o),
(604,698,o),
(380,704,c),
(199,696,l),
(199,1356,l),
(859,1356,l),
(859,1226,l),
(335,1226,l),
(335,821,l),
(429,822,l),
(707,820,o),
(886,681,o),
(890,421,c),
(890,136,o),
(648,-25,o),
(373,-25,cs),
(251,-25,o),
(175,-14,o),
(98,12,c),
(135,131,l),
(200,107,o),
(270,99,o),
(382,99,cs)
);
}
);
width = 1024;
}
);
unicode = 53;
},
{
glyphname = six;
layers = (
{
layerId = "C6F19E25-0F49-451F-AEE1-A003FA0ED529";
shapes = (
{
closed = 1;
nodes = (
(981,197,o),
(793,-28,o),
(506,-28,cs),
(214,-28,o),
(35,172,o),
(35,503,cs),
(35,971,o),
(392,1383,o),
(868,1383,c),
(895,1144,l),
(690,1113,o),
(423,994,o),
(364,752,c),
(438,817,o),
(519,861,o),
(583,861,cs),
(836,861,o),
(981,683,o),
(981,456,cs)
);
},
{
closed = 1;
nodes = (
(665,530,o),
(614,586,o),
(506,586,cs),
(438,586,o),
(389,546,o),
(355,490,c),
(351,471,o),
(351,463,o),
(351,449,cs),
(351,339,o),
(373,247,o),
(505,247,cs),
(624,247,o),
(665,323,o),
(665,421,cs)
);
}
);
width = 1024;
},
{
layerId = "EDE6E634-030B-4ED7-B889-69990611018D";
shapes = (
{
closed = 1;
nodes = (
(970,192,o),
(798,-27,o),
(501,-27,cs),
(223,-27,o),
(48,165,o),
(48,495,cs),
(48,938,o),
(365,1382,o),
(845,1382,c),
(867,1182,l),
(632,1148,o),
(374,979,o),
(321,721,c),
(385,788,o),
(467,841,o),
(567,841,cs),
(826,841,o),
(970,673,o),
(970,432,cs)
);
},
{
closed = 1;
nodes = (
(707,545,o),
(647,614,o),
(506,614,cs),
(405,614,o),
(339,548,o),
(312,499,c),
(308,475,o),
(308,465,o),
(308,452,cs),
(308,333,o),
(354,200,o),
(511,200,cs),
(644,200,o),
(707,295,o),
(707,408,cs)
);
}
);
width = 1024;
},
{
layerId = "EE85CFF4-71C8-4DB0-B443-69364CCEBDFC";
shapes = (
{
closed = 1;
nodes = (
(954,183,o),
(806,-26,o),
(511,-26,cs),
(238,-26,o),
(68,155,o),
(68,461,cs),
(68,889,o),
(326,1381,o),
(810,1381,c),
(826,1240,l),
(545,1200,o),
(303,957,o),
(260,673,c),
(309,743,o),
(391,811,o),
(544,811,cs),
(811,811,o),
(954,657,o),
(954,409,cs)
);
},
{
closed = 1;
nodes = (
(770,567,o),
(696,655,o),
(507,655,cs),
(398,655,o),
(301,607,o),
(250,511,c),
(246,481,o),
(246,466,o),
(246,453,cs),
(246,319,o),
(322,130,o),
(518,130,cs),
(676,130,o),
(770,252,o),
(770,396,cs)
);
}
);
width = 1024;
},
{
layerId = "52A4F8C9-22CB-40B3-89C9-4EF9D272773E";
shapes = (
{
closed = 1;
nodes = (
(946,179,o),
(810,-25,o),
(517,-25,cs),
(246,-25,o),
(78,150,o),
(78,448,cs),
(78,864,o),
(307,1380,o),
(792,1380,c),
(805,1269,l),
(491,1224,o),
(274,991,o),
(229,649,c),
(271,721,o),
(353,796,o),
(540,796,cs),
(803,796,o),
(946,649,o),
(946,398,cs)
);
},
{
closed = 1;
nodes = (
(802,579,o),
(721,676,o),
(508,676,cs),
(394,676,o),
(282,637,o),
(219,518,c),
(215,485,o),
(215,469,o),
(215,447,cs),
(215,316,o),
(306,95,o),
(522,95,cs),
(692,95,o),
(802,231,o),
(802,390,cs)
);
}
);
width = 1024;
}
);
unicode = 54;
},
{
glyphname = seven;
layers = (
{
layerId = "C6F19E25-0F49-451F-AEE1-A003FA0ED529";
shapes = (
{
closed = 1;
nodes = (
(139,0,l),
(496,882,l),
(577,1047,l),
(414,1043,l),
(81,1043,l),
(81,1356,l),
(969,1356,l),
(969,1267,l),
(459,0,l)
);
}
);
width = 1024;
},
{
layerId = "EDE6E634-030B-4ED7-B889-69990611018D";
shapes = (
{
closed = 1;
nodes = (
(148,0,l),
(571,973,l),
(657,1110,l),
(509,1100,l),
(72,1100,l),
(72,1356,l),
(964,1356,l),
(964,1280,l),
(414,0,l)
);
}
);
width = 1024;
},
{
layerId = "EE85CFF4-71C8-4DB0-B443-69364CCEBDFC";
shapes = (
{
closed = 1;
nodes = (
(161,0,l),
(683,1110,l),
(777,1205,l),
(651,1185,l),
(58,1185,l),
(58,1356,l),
(957,1356,l),
(957,1299,l),
(347,0,l)
);
}
);
width = 1024;
},
{
layerId = "52A4F8C9-22CB-40B3-89C9-4EF9D272773E";
shapes = (
{
closed = 1;
nodes = (
(168,0,l),
(739,1179,l),
(837,1253,l),
(722,1228,l),
(51,1228,l),
(51,1356,l),
(953,1356,l),
(953,1309,l),
(313,0,l)
);
}
);
width = 1024;
}
);
unicode = 55;
},
{
glyphname = eight;
layers = (
{
layerId = "C6F19E25-0F49-451F-AEE1-A003FA0ED529";
shapes = (
{
closed = 1;
nodes = (
(165,779,o),
(81,860,o),
(81,1013,cs),
(81,1213,o),
(233,1383,o),
(522,1383,cs),
(789,1383,o),
(945,1249,o),
(945,1044,cs),
(945,902,o),
(885,802,o),
(757,720,c),
(891,650,o),
(988,528,o),
(988,368,cs),
(988,130,o),
(790,-28,o),
(508,-28,cs),
(217,-28,o),
(38,115,o),
(38,339,cs),
(38,534,o),
(143,622,o),
(261,687,c)
);
},
{
closed = 1;
nodes = (
(383,544,o),
(338,487,o),
(338,395,cs),
(338,280,o),
(437,247,o),
(511,247,cs),
(635,247,o),
(673,292,o),
(673,369,cs),
(673,466,o),
(553,533,o),
(449,582,c)
);
},
{
closed = 1;
nodes = (
(637,855,o),
(649,918,o),
(649,978,cs),
(649,1061,o),
(601,1110,o),
(517,1110,cs),
(409,1110,o),
(392,1069,o),
(392,1003,cs),
(392,894,o),
(485,844,o),
(582,805,c)
);
}
);
width = 1024;
},
{
layerId = "EDE6E634-030B-4ED7-B889-69990611018D";
shapes = (
{
closed = 1;
nodes = (
(186,777,o),
(91,862,o),
(91,1022,cs),
(91,1221,o),
(246,1382,o),
(523,1382,cs),
(778,1382,o),
(934,1248,o),
(934,1053,cs),
(934,902,o),
(856,799,o),
(728,717,c),
(868,642,o),
(973,531,o),
(973,364,cs),
(973,133,o),
(788,-27,o),
(505,-27,cs),
(222,-27,o),
(52,122,o),
(52,335,cs),
(52,517,o),
(152,614,o),
(299,691,c)
);
},
{
closed = 1;
nodes = (
(376,559,o),
(302,486,o),
(302,379,cs),
(302,262,o),
(399,200,o),
(510,200,cs),
(642,200,o),
(713,257,o),
(713,362,cs),
(713,476,o),
(582,546,o),
(460,604,c)
);
},
{
closed = 1;
nodes = (
(656,853,o),
(686,923,o),
(686,999,cs),
(686,1097,o),
(616,1156,o),
(518,1156,cs),
(394,1156,o),
(350,1094,o),
(350,1018,cs),
(350,895,o),
(458,840,o),
(575,789,c)
);
}
);
width = 1024;
},
{
layerId = "EE85CFF4-71C8-4DB0-B443-69364CCEBDFC";
shapes = (
{
closed = 1;
nodes = (
(217,774,o),
(106,865,o),
(106,1036,cs),
(106,1233,o),
(266,1381,o),
(525,1381,cs),
(762,1381,o),
(918,1246,o),
(918,1067,cs),
(918,902,o),
(813,794,o),
(684,713,c),
(834,630,o),
(951,536,o),
(951,358,cs),
(951,138,o),
(785,-26,o),
(500,-26,cs),
(230,-26,o),
(73,133,o),
(73,329,cs),
(73,492,o),
(165,602,o),
(356,697,c)
);
},
{
closed = 1;
nodes = (
(365,581,o),
(248,484,o),
(248,355,cs),
(248,235,o),
(342,130,o),
(509,130,cs),
(653,130,o),
(773,204,o),
(773,351,cs),
(773,491,o),
(625,565,o),
(476,637,c)
);
},
{
closed = 1;
nodes = (
(684,850,o),
(742,931,o),
(742,1031,cs),
(742,1151,o),
(638,1225,o),
(519,1225,cs),
(371,1225,o),
(287,1131,o),
(287,1040,cs),
(287,896,o),
(417,834,o),
(564,765,c)
);
}
);
width = 1024;
},
{
layerId = "52A4F8C9-22CB-40B3-89C9-4EF9D272773E";
shapes = (
{
closed = 1;
nodes = (
(233,772,o),
(114,867,o),
(114,1043,cs),
(114,1239,o),
(276,1380,o),
(526,1380,cs),
(754,1380,o),
(910,1245,o),
(910,1074,cs),
(910,902,o),
(791,791,o),
(662,711,c),
(817,624,o),
(940,539,o),
(940,355,cs),
(940,141,o),
(783,-25,o),
(497,-25,cs),
(234,-25,o),
(84,139,o),
(84,326,cs),
(84,479,o),
(172,596,o),
(385,700,c)
);
},
{
closed = 1;
nodes = (
(359,592,o),
(221,483,o),
(221,343,cs),
(221,221,o),
(313,95,o),
(508,95,cs),
(659,95,o),
(803,177,o),
(803,345,cs),
(803,499,o),
(647,575,o),
(484,654,c)
);
},
{
closed = 1;
nodes = (
(698,848,o),
(770,935,o),
(770,1047,cs),
(770,1178,o),
(649,1260,o),
(520,1260,cs),
(359,1260,o),
(255,1150,o),
(255,1051,cs),
(255,897,o),
(396,831,o),
(558,753,c)
);
}
);
width = 1024;
}
);
unicode = 56;
},
{
glyphname = nine;
layers = (
{
layerId = "C6F19E25-0F49-451F-AEE1-A003FA0ED529";
shapes = (
{
closed = 1;
nodes = (
(43,1159,o),
(231,1384,o),
(518,1384,cs),
(810,1384,o),
(989,1184,o),
(989,853,cs),
(989,385,o),
(632,-27,o),
(156,-27,c),
(129,212,l),
(334,243,o),
(601,362,o),
(660,604,c),
(586,539,o),
(505,495,o),
(441,495,cs),
(188,495,o),
(43,673,o),
(43,900,cs)
);
},
{
closed = 1;
nodes = (
(359,826,o),
(410,770,o),
(518,770,cs),
(586,770,o),
(635,810,o),
(669,866,c),
(673,885,o),
(673,893,o),
(673,907,cs),
(673,1017,o),
(651,1109,o),
(519,1109,cs),
(400,1109,o),
(359,1033,o),
(359,935,cs)
);
}
);
width = 1024;
},
{
layerId = "EDE6E634-030B-4ED7-B889-69990611018D";
shapes = (
{
closed = 1;
nodes = (
(54,1164,o),
(226,1383,o),
(523,1383,cs),
(801,1383,o),
(976,1191,o),
(976,861,cs),
(976,418,o),
(659,-26,o),
(179,-26,c),
(157,174,l),
(392,208,o),
(650,377,o),
(703,635,c),
(639,568,o),
(557,515,o),
(457,515,cs),
(198,515,o),
(54,683,o),
(54,924,cs)
);
},
{
closed = 1;
nodes = (
(317,811,o),
(377,742,o),
(518,742,cs),
(619,742,o),
(685,808,o),
(712,857,c),
(716,881,o),
(716,891,o),
(716,904,cs),
(716,1023,o),
(670,1156,o),
(513,1156,cs),
(380,1156,o),
(317,1061,o),
(317,948,cs)
);
}
);
width = 1024;
},
{
layerId = "EE85CFF4-71C8-4DB0-B443-69364CCEBDFC";
shapes = (
{
closed = 1;
nodes = (
(70,1173,o),
(218,1382,o),
(513,1382,cs),
(786,1382,o),
(956,1201,o),
(956,895,cs),
(956,467,o),
(698,-25,o),
(214,-25,c),
(198,116,l),
(479,156,o),
(721,399,o),
(764,683,c),
(715,613,o),
(633,545,o),
(480,545,cs),
(213,545,o),
(70,699,o),
(70,947,cs)
);
},
{
closed = 1;
nodes = (
(254,789,o),
(328,701,o),
(517,701,cs),
(626,701,o),
(723,749,o),
(774,845,c),
(778,875,o),
(778,890,o),
(778,903,cs),
(778,1037,o),
(702,1226,o),
(506,1226,cs),
(348,1226,o),
(254,1104,o),
(254,960,cs)
);
}
);
width = 1024;
},
{
layerId = "52A4F8C9-22CB-40B3-89C9-4EF9D272773E";
shapes = (
{
closed = 1;
nodes = (
(78,1177,o),
(214,1381,o),
(507,1381,cs),
(778,1381,o),
(946,1206,o),
(946,908,cs),
(946,492,o),
(717,-24,o),
(232,-24,c),
(219,87,l),
(533,132,o),
(750,365,o),
(795,707,c),
(753,635,o),
(671,560,o),
(484,560,cs),
(221,560,o),
(78,707,o),
(78,958,cs)
);
},
{
closed = 1;
nodes = (
(222,777,o),
(303,680,o),
(516,680,cs),
(630,680,o),
(742,719,o),
(805,838,c),
(809,871,o),
(809,887,o),
(809,909,cs),
(809,1040,o),
(718,1261,o),
(502,1261,cs),
(332,1261,o),
(222,1125,o),
(222,966,cs)
);
}
);
width = 1024;
}
);
unicode = 57;
},
{
glyphname = colon;
layers = (
{
layerId = "C6F19E25-0F49-451F-AEE1-A003FA0ED529";
shapes = (
{
closed = 1;
nodes = (
(183,907,o),
(261,973,o),
(377,973,cs),
(499,973,o),
(576,907,o),
(576,798,c),
(579,678,o),
(479,624,o),
(377,624,cs),
(275,624,o),
(183,683,o),
(183,798,cs)
);
},
{
closed = 1;
nodes = (
(183,262,o),
(261,328,o),
(377,328,cs),
(499,328,o),
(576,262,o),
(576,153,c),
(579,33,o),
(479,-21,o),
(377,-21,cs),
(275,-21,o),
(183,38,o),
(183,153,cs)
);
}
);
width = 757;
},
{
layerId = "EDE6E634-030B-4ED7-B889-69990611018D";
shapes = (
{
closed = 1;
nodes = (
(172,919,o),
(240,977,o),
(340,977,cs),
(444,977,o),
(511,919,o),
(511,823,c),
(513,724,o),
(432,670,o),
(340,670,cs),
(248,670,o),
(172,727,o),
(172,823,cs)
);
},
{
closed = 1;
nodes = (
(172,227,o),
(240,285,o),
(340,285,cs),
(444,285,o),
(511,227,o),
(511,131,c),
(513,32,o),
(432,-22,o),
(340,-22,cs),
(248,-22,o),
(172,35,o),
(172,131,cs)
);
}
);
width = 682;
},
{
layerId = "EE85CFF4-71C8-4DB0-B443-69364CCEBDFC";
shapes = (
{
closed = 1;
nodes = (
(155,937,o),
(208,983,o),
(284,983,cs),
(361,983,o),
(414,937,o),
(414,861,cs),
(414,793,o),
(361,739,o),
(284,739,cs),
(208,739,o),
(155,793,o),
(155,861,cs)
);
},
{
closed = 1;
nodes = (
(155,174,o),
(208,220,o),
(284,220,cs),
(361,220,o),
(414,174,o),
(414,98,cs),
(414,30,o),
(361,-24,o),
(284,-24,cs),
(208,-24,o),
(155,30,o),
(155,98,cs)
);
}
);
width = 569;
},
{
layerId = "52A4F8C9-22CB-40B3-89C9-4EF9D272773E";
shapes = (
{
closed = 1;
nodes = (
(146,946,o),
(192,986,o),
(256,986,cs),
(319,986,o),
(365,946,o),
(365,880,c),
(364,828,o),
(325,774,o),
(256,774,cs),
(188,774,o),
(146,826,o),
(146,880,cs)
);
},
{
closed = 1;
nodes = (
(146,147,o),
(192,187,o),
(256,187,cs),
(319,187,o),
(365,147,o),
(365,81,c),
(364,29,o),
(325,-25,o),
(256,-25,cs),
(188,-25,o),
(146,27,o),
(146,81,cs)
);
}
);
width = 512;
}
);
unicode = 58;
},
{
glyphname = semicolon;
layers = (
{
layerId = "C6F19E25-0F49-451F-AEE1-A003FA0ED529";
shapes = (
{
closed = 1;
nodes = (
(178,268,o),
(267,322,o),
(365,322,cs),
(504,322,o),
(577,224,o),
(577,105,cs),
(577,-170,o),
(373,-251,o),
(266,-285,c),
(172,-156,l),
(200,-149,o),
(228,-132,o),
(256,-103,c),
(282,-74,o),
(301,-42,o),
(310,-7,c),
(284,-5,o),
(255,10,o),
(224,34,cs),
(194,58,o),
(178,98,o),
(178,156,cs)
);
},
{
closed = 1;
nodes = (
(169,907,o),
(249,973,o),
(363,973,cs),
(485,973,o),
(562,907,o),
(562,798,c),
(565,678,o),
(465,624,o),
(363,624,cs),
(263,624,o),
(169,684,o),
(169,798,cs)
);
}
);
width = 757;
},
{
layerId = "EDE6E634-030B-4ED7-B889-69990611018D";
shapes = (
{
closed = 1;
nodes = (
(171,224,o),
(246,275,o),
(334,275,cs),
(453,275,o),
(522,191,o),
(522,76,cs),
(522,-169,o),
(347,-255,o),
(240,-287,c),
(162,-174,l),
(199,-163,o),
(231,-142,o),
(257,-110,cs),
(283,-78,o),
(299,-44,o),
(304,-8,c),
(274,-11,o),
(244,-1,o),
(215,21,cs),
(186,43,o),
(171,79,o),
(171,130,cs)
);
},
{
closed = 1;
nodes = (
(170,919,o),
(238,977,o),
(338,977,cs),
(442,977,o),
(509,919,o),
(509,823,c),
(511,724,o),
(430,670,o),
(338,670,cs),
(246,670,o),
(170,727,o),
(170,823,cs)
);
}
);
width = 682;
},
{
layerId = "EE85CFF4-71C8-4DB0-B443-69364CCEBDFC";
shapes = (
{
closed = 1;
nodes = (
(161,158,o),
(215,205,o),
(287,205,cs),
(376,205,o),
(440,141,o),
(440,33,cs),
(440,-168,o),
(308,-261,o),
(201,-290,c),
(147,-201,l),
(198,-184,o),
(235,-157,o),
(259,-121,cs),
(284,-84,o),
(296,-47,o),
(295,-9,c),
(259,-20,o),
(228,-17,o),
(201,1,cs),
(174,20,o),
(161,50,o),
(161,91,cs)
);
},
{
closed = 1;
nodes = (
(171,937,o),
(221,983,o),
(301,983,cs),
(377,983,o),
(430,937,o),
(430,861,cs),
(430,793,o),
(377,739,o),
(301,739,cs),
(221,739,o),
(171,792,o),
(171,861,cs)
);
}
);
width = 569;
},
{
layerId = "52A4F8C9-22CB-40B3-89C9-4EF9D272773E";
shapes = (
{
closed = 1;
nodes = (
(156,125,o),
(199,170,o),
(263,170,cs),
(337,170,o),
(399,116,o),
(399,11,cs),
(399,-167,o),
(288,-264,o),
(181,-292,c),
(139,-215,l),
(197,-195,o),
(237,-165,o),
(260,-127,cs),
(285,-87,o),
(294,-49,o),
(290,-10,c),
(251,-25,o),
(220,-25,o),
(194,-9,cs),
(168,8,o),
(156,35,o),
(156,71,cs)
);
},
{
closed = 1;
nodes = (
(172,946,o),
(212,986,o),
(282,986,cs),
(344,986,o),
(390,946,o),
(390,880,c),
(389,828,o),
(350,774,o),
(282,774,cs),
(208,774,o),
(172,825,o),
(172,880,cs)
);
}
);
width = 512;
}
);
unicode = (59,894);
},
{
glyphname = less;
layers = (
{
layerId = "C6F19E25-0F49-451F-AEE1-A003FA0ED529";
shapes = (
{
closed = 1;
nodes = (
(120,526,l),
(120,716,l),
(948,1172,l),
(1082,950,l),
(635,690,l),
(445,624,l),
(633,567,l),
(1090,311,l),
(960,86,l)
);
}
);
width = 1175;
},
{
layerId = "EDE6E634-030B-4ED7-B889-69990611018D";
shapes = (
{
closed = 1;
nodes = (
(110,548,l),
(110,691,l),
(931,1148,l),
(1044,959,l),
(578,691,l),
(386,623,l),
(576,564,l),
(1053,300,l),
(943,111,l)
);
}
);
width = 1167;
},
{
layerId = "EE85CFF4-71C8-4DB0-B443-69364CCEBDFC";
shapes = (
{
closed = 1;
nodes = (
(95,581,l),
(95,654,l),
(906,1112,l),
(987,972,l),
(492,693,l),
(298,621,l),
(490,560,l),
(997,283,l),
(918,148,l)
);
}
);
width = 1155;
},
{
layerId = "52A4F8C9-22CB-40B3-89C9-4EF9D272773E";
shapes = (
{
closed = 1;
nodes = (
(87,598,l),
(87,635,l),
(893,1094,l),
(958,979,l),
(449,694,l),
(254,620,l),
(447,558,l),
(969,274,l),
(905,167,l)
);
}
);
width = 1149;
}
);
unicode = 60;
},
{
glyphname = equal;
layers = (
{
layerId = "C6F19E25-0F49-451F-AEE1-A003FA0ED529";
shapes = (
{
closed = 1;
nodes = (
(120,995,l),
(1056,995,l),
(1056,715,l),
(120,715,l)
);
},
{
closed = 1;
nodes = (
(120,590,l),
(1056,590,l),
(1056,312,l),
(120,312,l)
);
}
);
width = 1175;
},
{
layerId = "EDE6E634-030B-4ED7-B889-69990611018D";
shapes = (
{
closed = 1;
nodes = (
(122,957,l),
(1046,957,l),
(1046,724,l),
(122,724,l)
);
},
{
closed = 1;
nodes = (
(122,581,l),
(1046,581,l),
(1046,349,l),
(122,349,l)
);
}
);
width = 1167;
},
{
layerId = "EE85CFF4-71C8-4DB0-B443-69364CCEBDFC";
shapes = (
{
closed = 1;
nodes = (
(125,900,l),
(1031,900,l),
(1031,738,l),
(125,738,l)
);
},
{
closed = 1;
nodes = (
(125,567,l),
(1031,567,l),
(1031,405,l),
(125,405,l)
);
}
);
width = 1155;
},
{
layerId = "52A4F8C9-22CB-40B3-89C9-4EF9D272773E";
shapes = (
{
closed = 1;
nodes = (
(127,871,l),
(1023,871,l),
(1023,745,l),
(127,745,l)
);
},
{
closed = 1;
nodes = (
(127,560,l),
(1023,560,l),
(1023,433,l),
(127,433,l)
);
}
);
width = 1149;
}
);
unicode = 61;
},
{
glyphname = greater;
layers = (
{
layerId = "C6F19E25-0F49-451F-AEE1-A003FA0ED529";
shapes = (
{
closed = 1;
nodes = (
(1055,736,l),
(1055,545,l),
(224,84,l),
(95,313,l),
(543,569,l),
(734,638,l),
(545,694,l),
(85,952,l),
(215,1177,l)
);
}
);
width = 1175;
},
{
layerId = "EDE6E634-030B-4ED7-B889-69990611018D";
shapes = (
{
closed = 1;
nodes = (
(1057,711,l),
(1057,567,l),
(233,109,l),
(124,302,l),
(591,567,l),
(783,637,l),
(593,695,l),
(114,961,l),
(223,1151,l)
);
}
);
width = 1167;
},
{
layerId = "EE85CFF4-71C8-4DB0-B443-69364CCEBDFC";
shapes = (
{
closed = 1;
nodes = (
(1060,674,l),
(1060,600,l),
(246,146,l),
(167,285,l),
(663,564,l),
(856,635,l),
(665,697,l),
(158,974,l),
(235,1112,l)
);
}
);
width = 1155;
},
{
layerId = "52A4F8C9-22CB-40B3-89C9-4EF9D272773E";
shapes = (
{
closed = 1;
nodes = (
(1062,655,l),
(1062,617,l),
(253,165,l),
(189,276,l),
(699,562,l),
(893,634,l),
(701,698,l),
(180,981,l),
(241,1092,l)
);
}
);
width = 1149;
}
);
unicode = 62;
},
{
glyphname = question;
layers = (
{
layerId = "C6F19E25-0F49-451F-AEE1-A003FA0ED529";
shapes = (
{
closed = 1;
nodes = (
(313,446,l),
(298,589,o),
(310,751,o),
(479,857,c),
(531,876,o),
(646,931,o),
(646,1000,cs),
(646,1100,o),
(581,1110,o),
(492,1110,cs),
(420,1110,o),
(247,1065,o),
(199,1008,c),
(65,1250,l),
(202,1352,o),
(367,1383,o),
(540,1383,c),
(722,1386,o),
(988,1330,o),
(988,1050,cs),
(988,904,o),
(963,793,o),
(796,706,c),
(668,643,o),
(604,586,o),
(604,446,c)
);
},
{
closed = 1;
nodes = (
(274,262,o),
(353,328,o),
(468,328,cs),
(588,328,o),
(665,262,o),
(665,153,c),
(668,33,o),
(570,-21,o),
(468,-21,cs),
(366,-21,o),
(274,36,o),
(274,153,cs)
);
}
);
width = 1101;
},
{
layerId = "EDE6E634-030B-4ED7-B889-69990611018D";
shapes = (
{
closed = 1;
nodes = (
(306,410,l),
(291,566,o),
(326,704,o),
(460,801,cs),
(530,853,o),
(645,915,o),
(645,1013,cs),
(645,1131,o),
(564,1156,o),
(461,1156,cs),
(375,1156,o),
(239,1112,o),
(175,1059,c),
(70,1260,l),
(203,1351,o),
(346,1382,o),
(506,1382,c),
(716,1384,o),
(928,1293,o),
(928,1053,cs),
(928,893,o),
(874,788,o),
(735,701,cs),
(620,628,o),
(543,561,o),
(543,410,c)
);
},
{
closed = 1;
nodes = (
(266,227,o),
(333,285,o),
(434,285,cs),
(537,285,o),
(604,227,o),
(604,131,c),
(606,32,o),
(526,-22,o),
(434,-22,cs),
(341,-22,o),
(266,33,o),
(266,131,cs)
);
}
);
width = 1024;
},
{
layerId = "EE85CFF4-71C8-4DB0-B443-69364CCEBDFC";
shapes = (
{
closed = 1;
nodes = (
(296,356,l),
(281,531,o),
(350,634,o),
(431,717,cs),
(529,818,o),
(644,891,o),
(644,1033,cs),
(644,1178,o),
(538,1225,o),
(414,1225,cs),
(308,1225,o),
(227,1183,o),
(139,1135,c),
(78,1275,l),
(204,1350,o),
(314,1381,o),
(455,1381,cs),
(707,1381,o),
(838,1237,o),
(838,1057,cs),
(838,877,o),
(741,780,o),
(644,693,cs),
(548,605,o),
(451,523,o),
(451,356,c)
);
},
{
closed = 1;
nodes = (
(254,174,o),
(303,220,o),
(383,220,cs),
(460,220,o),
(513,174,o),
(513,98,cs),
(513,30,o),
(460,-24,o),
(383,-24,cs),
(303,-24,o),
(254,29,o),
(254,98,cs)
);
}
);
width = 909;
},
{
layerId = "52A4F8C9-22CB-40B3-89C9-4EF9D272773E";
shapes = (
{
closed = 1;
nodes = (
(291,329,l),
(276,513,o),
(362,599,o),
(416,675,c),
(528,800,o),
(643,879,o),
(643,1043,cs),
(643,1202,o),
(525,1260,o),
(390,1260,cs),
(274,1260,o),
(221,1219,o),
(121,1173,c),
(82,1283,l),
(205,1349,o),
(298,1380,o),
(429,1380,c),
(702,1379,o),
(793,1209,o),
(793,1059,cs),
(793,869,o),
(674,776,o),
(598,689,c),
(512,593,o),
(405,504,o),
(405,329,c)
);
},
{
closed = 1;
nodes = (
(248,147,o),
(288,187,o),
(357,187,cs),
(421,187,o),
(467,147,o),
(467,81,c),
(466,29,o),
(427,-25,o),
(357,-25,cs),
(284,-25,o),
(248,27,o),
(248,81,cs)
);
}
);
width = 851;
}
);
unicode = 63;
},
{
glyphname = at;
layers = (
{
layerId = "C6F19E25-0F49-451F-AEE1-A003FA0ED529";
shapes = (
{
closed = 1;
nodes = (
(1240,864,l),
(1418,864,l),
(1325,396,l),
(1326,400,o),
(1322,400,o),
(1319,392,c),
(1316,320,o),
(1344,293,o),
(1396,293,cs),
(1503,293,o),
(1597,375,o),
(1597,606,cs),
(1597,956,o),
(1336,1068,o),
(1026,1068,cs),
(630,1068,o),
(356,784,o),
(356,435,cs),
(356,92,o),
(534,-143,o),
(986,-143,cs),
(1084,-143,o),
(1180,-122,o),
(1257,-92,c),
(1329,-315,l),
(1210,-368,o),
(1082,-385,o),
(957,-385,cs),
(432,-385,o),
(98,-92,o),
(98,426,c),
(91,958,o),
(525,1310,o),
(1026,1310,cs),
(1512,1310,o),
(1856,1029,o),
(1856,589,cs),
(1856,279,o),
(1618,59,o),
(1297,59,cs),
(1168,59,o),
(1055,99,o),
(1066,247,c),
(1058,247,l),
(977,134,o),
(895,59,o),
(732,59,cs),
(605,59,o),
(504,160,o),
(504,316,c),
(506,601,o),
(719,875,o),
(978,875,cs),
(1075,875,o),
(1135,847,o),
(1184,806,c)
);
},
{
closed = 1;
nodes = (
(1111,612,l),
(1081,631,o),
(1054,640,o),
(1003,640,cs),
(872,640,o),
(786,504,o),
(786,408,cs),
(786,342,o),
(811,293,o),
(891,293,cs),
(954,293,o),
(1016,343,o),
(1066,420,c)
);
}
);
width = 1918;
},
{
layerId = "EDE6E634-030B-4ED7-B889-69990611018D";
shapes = (
{
closed = 1;
nodes = (
(1253,860,l),
(1389,860,l),
(1294,383,ls),
(1289,356,o),
(1285,334,o),
(1285,315,cs),
(1285,258,o),
(1311,235,o),
(1359,235,cs),
(1490,235,o),
(1617,350,o),
(1617,591,cs),
(1617,947,o),
(1347,1094,o),
(1007,1094,cs),
(605,1094,o),
(311,802,o),
(311,430,cs),
(311,61,o),
(529,-182,o),
(980,-182,cs),
(1068,-182,o),
(1166,-162,o),
(1243,-131,c),
(1302,-317,l),
(1186,-368,o),
(1073,-383,o),
(952,-383,cs),
(444,-383,o),
(95,-91,o),
(95,420,c),
(91,947,o),
(516,1295,o),
(1011,1295,cs),
(1485,1295,o),
(1831,1016,o),
(1831,581,cs),
(1831,279,o),
(1593,40,o),
(1285,40,cs),
(1155,40,o),
(1058,86,o),
(1077,247,c),
(1070,247,l),
(990,135,o),
(895,40,o),
(735,40,cs),
(610,40,o),
(509,144,o),
(509,301,cs),
(509,583,o),
(730,871,o),
(991,871,cs),
(1082,871,o),
(1138,845,o),
(1193,802,c)
);
},
{
closed = 1;
nodes = (
(1131,634,l),
(1096,663,o),
(1065,675,o),
(1009,675,cs),
(853,675,o),
(743,499,o),
(743,367,cs),
(743,291,o),
(772,235,o),
(860,235,cs),
(937,235,o),
(1024,322,o),
(1083,424,c)
);
}
);
width = 1905;
},
{
layerId = "EE85CFF4-71C8-4DB0-B443-69364CCEBDFC";
shapes = (
{
closed = 1;
nodes = (
(1272,854,l),
(1345,854,l),
(1247,363,l),
(1234,290,o),
(1229,235,o),
(1234,200,cs),
(1239,165,o),
(1262,148,o),
(1304,148,cs),
(1471,148,o),
(1647,313,o),
(1647,569,cs),
(1647,933,o),
(1363,1133,o),
(979,1133,cs),
(567,1133,o),
(243,829,o),
(243,422,cs),
(243,15,o),
(521,-241,o),
(971,-241,cs),
(1044,-241,o),
(1145,-222,o),
(1222,-190,c),
(1261,-320,l),
(1150,-368,o),
(1060,-380,o),
(945,-380,cs),
(462,-380,o),
(91,-90,o),
(91,411,cs),
(91,930,o),
(502,1273,o),
(988,1273,cs),
(1444,1273,o),
(1794,997,o),
(1794,569,cs),
(1794,279,o),
(1556,12,o),
(1267,12,cs),
(1136,12,o),
(1062,67,o),
(1094,247,c),
(1088,247,l),
(1009,136,o),
(895,12,o),
(739,12,cs),
(618,12,o),
(517,120,o),
(517,279,c),
(513,556,o),
(747,865,o),
(1010,865,cs),
(1092,865,o),
(1142,842,o),
(1207,796,c)
);
},
{
closed = 1;
nodes = (
(1161,667,l),
(1118,711,o),
(1082,728,o),
(1018,728,cs),
(824,728,o),
(678,491,o),
(678,306,cs),
(678,215,o),
(713,148,o),
(813,148,cs),
(911,148,o),
(1036,290,o),
(1108,430,c)
);
}
);
width = 1886;
},
{
layerId = "52A4F8C9-22CB-40B3-89C9-4EF9D272773E";
shapes = (
{
closed = 1;
nodes = (
(1282,851,l),
(1323,851,l),
(1223,353,l),
(1206,257,o),
(1201,185,o),
(1208,142,c),
(1216,118,o),
(1237,104,o),
(1276,104,cs),
(1461,104,o),
(1662,294,o),
(1662,558,cs),
(1662,926,o),
(1371,1153,o),
(965,1153,cs),
(548,1153,o),
(209,843,o),
(209,418,cs),
(209,-8,o),
(517,-271,o),
(966,-271,cs),
(1032,-271,o),
(1134,-252,o),
(1211,-220,c),
(1240,-322,l),
(1132,-368,o),
(1053,-378,o),
(941,-378,cs),
(471,-378,o),
(89,-89,o),
(89,406,c),
(91,921,o),
(495,1262,o),
(976,1262,cs),
(1423,1262,o),
(1775,987,o),
(1775,563,cs),
(1775,279,o),
(1537,-2,o),
(1258,-2,cs),
(1126,-2,o),
(1064,57,o),
(1103,247,c),
(1097,247,l),
(1019,137,o),
(895,-2,o),
(741,-2,cs),
(622,-2,o),
(521,108,o),
(521,268,c),
(515,542,o),
(756,862,o),
(1020,862,cs),
(1097,862,o),
(1144,840,o),
(1214,793,c)
);
},
{
closed = 1;
nodes = (
(1176,684,l),
(1129,735,o),
(1091,755,o),
(1023,755,cs),
(809,755,o),
(645,487,o),
(645,275,cs),
(645,177,o),
(683,104,o),
(789,104,cs),
(898,104,o),
(1042,274,o),
(1121,433,c)
);
}
);
width = 1876;
}
);
unicode = 64;
},
{
glyphname = A;
layers = (
{
layerId = "C6F19E25-0F49-451F-AEE1-A003FA0ED529";
shapes = (
{
closed = 1;
nodes = (
(40,0,l),
(596,1356,l),
(881,1356,l),
(1439,0,l),
(1067,0,l),
(974,243,l),
(486,243,l),
(392,0,l)
);
},
{
closed = 1;
nodes = (
(597,514,l),
(865,514,l),
(797,687,l),
(738,880,l),
(728,880,l),
(666,686,l)
);
}
);
width = 1479;
},
{
layerId = "EDE6E634-030B-4ED7-B889-69990611018D";
shapes = (
{
closed = 1;
nodes = (
(40,0,l),
(633,1356,l),
(844,1356,l),
(1439,0,l),
(1135,0,l),
(1013,288,l),
(450,288,l),
(327,0,l)
);
},
{
closed = 1;
nodes = (
(547,515,l),
(917,515,l),
(798,789,l),
(737,964,l),
(729,964,l),
(667,787,l)
);
}
);
width = 1479;
},
{
layerId = "EE85CFF4-71C8-4DB0-B443-69364CCEBDFC";
shapes = (
{
closed = 1;
nodes = (
(40,0,l),
(688,1356,l),
(789,1356,l),
(1439,0,l),
(1237,0,l),
(1071,355,l),
(396,355,l),
(230,0,l)
);
},
{
closed = 1;
nodes = (
(472,517,l),
(995,517,l),
(787,943,l),
(735,1091,l),
(731,1091,l),
(678,939,l)
);
}
);
width = 1479;
},
{
layerId = "52A4F8C9-22CB-40B3-89C9-4EF9D272773E";
shapes = (
{
closed = 1;
nodes = (
(40,0,l),
(716,1356,l),
(761,1356,l),
(1439,0,l),
(1288,0,l),
(1100,389,l),
(369,389,l),
(181,0,l)
);
},
{
closed = 1;
nodes = (
(434,518,l),
(1034,518,l),
(781,1021,l),
(734,1155,l),
(732,1155,l),
(684,1016,l)
);
}
);
width = 1479;
}
);
unicode = 65;
},
{
glyphname = B;
layers = (
{
layerId = "C6F19E25-0F49-451F-AEE1-A003FA0ED529";
shapes = (
{
closed = 1;
nodes = (
(1222,899,o),
(1157,757,o),
(966,727,c),
(966,714,l),
(1143,701,o),
(1267,589,o),
(1267,378,c),
(1262,96,o),
(982,-20,o),
(687,-20,cs),
(627,-20,o),
(379,-25,o),
(207,9,c),
(207,1347,l),
(319,1361,o),
(479,1376,o),
(645,1376,cs),
(943,1376,o),
(1222,1311,o),
(1222,1032,cs)
);
},
{
closed = 1;
nodes = (
(540,269,l),
(558,255,o),
(626,258,o),
(674,258,cs),
(795,258,o),
(902,295,o),
(902,404,cs),
(902,542,o),
(771,554,o),
(651,554,cs),
(540,554,l)
);
},
{
closed = 1;
nodes = (
(657,810,ls),
(707,810,o),
(733,809,o),
(768,816,cs),
(830,829,o),
(875,902,o),
(875,967,cs),
(875,1077,o),
(752,1097,o),
(677,1097,cs),
(622,1097,o),
(573,1096,o),
(540,1091,c),
(540,810,l)
);
}
);
width = 1366;
},
{
layerId = "EDE6E634-030B-4ED7-B889-69990611018D";
shapes = (
{
closed = 1;
nodes = (
(1219,904,o),
(1146,760,o),
(955,726,c),
(955,715,l),
(1127,699,o),
(1264,591,o),
(1264,381,c),
(1261,99,o),
(979,-19,o),
(694,-19,cs),
(600,-19,o),
(358,-21,o),
(210,9,c),
(210,1346,l),
(319,1362,o),
(510,1375,o),
(675,1375,cs),
(942,1375,o),
(1219,1310,o),
(1219,1036,cs)
);
},
{
closed = 1;
nodes = (
(486,225,l),
(511,212,o),
(635,213,o),
(691,213,cs),
(834,213,o),
(963,264,o),
(963,395,cs),
(963,561,o),
(804,577,o),
(661,577,cs),
(486,577,l)
);
},
{
closed = 1;
nodes = (
(599,791,ls),
(639,791,o),
(699,791,o),
(735,796,c),
(825,824,o),
(928,875,o),
(928,983,cs),
(928,1119,o),
(793,1142,o),
(668,1142,cs),
(595,1142,o),
(522,1140,o),
(486,1135,c),
(486,791,l)
);
}
);
width = 1366;
},
{
layerId = "EE85CFF4-71C8-4DB0-B443-69364CCEBDFC";
shapes = (
{
closed = 1;
nodes = (
(1215,912,o),
(1129,764,o),
(938,724,c),
(938,717,l),
(1103,696,o),
(1260,594,o),
(1260,386,cs),
(1260,104,o),
(974,-17,o),
(704,-17,cs),
(560,-17,o),
(327,-15,o),
(215,9,c),
(215,1344,l),
(319,1363,o),
(557,1373,o),
(720,1373,cs),
(941,1373,o),
(1215,1308,o),
(1215,1042,cs)
);
},
{
closed = 1;
nodes = (
(405,159,l),
(441,147,o),
(649,146,o),
(717,146,cs),
(893,146,o),
(1055,217,o),
(1055,381,cs),
(1055,589,o),
(853,612,o),
(676,612,cs),
(405,612,l)
);
},
{
closed = 1;
nodes = (
(512,763,ls),
(537,763,o),
(653,763,o),
(686,766,cs),
(825,779,o),
(1008,835,o),
(1008,1007,cs),
(1008,1182,o),
(854,1210,o),
(654,1210,cs),
(555,1210,o),
(445,1206,o),
(405,1201,c),
(405,763,l)
);
}
);
width = 1366;
},
{
layerId = "52A4F8C9-22CB-40B3-89C9-4EF9D272773E";
shapes = (
{
closed = 1;
nodes = (
(1213,916,o),
(1120,766,o),
(929,723,c),
(929,718,l),
(1091,694,o),
(1258,596,o),
(1258,389,c),
(1259,107,o),
(971,-16,o),
(709,-16,cs),
(540,-16,o),
(311,-12,o),
(218,9,c),
(218,1343,l),
(319,1364,o),
(581,1372,o),
(743,1372,cs),
(940,1372,o),
(1213,1307,o),
(1213,1045,cs)
);
},
{
closed = 1;
nodes = (
(364,126,l),
(406,114,o),
(656,112,o),
(730,112,cs),
(923,112,o),
(1101,193,o),
(1101,374,cs),
(1101,603,o),
(878,630,o),
(684,630,cs),
(364,630,l)
);
},
{
closed = 1;
nodes = (
(468,749,ls),
(486,749,o),
(630,749,o),
(661,751,c),
(825,756,o),
(1048,815,o),
(1048,1019,cs),
(1048,1214,o),
(885,1244,o),
(647,1244,cs),
(535,1244,o),
(406,1239,o),
(364,1234,c),
(364,749,l)
);
}
);
width = 1366;
}
);
unicode = 66;
},
{
glyphname = C;
layers = (
{
layerId = "C6F19E25-0F49-451F-AEE1-A003FA0ED529";
shapes = (
{
closed = 1;
nodes = (
(1434,88,l),
(1221,-25,o),
(1041,-28,o),
(994,-28,cs),
(460,-28,o),
(151,181,o),
(151,681,cs),
(151,1083,o),
(448,1383,o),
(956,1383,cs),
(1073,1383,o),
(1210,1378,o),
(1419,1289,c),
(1333,987,l),
(1169,1068,o),
(1056,1078,o),
(965,1078,cs),
(646,1078,o),
(521,902,o),
(521,681,cs),
(521,379,o),
(685,278,o),
(1005,278,cs),
(1132,278,o),
(1237,328,o),
(1347,378,c)
);
}
);
width = 1554;
},
{
layerId = "EDE6E634-030B-4ED7-B889-69990611018D";
shapes = (
{
closed = 1;
nodes = (
(1387,103,l),
(1224,10,o),
(1036,-27,o),
(909,-27,cs),
(446,-27,o),
(140,186,o),
(140,680,cs),
(140,1124,o),
(459,1382,o),
(887,1382,cs),
(1056,1382,o),
(1211,1348,o),
(1367,1272,c),
(1284,1028,l),
(1157,1096,o),
(1031,1131,o),
(898,1131,cs),
(614,1131,o),
(444,969,o),
(444,680,cs),
(444,358,o),
(630,225,o),
(932,225,cs),
(1059,225,o),
(1199,273,o),
(1306,337,c)
);
}
);
width = 1479;
},
{
layerId = "EE85CFF4-71C8-4DB0-B443-69364CCEBDFC";
shapes = (
{
closed = 1;
nodes = (
(1316,126,l),
(1229,62,o),
(1029,-26,o),
(781,-26,cs),
(425,-26,o),
(124,194,o),
(124,678,cs),
(124,1185,o),
(475,1381,o),
(783,1381,cs),
(1030,1381,o),
(1212,1303,o),
(1289,1247,c),
(1211,1090,l),
(1139,1138,o),
(993,1210,o),
(798,1210,cs),
(566,1210,o),
(329,1070,o),
(329,678,cs),
(329,327,o),
(548,146,o),
(823,146,cs),
(950,146,o),
(1142,190,o),
(1245,275,c)
);
}
);
width = 1366;
},
{
layerId = "52A4F8C9-22CB-40B3-89C9-4EF9D272773E";
shapes = (
{
closed = 1;
nodes = (
(1280,138,l),
(1232,88,o),
(1025,-25,o),
(717,-25,cs),
(414,-25,o),
(116,198,o),
(116,677,cs),
(116,1216,o),
(483,1380,o),
(731,1380,cs),
(1017,1380,o),
(1213,1280,o),
(1250,1234,c),
(1174,1121,l),
(1130,1159,o),
(974,1250,o),
(748,1250,cs),
(542,1250,o),
(271,1121,o),
(271,677,cs),
(271,311,o),
(507,106,o),
(768,106,cs),
(895,106,o),
(1113,148,o),
(1214,244,c)
);
}
);
width = 1309;
}
);
unicode = 67;
},
{
glyphname = D;
layers = (
{
layerId = "C6F19E25-0F49-451F-AEE1-A003FA0ED529";
shapes = (
{
closed = 1;
nodes = (
(193,1356,l),
(308,1372,o),
(565,1376,o),
(644,1376,cs),
(1173,1376,o),
(1374,1090,o),
(1374,690,cs),
(1374,329,o),
(1179,-24,o),
(599,-24,cs),
(567,-24,o),
(272,-10,o),
(193,-2,c)
);
},
{
closed = 1;
nodes = (
(646,1070,o),
(577,1070,o),
(540,1068,c),
(540,291,l),
(562,285,o),
(693,284,o),
(643,284,c),
(935,284,o),
(1005,481,o),
(1005,685,cs),
(1005,905,o),
(898,1070,o),
(676,1070,cs)
);
}
);
width = 1479;
},
{
layerId = "EDE6E634-030B-4ED7-B889-69990611018D";
shapes = (
{
closed = 1;
nodes = (
(200,1356,l),
(311,1372,o),
(527,1375,o),
(645,1375,cs),
(1162,1375,o),
(1373,1088,o),
(1373,689,cs),
(1373,328,o),
(1174,-22,o),
(620,-22,cs),
(530,-22,o),
(270,-10,o),
(200,-2,c)
);
},
{
closed = 1;
nodes = (
(605,1123,o),
(522,1121,o),
(486,1118,c),
(486,238,l),
(510,233,o),
(624,231,o),
(649,231,cs),
(980,231,o),
(1069,455,o),
(1069,686,cs),
(1069,942,o),
(938,1123,o),
(666,1123,cs)
);
}
);
width = 1479;
},
{
layerId = "EE85CFF4-71C8-4DB0-B443-69364CCEBDFC";
shapes = (
{
closed = 1;
nodes = (
(211,1356,l),
(315,1372,o),
(470,1373,o),
(646,1373,cs),
(1146,1373,o),
(1371,1085,o),
(1371,687,cs),
(1371,327,o),
(1167,-19,o),
(651,-19,cs),
(474,-19,o),
(267,-10,o),
(211,-2,c)
);
},
{
closed = 1;
nodes = (
(544,1203,o),
(440,1198,o),
(405,1193,c),
(405,159,l),
(432,155,o),
(521,151,o),
(658,151,cs),
(1047,151,o),
(1165,416,o),
(1165,687,cs),
(1165,998,o),
(998,1203,o),
(651,1203,cs)
);
}
);
width = 1479;
},
{
layerId = "52A4F8C9-22CB-40B3-89C9-4EF9D272773E";
shapes = (
{
closed = 1;
nodes = (
(217,1356,l),
(317,1372,o),
(441,1372,o),
(647,1372,cs),
(1138,1372,o),
(1370,1083,o),
(1370,686,cs),
(1370,326,o),
(1163,-17,o),
(667,-17,cs),
(446,-17,o),
(265,-10,o),
(217,-2,c)
);
},
{
closed = 1;
nodes = (
(513,1243,o),
(399,1237,o),
(364,1231,c),
(364,119,l),
(393,116,o),
(469,111,o),
(663,111,cs),
(1081,111,o),
(1213,396,o),
(1213,688,cs),
(1213,1026,o),
(1028,1243,o),
(643,1243,cs)
);
}
);
width = 1479;
}
);
unicode = 68;
},
{
glyphname = E;
layers = (
{
layerId = "C6F19E25-0F49-451F-AEE1-A003FA0ED529";
shapes = (
{
closed = 1;
nodes = (
(215,1356,l),
(1287,1356,l),
(1287,1047,l),
(564,1047,l),
(564,831,l),
(1232,831,l),
(1232,523,l),
(564,523,l),
(564,309,l),
(1296,309,l),
(1296,0,l),
(215,0,l)
);
}
);
width = 1443;
},
{
layerId = "EDE6E634-030B-4ED7-B889-69990611018D";
shapes = (
{
closed = 1;
nodes = (
(210,1356,l),
(1203,1356,l),
(1203,1104,l),
(497,1104,l),
(497,809,l),
(1148,809,l),
(1148,558,l),
(497,558,l),
(497,252,l),
(1212,252,l),
(1212,0,l),
(210,0,l)
);
}
);
width = 1366;
},
{
layerId = "EE85CFF4-71C8-4DB0-B443-69364CCEBDFC";
shapes = (
{
closed = 1;
nodes = (
(202,1356,l),
(1077,1356,l),
(1077,1189,l),
(396,1189,l),
(396,776,l),
(1022,776,l),
(1022,610,l),
(396,610,l),
(396,166,l),
(1086,166,l),
(1086,0,l),
(202,0,l)
);
}
);
width = 1251;
},
{
layerId = "52A4F8C9-22CB-40B3-89C9-4EF9D272773E";
shapes = (
{
closed = 1;
nodes = (
(198,1356,l),
(1014,1356,l),
(1014,1232,l),
(345,1232,l),
(345,759,l),
(959,759,l),
(959,636,l),
(345,636,l),
(345,123,l),
(1023,123,l),
(1023,0,l),
(198,0,l)
);
}
);
width = 1193;
}
);
unicode = 69;
},
{
glyphname = F;
layers = (
{
layerId = "C6F19E25-0F49-451F-AEE1-A003FA0ED529";
shapes = (
{
closed = 1;
nodes = (
(215,1356,l),
(1263,1356,l),
(1263,1047,l),
(565,1047,l),
(565,810,l),
(1183,810,l),
(1183,499,l),
(565,499,l),
(565,0,l),
(215,0,l)
);
}
);
width = 1326;
},
{
layerId = "EDE6E634-030B-4ED7-B889-69990611018D";
shapes = (
{
closed = 1;
nodes = (
(210,1356,l),
(1171,1356,l),
(1171,1104,l),
(497,1104,l),
(497,789,l),
(1105,789,l),
(1105,536,l),
(497,536,l),
(497,0,l),
(210,0,l)
);
}
);
width = 1251;
},
{
layerId = "EE85CFF4-71C8-4DB0-B443-69364CCEBDFC";
shapes = (
{
closed = 1;
nodes = (
(202,1356,l),
(1033,1356,l),
(1033,1189,l),
(395,1189,l),
(395,757,l),
(988,757,l),
(988,591,l),
(395,591,l),
(395,0,l),
(202,0,l)
);
}
);
width = 1139;
},
{
layerId = "52A4F8C9-22CB-40B3-89C9-4EF9D272773E";
shapes = (
{
closed = 1;
nodes = (
(198,1356,l),
(964,1356,l),
(964,1232,l),
(344,1232,l),
(344,741,l),
(929,741,l),
(929,619,l),
(344,619,l),
(344,0,l),
(198,0,l)
);
}
);
width = 1083;
}
);
unicode = 70;
},
{
glyphname = G;
layers = (
{
layerId = "C6F19E25-0F49-451F-AEE1-A003FA0ED529";
shapes = (
{
closed = 1;
nodes = (
(920,732,l),
(1489,732,l),
(1489,105,l),
(1242,-32,o),
(1050,-28,o),
(944,-28,cs),
(463,-28,o),
(147,216,o),
(147,683,cs),
(147,1160,o),
(509,1383,o),
(955,1383,cs),
(1088,1383,o),
(1266,1369,o),
(1444,1293,c),
(1346,989,l),
(1217,1052,o),
(1089,1078,o),
(994,1078,cs),
(646,1078,o),
(517,933,o),
(517,671,cs),
(517,392,o),
(703,278,o),
(982,278,cs),
(1017,278,o),
(1125,270,o),
(1208,317,c),
(1208,489,l),
(920,489,l)
);
}
);
width = 1669;
},
{
layerId = "EDE6E634-030B-4ED7-B889-69990611018D";
shapes = (
{
closed = 1;
nodes = (
(884,713,l),
(1428,713,l),
(1428,105,l),
(1243,-5,o),
(1043,-27,o),
(904,-27,cs),
(451,-27,o),
(140,209,o),
(140,681,cs),
(140,1126,o),
(474,1382,o),
(901,1382,cs),
(1070,1382,o),
(1247,1353,o),
(1396,1285,c),
(1313,1038,l),
(1200,1091,o),
(1063,1131,o),
(931,1131,cs),
(629,1131,o),
(444,990,o),
(444,674,cs),
(444,358,o),
(644,225,o),
(933,225,cs),
(1003,225,o),
(1122,235,o),
(1195,276,c),
(1195,508,l),
(884,508,l)
);
}
);
width = 1593;
},
{
layerId = "EE85CFF4-71C8-4DB0-B443-69364CCEBDFC";
shapes = (
{
closed = 1;
nodes = (
(830,684,l),
(1337,684,l),
(1337,105,l),
(1245,35,o),
(1032,-26,o),
(844,-26,cs),
(433,-26,o),
(129,198,o),
(129,678,cs),
(129,1075,o),
(422,1381,o),
(820,1381,cs),
(1043,1381,o),
(1218,1329,o),
(1324,1273,c),
(1263,1112,l),
(1175,1149,o),
(1024,1210,o),
(836,1210,cs),
(604,1210,o),
(334,1076,o),
(334,678,cs),
(334,307,o),
(556,146,o),
(860,146,cs),
(982,146,o),
(1117,182,o),
(1176,214,c),
(1176,536,l),
(830,536,l)
);
}
);
width = 1479;
},
{
layerId = "52A4F8C9-22CB-40B3-89C9-4EF9D272773E";
shapes = (
{
closed = 1;
nodes = (
(803,669,l),
(1291,669,l),
(1291,105,l),
(1246,55,o),
(1026,-25,o),
(814,-25,cs),
(424,-25,o),
(123,192,o),
(123,676,cs),
(123,1049,o),
(396,1380,o),
(779,1380,cs),
(1029,1380,o),
(1203,1317,o),
(1288,1267,c),
(1238,1149,l),
(1162,1178,o),
(1004,1250,o),
(788,1250,cs),
(591,1250,o),
(279,1119,o),
(279,680,cs),
(279,281,o),
(512,106,o),
(823,106,cs),
(971,106,o),
(1114,155,o),
(1166,183,c),
(1166,550,l),
(803,550,l)
);
}
);
width = 1422;
}
);
unicode = 71;
},
{
glyphname = H;
layers = (
{
layerId = "C6F19E25-0F49-451F-AEE1-A003FA0ED529";
shapes = (
{
closed = 1;
nodes = (
(1105,529,l),
(563,529,l),
(563,0,l),
(215,0,l),
(215,1356,l),
(563,1356,l),
(563,834,l),
(1105,834,l),
(1105,1356,l),
(1454,1356,l),
(1454,0,l),
(1105,0,l)
);
}
);
width = 1669;
},
{
layerId = "EDE6E634-030B-4ED7-B889-69990611018D";
shapes = (
{
closed = 1;
nodes = (
(1096,560,l),
(496,560,l),
(496,0,l),
(210,0,l),
(210,1356,l),
(496,1356,l),
(496,811,l),
(1096,811,l),
(1096,1356,l),
(1383,1356,l),
(1383,0,l),
(1096,0,l)
);
}
);
width = 1593;
},
{
layerId = "EE85CFF4-71C8-4DB0-B443-69364CCEBDFC";
shapes = (
{
closed = 1;
nodes = (
(1083,606,l),
(396,606,l),
(396,0,l),
(202,0,l),
(202,1356,l),
(396,1356,l),
(396,776,l),
(1083,776,l),
(1083,1356,l),
(1277,1356,l),
(1277,0,l),
(1083,0,l)
);
}
);
width = 1479;
},
{
layerId = "52A4F8C9-22CB-40B3-89C9-4EF9D272773E";
shapes = (
{
closed = 1;
nodes = (
(1076,629,l),
(346,629,l),
(346,0,l),
(198,0,l),
(198,1356,l),
(346,1356,l),
(346,758,l),
(1076,758,l),
(1076,1356,l),
(1224,1356,l),
(1224,0,l),
(1076,0,l)
);
}
);
width = 1422;
}
);
unicode = 72;
},
{
glyphname = I;
layers = (
{
layerId = "C6F19E25-0F49-451F-AEE1-A003FA0ED529";
shapes = (
{
closed = 1;
nodes = (
(264,1356,l),
(611,1356,l),
(611,0,l),
(264,0,l)
);
}
);
width = 874;
},
{
layerId = "EDE6E634-030B-4ED7-B889-69990611018D";
shapes = (
{
closed = 1;
nodes = (
(256,1356,l),
(542,1356,l),
(542,0,l),
(256,0,l)
);
}
);
width = 797;
},
{
layerId = "EE85CFF4-71C8-4DB0-B443-69364CCEBDFC";
shapes = (
{
closed = 1;
nodes = (
(244,1356,l),
(438,1356,l),
(438,0,l),
(244,0,l)
);
}
);
width = 682;
},
{
layerId = "52A4F8C9-22CB-40B3-89C9-4EF9D272773E";
shapes = (
{
closed = 1;
nodes = (
(238,1356,l),
(386,1356,l),
(386,0,l),
(238,0,l)
);
}
);
width = 624;
}
);
unicode = 73;
},
{
glyphname = J;
layers = (
{
layerId = "C6F19E25-0F49-451F-AEE1-A003FA0ED529";
shapes = (
{
closed = 1;
nodes = (
(607,1356,l),
(957,1356,l),
(957,440,ls),
(957,108,o),
(728,-31,o),
(443,-31,cs),
(361,-31,o),
(216,-38,o),
(67,60,c),
(161,355,l),
(312,246,o),
(380,278,o),
(400,278,cs),
(529,278,o),
(607,366,o),
(607,479,cs)
);
}
);
width = 1175;
},
{
layerId = "EDE6E634-030B-4ED7-B889-69990611018D";
shapes = (
{
closed = 1;
nodes = (
(537,1356,l),
(824,1356,l),
(824,388,ls),
(824,109,o),
(643,-26,o),
(379,-26,cs),
(279,-26,o),
(155,-10,o),
(44,72,c),
(138,304,l),
(240,229,o),
(303,227,o),
(349,227,cs),
(478,227,o),
(537,311,o),
(537,432,cs)
);
}
);
width = 1024;
},
{
layerId = "EE85CFF4-71C8-4DB0-B443-69364CCEBDFC";
shapes = (
{
closed = 1;
nodes = (
(432,1356,l),
(625,1356,l),
(625,310,ls),
(625,110,o),
(516,-19,o),
(283,-19,cs),
(156,-19,o),
(63,32,o),
(10,90,c),
(103,228,l),
(132,204,o),
(188,151,o),
(273,151,cs),
(402,151,o),
(432,228,o),
(432,362,cs)
);
}
);
width = 797;
},
{
layerId = "52A4F8C9-22CB-40B3-89C9-4EF9D272773E";
shapes = (
{
closed = 1;
nodes = (
(379,1356,l),
(525,1356,l),
(525,271,ls),
(525,111,o),
(452,-15,o),
(235,-15,cs),
(94,-15,o),
(17,53,o),
(-7,99,c),
(85,190,l),
(78,191,o),
(130,113,o),
(235,113,cs),
(364,113,o),
(379,186,o),
(379,327,cs)
);
}
);
width = 683;
}
);
unicode = 74;
},
{
glyphname = K;
layers = (
{
layerId = "C6F19E25-0F49-451F-AEE1-A003FA0ED529";
shapes = (
{
closed = 1;
nodes = (
(720,544,l),
(565,544,l),
(565,0,l),
(218,0,l),
(218,1356,l),
(565,1356,l),
(565,777,l),
(699,809,l),
(1209,1356,l),
(1640,1356,l),
(1072,792,l),
(991,712,l),
(1077,634,l),
(1698,0,l),
(1231,0,l)
);
}
);
width = 1669;
},
{
layerId = "EDE6E634-030B-4ED7-B889-69990611018D";
shapes = (
{
closed = 1;
nodes = (
(637,573,l),
(506,573,l),
(506,0,l),
(220,0,l),
(220,1356,l),
(506,1356,l),
(506,759,l),
(622,789,l),
(1163,1356,l),
(1522,1356,l),
(946,785,l),
(866,711,l),
(951,633,l),
(1579,0,l),
(1193,0,l)
);
}
);
width = 1593;
},
{
layerId = "EE85CFF4-71C8-4DB0-B443-69364CCEBDFC";
shapes = (
{
closed = 1;
nodes = (
(512,616,l),
(417,616,l),
(417,0,l),
(223,0,l),
(223,1356,l),
(417,1356,l),
(417,732,l),
(506,759,l),
(1094,1356,l),
(1345,1356,l),
(757,774,l),
(679,709,l),
(762,632,l),
(1400,0,l),
(1136,0,l)
);
}
);
width = 1479;
},
{
layerId = "52A4F8C9-22CB-40B3-89C9-4EF9D272773E";
shapes = (
{
closed = 1;
nodes = (
(449,638,l),
(372,638,l),
(372,0,l),
(225,0,l),
(225,1356,l),
(372,1356,l),
(372,718,l),
(448,744,l),
(1059,1356,l),
(1256,1356,l),
(662,768,l),
(585,708,l),
(667,631,l),
(1310,0,l),
(1107,0,l)
);
}
);
width = 1422;
}
);
unicode = 75;
},
{
glyphname = L;
layers = (
{
layerId = "C6F19E25-0F49-451F-AEE1-A003FA0ED529";
shapes = (
{
closed = 1;
nodes = (
(1365,0,l),
(229,0,l),
(229,1356,l),
(577,1356,l),
(577,307,l),
(1365,307,l)
);
}
);
width = 1443;
},
{
layerId = "EDE6E634-030B-4ED7-B889-69990611018D";
shapes = (
{
closed = 1;
nodes = (
(1292,0,l),
(220,0,l),
(220,1356,l),
(506,1356,l),
(506,252,l),
(1292,252,l)
);
}
);
width = 1366;
},
{
layerId = "EE85CFF4-71C8-4DB0-B443-69364CCEBDFC";
shapes = (
{
closed = 1;
nodes = (
(1183,0,l),
(206,0,l),
(206,1356,l),
(399,1356,l),
(399,170,l),
(1183,170,l)
);
}
);
width = 1251;
},
{
layerId = "52A4F8C9-22CB-40B3-89C9-4EF9D272773E";
shapes = (
{
closed = 1;
nodes = (
(1128,0,l),
(199,0,l),
(199,1356,l),
(345,1356,l),
(345,129,l),
(1128,129,l)
);
}
);
width = 1193;
}
);
unicode = 76;
},
{
glyphname = M;
layers = (
{
layerId = "C6F19E25-0F49-451F-AEE1-A003FA0ED529";
shapes = (
{
closed = 1;
nodes = (
(1450,567,l),
(1468,855,l),
(1462,855,l),
(1360,679,l),
(1053,202,l),
(944,202,l),
(617,681,l),
(521,853,l),
(518,853,l),
(539,569,l),
(539,0,l),
(209,0,l),
(209,1356,l),
(545,1356,l),
(939,774,l),
(1015,647,l),
(1027,647,l),
(1090,777,l),
(1471,1356,l),
(1800,1356,l),
(1800,0,l),
(1450,0,l)
);
}
);
width = 2008;
},
{
layerId = "EDE6E634-030B-4ED7-B889-69990611018D";
shapes = (
{
closed = 1;
nodes = (
(1436,690,l),
(1449,921,l),
(1442,921,l),
(1354,768,l),
(1007,242,l),
(918,242,l),
(551,770,l),
(468,919,l),
(462,919,l),
(481,692,l),
(481,0,l),
(210,0,l),
(210,1356,l),
(470,1356,l),
(902,730,l),
(976,611,l),
(985,611,l),
(1050,734,l),
(1465,1356,l),
(1723,1356,l),
(1723,0,l),
(1436,0,l)
);
}
);
width = 1933;
},
{
layerId = "EE85CFF4-71C8-4DB0-B443-69364CCEBDFC";
shapes = (
{
closed = 1;
nodes = (
(1415,874,l),
(1420,1020,l),
(1412,1020,l),
(1345,902,l),
(938,302,l),
(879,302,l),
(452,904,l),
(388,1018,l),
(378,1018,l),
(394,876,l),
(394,0,l),
(212,0,l),
(212,1356,l),
(358,1356,l),
(846,664,l),
(918,557,l),
(922,557,l),
(990,669,l),
(1456,1356,l),
(1608,1356,l),
(1608,0,l),
(1415,0,l)
);
}
);
width = 1821;
},
{
layerId = "52A4F8C9-22CB-40B3-89C9-4EF9D272773E";
shapes = (
{
closed = 1;
nodes = (
(1404,967,l),
(1405,1070,l),
(1397,1070,l),
(1340,969,l),
(903,332,l),
(859,332,l),
(402,971,l),
(348,1068,l),
(336,1068,l),
(350,969,l),
(350,0,l),
(213,0,l),
(213,1356,l),
(302,1356,l),
(818,631,l),
(889,530,l),
(890,530,l),
(960,636,l),
(1451,1356,l),
(1550,1356,l),
(1550,0,l),
(1404,0,l)
);
}
);
width = 1765;
}
);
unicode = 77;
},
{
glyphname = N;
layers = (
{
layerId = "C6F19E25-0F49-451F-AEE1-A003FA0ED529";
shapes = (
{
closed = 1;
nodes = (
(601,624,l),
(489,810,l),
(481,810,l),
(499,606,l),
(499,0,l),
(167,0,l),
(167,1358,l),
(439,1358,l),
(883,724,l),
(997,506,l),
(1005,506,l),
(983,740,l),
(983,1356,l),
(1312,1356,l),
(1312,0,l),
(1040,0,l)
);
}
);
width = 1479;
},
{
layerId = "EDE6E634-030B-4ED7-B889-69990611018D";
shapes = (
{
closed = 1;
nodes = (
(554,710,l),
(444,886,l),
(436,886,l),
(452,699,l),
(452,0,l),
(180,0,l),
(180,1356,l),
(387,1356,l),
(930,640,l),
(1038,450,l),
(1047,450,l),
(1028,650,l),
(1028,1356,l),
(1299,1356,l),
(1299,0,l),
(1092,0,l)
);
}
);
width = 1479;
},
{
layerId = "EE85CFF4-71C8-4DB0-B443-69364CCEBDFC";
shapes = (
{
closed = 1;
nodes = (
(483,842,l),
(376,1003,l),
(369,1003,l),
(382,842,l),
(382,0,l),
(200,0,l),
(200,1356,l),
(309,1356,l),
(1000,514,l),
(1100,365,l),
(1110,365,l),
(1096,514,l),
(1096,1356,l),
(1279,1356,l),
(1279,0,l),
(1170,0,l)
);
}
);
width = 1479;
},
{
layerId = "52A4F8C9-22CB-40B3-89C9-4EF9D272773E";
shapes = (
{
closed = 1;
nodes = (
(447,908,l),
(342,1062,l),
(335,1062,l),
(347,914,l),
(347,0,l),
(210,0,l),
(210,1356,l),
(270,1356,l),
(1035,451,l),
(1131,322,l),
(1142,322,l),
(1130,446,l),
(1130,1356,l),
(1269,1356,l),
(1269,0,l),
(1209,0,l)
);
}
);
width = 1479;
}
);
unicode = 78;
},
{
glyphname = O;
layers = (
{
layerId = "C6F19E25-0F49-451F-AEE1-A003FA0ED529";
shapes = (
{
closed = 1;
nodes = (
(120,901,o),
(194,1078,o),
(322,1198,cs),
(449,1318,o),
(626,1383,o),
(833,1383,cs),
(1048,1383,o),
(1226,1312,o),
(1352,1187,cs),
(1478,1063,o),
(1550,887,o),
(1550,678,cs),
(1550,474,o),
(1484,298,o),
(1361,172,cs),
(1238,46,o),
(1060,-29,o),
(833,-29,c),
(636,-30,o),
(459,31,o),
(330,148,cs),
(199,266,o),
(119,444,o),
(120,675,c)
);
},
{
closed = 1;
nodes = (
(488,527,o),
(527,426,o),
(589,363,cs),
(652,300,o),
(738,277,o),
(833,277,cs),
(941,277,o),
(1031,322,o),
(1089,393,cs),
(1148,464,o),
(1179,567,o),
(1179,678,cs),
(1179,779,o),
(1155,879,o),
(1099,953,cs),
(1043,1025,o),
(954,1076,o),
(833,1076,cs),
(751,1076,o),
(664,1058,o),
(599,998,cs),
(533,937,o),
(488,838,o),
(488,678,cs)
);
}
);
width = 1669;
},
{
layerId = "EDE6E634-030B-4ED7-B889-69990611018D";
shapes = (
{
closed = 1;
nodes = (
(115,900,o),
(183,1077,o),
(303,1197,cs),
(422,1317,o),
(591,1382,o),
(795,1382,cs),
(1011,1382,o),
(1181,1311,o),
(1298,1187,cs),
(1415,1063,o),
(1478,887,o),
(1478,678,cs),
(1478,467,o),
(1415,291,o),
(1298,167,cs),
(1181,43,o),
(1011,-28,o),
(795,-28,cs),
(591,-28,o),
(422,37,o),
(303,157,cs),
(183,277,o),
(115,453,o),
(115,676,cs)
);
},
{
closed = 1;
nodes = (
(418,522,o),
(456,408,o),
(522,333,cs),
(588,258,o),
(682,223,o),
(795,223,cs),
(924,223,o),
(1020,273,o),
(1082,354,cs),
(1144,435,o),
(1173,550,o),
(1173,678,cs),
(1173,806,o),
(1144,920,o),
(1082,1001,cs),
(1020,1081,o),
(924,1131,o),
(795,1131,cs),
(682,1131,o),
(588,1096,o),
(522,1021,cs),
(456,946,o),
(418,833,o),
(418,678,cs)
);
}
);
width = 1593;
},
{
layerId = "EE85CFF4-71C8-4DB0-B443-69364CCEBDFC";
shapes = (
{
closed = 1;
nodes = (
(108,899,o),
(166,1075,o),
(274,1196,cs),
(381,1316,o),
(538,1381,o),
(738,1381,cs),
(955,1381,o),
(1113,1310,o),
(1217,1187,cs),
(1321,1063,o),
(1370,887,o),
(1370,678,cs),
(1370,457,o),
(1312,280,o),
(1204,160,cs),
(1096,39,o),
(938,-26,o),
(738,-26,c),
(523,-25,o),
(367,46,o),
(263,170,cs),
(159,293,o),
(109,467,o),
(108,678,c)
);
},
{
closed = 1;
nodes = (
(313,515,o),
(349,381,o),
(421,288,cs),
(492,195,o),
(598,142,o),
(738,142,cs),
(898,142,o),
(1004,199,o),
(1071,295,cs),
(1138,391,o),
(1164,525,o),
(1164,678,cs),
(1164,847,o),
(1128,981,o),
(1057,1073,cs),
(985,1165,o),
(879,1214,o),
(738,1214,cs),
(579,1214,o),
(474,1153,o),
(407,1056,cs),
(340,959,o),
(313,825,o),
(313,678,cs)
);
}
);
width = 1479;
},
{
layerId = "52A4F8C9-22CB-40B3-89C9-4EF9D272773E";
shapes = (
{
closed = 1;
nodes = (
(104,898,o),
(157,1074,o),
(259,1195,cs),
(360,1315,o),
(511,1380,o),
(709,1380,cs),
(927,1380,o),
(1079,1309,o),
(1176,1187,cs),
(1274,1063,o),
(1316,887,o),
(1316,678,cs),
(1316,452,o),
(1260,274,o),
(1157,156,cs),
(1053,37,o),
(901,-25,o),
(709,-25,c),
(489,-23,o),
(339,51,o),
(243,177,cs),
(147,301,o),
(106,474,o),
(104,679,c)
);
},
{
closed = 1;
nodes = (
(260,511,o),
(295,367,o),
(370,265,cs),
(444,163,o),
(556,101,o),
(709,101,cs),
(885,101,o),
(996,162,o),
(1065,265,cs),
(1135,369,o),
(1159,512,o),
(1159,678,cs),
(1159,868,o),
(1120,1012,o),
(1044,1109,cs),
(967,1207,o),
(856,1256,o),
(709,1256,cs),
(527,1256,o),
(417,1182,o),
(349,1074,cs),
(282,966,o),
(260,821,o),
(260,678,cs)
);
}
);
width = 1422;
}
);
unicode = 79;
},
{
glyphname = P;
layers = (
{
layerId = "C6F19E25-0F49-451F-AEE1-A003FA0ED529";
shapes = (
{
closed = 1;
nodes = (
(175,1342,l),
(298,1361,o),
(457,1376,o),
(610,1376,cs),
(916,1376,o),
(1242,1309,o),
(1242,903,cs),
(1242,542,o),
(960,417,o),
(650,417,cs),
(625,417,o),
(552,418,o),
(524,423,c),
(524,0,l),
(175,0,l)
);
},
{
closed = 1;
nodes = (
(588,1067,o),
(551,1061,o),
(524,1060,c),
(524,736,l),
(543,729,o),
(599,726,o),
(622,726,cs),
(742,726,o),
(871,721,o),
(871,894,cs),
(871,1060,o),
(751,1067,o),
(636,1067,cs)
);
}
);
width = 1326;
},
{
layerId = "EDE6E634-030B-4ED7-B889-69990611018D";
shapes = (
{
closed = 1;
nodes = (
(184,1342,l),
(301,1363,o),
(442,1375,o),
(583,1375,cs),
(888,1375,o),
(1169,1275,o),
(1169,922,cs),
(1169,585,o),
(896,449,o),
(607,449,cs),
(580,449,o),
(501,452,o),
(471,457,c),
(471,0,l),
(184,0,l)
);
},
{
closed = 1;
nodes = (
(545,1123,o),
(502,1119,o),
(471,1114,c),
(471,711,l),
(493,705,o),
(560,701,o),
(585,701,cs),
(736,701,o),
(864,745,o),
(864,916,cs),
(864,1074,o),
(748,1123,o),
(601,1123,cs)
);
}
);
width = 1251;
},
{
layerId = "EE85CFF4-71C8-4DB0-B443-69364CCEBDFC";
shapes = (
{
closed = 1;
nodes = (
(197,1342,l),
(306,1366,o),
(419,1373,o),
(543,1373,cs),
(846,1373,o),
(1059,1224,o),
(1059,951,cs),
(1059,650,o),
(800,497,o),
(543,497,cs),
(512,497,o),
(424,503,o),
(391,508,c),
(391,0,l),
(197,0,l)
);
},
{
closed = 1;
nodes = (
(480,1207,o),
(428,1206,o),
(391,1195,c),
(391,674,l),
(418,669,o),
(501,664,o),
(530,664,cs),
(727,664,o),
(854,781,o),
(854,949,cs),
(854,1095,o),
(743,1207,o),
(549,1207,cs)
);
}
);
width = 1139;
},
{
layerId = "52A4F8C9-22CB-40B3-89C9-4EF9D272773E";
shapes = (
{
closed = 1;
nodes = (
(204,1342,l),
(309,1368,o),
(407,1372,o),
(523,1372,cs),
(825,1372,o),
(1004,1198,o),
(1004,966,cs),
(1004,683,o),
(752,521,o),
(511,521,cs),
(478,521,o),
(385,529,o),
(351,534,c),
(351,0,l),
(204,0,l)
);
},
{
closed = 1;
nodes = (
(447,1249,o),
(391,1250,o),
(351,1236,c),
(351,655,l),
(380,651,o),
(471,645,o),
(502,645,cs),
(722,645,o),
(849,799,o),
(849,966,cs),
(849,1106,o),
(740,1249,o),
(523,1249,cs)
);
}
);
width = 1083;
}
);
unicode = 80;
},
{
glyphname = Q;
layers = (
{
layerId = "C6F19E25-0F49-451F-AEE1-A003FA0ED529";
shapes = (
{
closed = 1;
nodes = (
(120,1126,o),
(421,1383,o),
(833,1383,cs),
(1261,1383,o),
(1550,1097,o),
(1550,678,cs),
(1550,321,o),
(1344,47,o),
(991,-17,c),
(1006,-132,o),
(1081,-140,o),
(1154,-140,cs),
(1190,-140,o),
(1294,-120,o),
(1334,-85,c),
(1399,-366,l),
(1325,-429,o),
(1145,-454,o),
(1119,-454,cs),
(794,-454,o),
(663,-306,o),
(645,-11,c),
(351,55,o),
(118,283,o),
(120,675,c)
);
},
{
closed = 1;
nodes = (
(488,373,o),
(641,277,o),
(833,277,cs),
(1053,277,o),
(1179,454,o),
(1179,678,cs),
(1179,879,o),
(1078,1076,o),
(833,1076,cs),
(665,1076,o),
(488,999,o),
(488,678,cs)
);
}
);
width = 1669;
},
{
layerId = "EDE6E634-030B-4ED7-B889-69990611018D";
shapes = (
{
closed = 1;
nodes = (
(115,1124,o),
(388,1382,o),
(795,1382,cs),
(1226,1382,o),
(1478,1097,o),
(1478,678,cs),
(1478,299,o),
(1275,32,o),
(922,-19,c),
(933,-126,o),
(986,-178,o),
(1103,-178,cs),
(1167,-178,o),
(1245,-158,o),
(1295,-126,c),
(1345,-356,l),
(1273,-410,o),
(1138,-434,o),
(1072,-434,cs),
(789,-434,o),
(652,-303,o),
(639,-14,c),
(320,44,o),
(115,288,o),
(115,676,cs)
);
},
{
closed = 1;
nodes = (
(418,365,o),
(568,223,o),
(795,223,cs),
(1055,223,o),
(1173,421,o),
(1173,678,cs),
(1173,934,o),
(1055,1131,o),
(795,1131,cs),
(568,1131,o),
(418,988,o),
(418,678,cs)
);
}
);
width = 1593;
},
{
layerId = "EE85CFF4-71C8-4DB0-B443-69364CCEBDFC";
shapes = (
{
closed = 1;
nodes = (
(108,1121,o),
(339,1381,o),
(738,1381,cs),
(1173,1381,o),
(1370,1097,o),
(1370,678,cs),
(1370,266,o),
(1171,10,o),
(819,-22,c),
(824,-117,o),
(844,-235,o),
(1027,-235,cs),
(1133,-235,o),
(1171,-215,o),
(1236,-188,c),
(1264,-341,l),
(1195,-381,o),
(1128,-404,o),
(1001,-404,cs),
(782,-404,o),
(635,-298,o),
(630,-18,c),
(274,27,o),
(111,295,o),
(108,678,c)
);
},
{
closed = 1;
nodes = (
(313,353,o),
(458,142,o),
(738,142,cs),
(1058,142,o),
(1164,371,o),
(1164,678,cs),
(1164,1017,o),
(1020,1214,o),
(738,1214,cs),
(422,1214,o),
(313,971,o),
(313,678,cs)
);
}
);
width = 1479;
},
{
layerId = "52A4F8C9-22CB-40B3-89C9-4EF9D272773E";
shapes = (
{
closed = 1;
nodes = (
(104,1119,o),
(314,1380,o),
(709,1380,cs),
(1146,1380,o),
(1316,1097,o),
(1316,678,cs),
(1316,249,o),
(1119,-1,o),
(767,-24,c),
(769,-112,o),
(773,-264,o),
(989,-264,cs),
(1116,-264,o),
(1134,-244,o),
(1206,-219,c),
(1223,-333,l),
(1156,-366,o),
(1123,-389,o),
(965,-389,cs),
(778,-389,o),
(626,-295,o),
(625,-20,c),
(251,18,o),
(109,299,o),
(104,679,c)
);
},
{
closed = 1;
nodes = (
(260,347,o),
(403,101,o),
(709,101,cs),
(1060,101,o),
(1159,346,o),
(1159,678,cs),
(1159,1059,o),
(1002,1256,o),
(709,1256,cs),
(349,1256,o),
(260,962,o),
(260,678,cs)
);
}
);
width = 1422;
}
);
unicode = 81;
},
{
glyphname = R;
layers = (
{
layerId = "C6F19E25-0F49-451F-AEE1-A003FA0ED529";
shapes = (
{
closed = 1;
nodes = (
(213,1342,l),
(349,1364,o),
(601,1376,o),
(723,1376,cs),
(995,1376,o),
(1347,1310,o),
(1347,953,cs),
(1347,726,o),
(1214,603,o),
(1064,569,c),
(1131,502,l),
(1522,0,l),
(1082,0,l),
(742,494,l),
(561,514,l),
(561,0,l),
(213,0,l)
);
},
{
closed = 1;
nodes = (
(670,1067,o),
(594,1064,o),
(561,1063,c),
(561,751,l),
(715,751,ls),
(834,751,o),
(978,753,o),
(978,922,cs),
(978,1075,o),
(796,1067,o),
(725,1067,cs)
);
}
);
width = 1554;
},
{
layerId = "EDE6E634-030B-4ED7-B889-69990611018D";
shapes = (
{
closed = 1;
nodes = (
(210,1342,l),
(336,1363,o),
(550,1375,o),
(670,1375,cs),
(937,1375,o),
(1244,1296,o),
(1244,971,cs),
(1244,747,o),
(1114,620,o),
(951,583,c),
(1021,513,l),
(1433,0,l),
(1079,0,l),
(682,525,l),
(496,548,l),
(496,0,l),
(210,0,l)
);
},
{
closed = 1;
nodes = (
(613,1123,o),
(531,1121,o),
(496,1116,c),
(496,741,l),
(652,741,ls),
(797,741,o),
(940,771,o),
(940,946,cs),
(940,1094,o),
(791,1123,o),
(674,1123,cs)
);
}
);
width = 1479;
},
{
layerId = "EE85CFF4-71C8-4DB0-B443-69364CCEBDFC";
shapes = (
{
closed = 1;
nodes = (
(205,1342,l),
(317,1361,o),
(474,1373,o),
(591,1373,cs),
(850,1373,o),
(1089,1275,o),
(1089,998,cs),
(1089,779,o),
(964,646,o),
(781,604,c),
(856,530,l),
(1300,0,l),
(1075,0,l),
(592,571,l),
(399,599,l),
(399,0,l),
(205,0,l)
);
},
{
closed = 1;
nodes = (
(527,1207,o),
(437,1206,o),
(399,1195,c),
(399,726,l),
(558,726,ls),
(742,726,o),
(883,798,o),
(883,982,cs),
(883,1122,o),
(784,1207,o),
(597,1207,cs)
);
}
);
width = 1366;
},
{
layerId = "52A4F8C9-22CB-40B3-89C9-4EF9D272773E";
shapes = (
{
closed = 1;
nodes = (
(202,1342,l),
(307,1360,o),
(436,1372,o),
(551,1372,cs),
(806,1372,o),
(1011,1264,o),
(1011,1012,cs),
(1011,795,o),
(889,659,o),
(695,615,c),
(773,539,l),
(1233,0,l),
(1073,0,l),
(547,594,l),
(350,625,l),
(350,0,l),
(202,0,l)
);
},
{
closed = 1;
nodes = (
(484,1249,o),
(390,1249,o),
(350,1235,c),
(350,718,l),
(511,718,ls),
(714,718,o),
(854,812,o),
(854,1000,cs),
(854,1136,o),
(780,1249,o),
(558,1249,cs)
);
}
);
width = 1309;
}
);
unicode = 82;
},
{
glyphname = S;
layers = (
{
layerId = "C6F19E25-0F49-451F-AEE1-A003FA0ED529";
shapes = (
{
closed = 1;
nodes = (
(739,445,o),
(673,480,o),
(501,536,cs),
(324,594,o),
(88,703,o),
(88,957,cs),
(88,1231,o),
(265,1383,o),
(604,1383,cs),
(711,1383,o),
(910,1371,o),
(1051,1288,c),
(940,996,l),
(893,1026,o),
(780,1082,o),
(600,1082,cs),
(461,1082,o),
(437,1033,o),
(437,993,cs),
(437,883,o),
(609,875,o),
(761,805,c),
(921,727,o),
(1088,626,o),
(1088,426,cs),
(1088,89,o),
(853,-28,o),
(535,-28,cs),
(327,-28,o),
(122,32,o),
(58,70,c),
(174,375,l),
(194,357,o),
(358,272,o),
(515,272,cs),
(683,272,o),
(739,311,o),
(739,383,cs)
);
}
);
width = 1139;
},
{
layerId = "EDE6E634-030B-4ED7-B889-69990611018D";
shapes = (
{
closed = 1;
nodes = (
(777,476,o),
(646,522,o),
(492,572,cs),
(308,633,o),
(103,739,o),
(103,980,cs),
(103,1252,o),
(302,1382,o),
(599,1382,cs),
(733,1382,o),
(912,1363,o),
(1031,1297,c),
(940,1057,l),
(876,1094,o),
(741,1135,o),
(593,1135,cs),
(464,1135,o),
(390,1087,o),
(390,1007,cs),
(390,877,o),
(586,845,o),
(726,785,cs),
(894,713,o),
(1064,609,o),
(1064,405,cs),
(1064,106,o),
(846,-27,o),
(530,-27,cs),
(320,-27,o),
(139,25,o),
(70,62,c),
(165,312,l),
(221,280,o),
(373,220,o),
(515,220,cs),
(688,220,o),
(777,268,o),
(777,372,cs)
);
}
);
width = 1139;
},
{
layerId = "EE85CFF4-71C8-4DB0-B443-69364CCEBDFC";
shapes = (
{
closed = 1;
nodes = (
(834,523,o),
(606,585,o),
(479,626,cs),
(284,692,o),
(125,793,o),
(125,1015,cs),
(125,1283,o),
(358,1381,o),
(592,1381,cs),
(766,1381,o),
(915,1351,o),
(1001,1311,c),
(940,1148,l),
(850,1196,o),
(683,1214,o),
(583,1214,cs),
(468,1214,o),
(319,1168,o),
(319,1028,cs),
(319,868,o),
(552,800,o),
(673,755,cs),
(853,692,o),
(1028,584,o),
(1028,374,cs),
(1028,131,o),
(836,-26,o),
(522,-26,cs),
(310,-26,o),
(164,15,o),
(88,50,c),
(152,218,l),
(261,165,o),
(395,142,o),
(515,142,cs),
(695,142,o),
(834,204,o),
(834,356,cs)
);
}
);
width = 1139;
},
{
layerId = "52A4F8C9-22CB-40B3-89C9-4EF9D272773E";
shapes = (
{
closed = 1;
nodes = (
(863,547,o),
(586,617,o),
(472,653,c),
(272,722,o),
(136,820,o),
(136,1033,cs),
(136,1299,o),
(386,1380,o),
(588,1380,cs),
(783,1380,o),
(917,1345,o),
(986,1318,c),
(940,1194,l),
(837,1247,o),
(654,1254,o),
(578,1254,cs),
(470,1254,o),
(283,1209,o),
(283,1039,cs),
(283,863,o),
(535,777,o),
(646,740,c),
(832,681,o),
(1010,571,o),
(1010,358,cs),
(1010,144,o),
(831,-25,o),
(518,-25,cs),
(305,-25,o),
(177,10,o),
(97,44,c),
(145,171,l),
(281,107,o),
(406,103,o),
(515,103,cs),
(699,103,o),
(863,172,o),
(863,348,cs)
);
}
);
width = 1139;
}
);
unicode = 83;
},
{
glyphname = T;
layers = (
{
layerId = "C6F19E25-0F49-451F-AEE1-A003FA0ED529";
shapes = (
{
closed = 1;
nodes = (
(1361,1050,l),
(895,1050,l),
(895,0,l),
(546,0,l),
(546,1050,l),
(82,1050,l),
(82,1356,l),
(1361,1356,l)
);
}
);
width = 1443;
},
{
layerId = "EDE6E634-030B-4ED7-B889-69990611018D";
shapes = (
{
closed = 1;
nodes = (
(1296,1104,l),
(826,1104,l),
(826,0,l),
(539,0,l),
(539,1104,l),
(70,1104,l),
(70,1356,l),
(1296,1356,l)
);
}
);
width = 1366;
},
{
layerId = "EE85CFF4-71C8-4DB0-B443-69364CCEBDFC";
shapes = (
{
closed = 1;
nodes = (
(1199,1185,l),
(722,1185,l),
(722,0,l),
(529,0,l),
(529,1185,l),
(52,1185,l),
(52,1356,l),
(1199,1356,l)
);
}
);
width = 1251;
},
{
layerId = "52A4F8C9-22CB-40B3-89C9-4EF9D272773E";
shapes = (
{
closed = 1;
nodes = (
(1150,1226,l),
(670,1226,l),
(670,0,l),
(524,0,l),
(524,1226,l),
(43,1226,l),
(43,1356,l),
(1150,1356,l)
);
}
);
width = 1193;
}
);
unicode = 84;
},
{
glyphname = U;
layers = (
{
layerId = "C6F19E25-0F49-451F-AEE1-A003FA0ED529";
shapes = (
{
closed = 1;
nodes = (
(976,1356,l),
(1308,1356,l),
(1308,496,ls),
(1308,131,o),
(1072,-29,o),
(759,-29,cs),
(383,-29,o),
(171,137,o),
(171,467,cs),
(171,1356,l),
(518,1356,l),
(518,506,ls),
(518,362,o),
(582,280,o),
(753,280,cs),
(891,280,o),
(976,342,o),
(976,502,cs)
);
}
);
width = 1479;
},
{
layerId = "EDE6E634-030B-4ED7-B889-69990611018D";
shapes = (
{
closed = 1;
nodes = (
(1023,1356,l),
(1295,1356,l),
(1295,486,ls),
(1295,134,o),
(1065,-24,o),
(760,-24,cs),
(395,-24,o),
(184,136,o),
(184,453,cs),
(184,1356,l),
(470,1356,l),
(470,506,ls),
(470,319,o),
(556,229,o),
(756,229,cs),
(925,229,o),
(1023,309,o),
(1023,506,cs)
);
}
);
width = 1479;
},
{
layerId = "EE85CFF4-71C8-4DB0-B443-69364CCEBDFC";
shapes = (
{
closed = 1;
nodes = (
(1093,1356,l),
(1275,1356,l),
(1275,471,ls),
(1275,138,o),
(1054,-17,o),
(762,-17,cs),
(413,-17,o),
(204,135,o),
(204,432,cs),
(204,1356,l),
(398,1356,l),
(398,506,ls),
(398,255,o),
(517,153,o),
(760,153,cs),
(976,153,o),
(1093,260,o),
(1093,512,cs)
);
}
);
width = 1479;
},
{
layerId = "52A4F8C9-22CB-40B3-89C9-4EF9D272773E";
shapes = (
{
closed = 1;
nodes = (
(1128,1356,l),
(1265,1356,l),
(1265,463,ls),
(1265,140,o),
(1048,-13,o),
(763,-13,cs),
(422,-13,o),
(214,134,o),
(214,421,cs),
(214,1356,l),
(362,1356,l),
(362,506,ls),
(362,223,o),
(497,115,o),
(762,115,cs),
(1002,115,o),
(1128,235,o),
(1128,515,cs)
);
}
);
width = 1479;
}
);
unicode = 85;
},
{
glyphname = V;
layers = (
{
layerId = "C6F19E25-0F49-451F-AEE1-A003FA0ED529";
shapes = (
{
closed = 1;
nodes = (
(687,666,l),
(755,465,l),
(767,465,l),
(837,667,l),
(1085,1356,l),
(1460,1356,l),
(879,-2,l),
(602,-2,l),
(19,1356,l),
(432,1356,l)
);
}
);
width = 1479;
},
{
layerId = "EDE6E634-030B-4ED7-B889-69990611018D";
shapes = (
{
closed = 1;
nodes = (
(694,573,l),
(755,392,l),
(764,392,l),
(827,575,l),
(1135,1356,l),
(1437,1356,l),
(844,-9,l),
(639,-9,l),
(42,1356,l),
(375,1356,l)
);
}
);
width = 1479;
},
{
layerId = "EE85CFF4-71C8-4DB0-B443-69364CCEBDFC";
shapes = (
{
closed = 1;
nodes = (
(705,433,l),
(755,282,l),
(760,282,l),
(812,437,l),
(1210,1356,l),
(1403,1356,l),
(792,-19,l),
(695,-19,l),
(76,1356,l),
(289,1356,l)
);
}
);
width = 1479;
},
{
layerId = "52A4F8C9-22CB-40B3-89C9-4EF9D272773E";
shapes = (
{
closed = 1;
nodes = (
(711,363,l),
(755,227,l),
(758,227,l),
(804,368,l),
(1248,1356,l),
(1386,1356,l),
(766,-24,l),
(723,-24,l),
(93,1356,l),
(246,1356,l)
);
}
);
width = 1479;
}
);
unicode = 86;
},
{
glyphname = W;
layers = (
{
layerId = "C6F19E25-0F49-451F-AEE1-A003FA0ED529";
shapes = (
{
closed = 1;
nodes = (
(637,712,l),
(688,517,l),
(697,517,l),
(747,717,l),
(960,1356,l),
(1205,1356,l),
(1408,712,l),
(1459,517,l),
(1472,517,l),
(1521,717,l),
(1683,1356,l),
(2046,1356,l),
(1596,-2,l),
(1348,-2,l),
(1120,639,l),
(1071,817,l),
(1057,817,l),
(1008,637,l),
(782,-2,l),
(517,-2,l),
(78,1356,l),
(465,1356,l)
);
}
);
width = 2125;
},
{
layerId = "EDE6E634-030B-4ED7-B889-69990611018D";
shapes = (
{
closed = 1;
nodes = (
(599,610,l),
(642,430,l),
(649,430,l),
(693,614,l),
(949,1356,l),
(1134,1356,l),
(1385,610,l),
(1430,430,l),
(1439,430,l),
(1483,614,l),
(1684,1356,l),
(1978,1356,l),
(1535,-9,l),
(1342,-9,l),
(1079,728,l),
(1033,897,l),
(1021,897,l),
(976,726,l),
(714,-9,l),
(510,-9,l),
(70,1356,l),
(384,1356,l)
);
}
);
width = 2048;
},
{
layerId = "EE85CFF4-71C8-4DB0-B443-69364CCEBDFC";
shapes = (
{
closed = 1;
nodes = (
(542,457,l),
(573,300,l),
(577,300,l),
(612,460,l),
(932,1356,l),
(1028,1356,l),
(1351,457,l),
(1386,300,l),
(1389,300,l),
(1426,460,l),
(1686,1356,l),
(1876,1356,l),
(1443,-19,l),
(1333,-19,l),
(1017,861,l),
(976,1017,l),
(967,1017,l),
(928,860,l),
(612,-19,l),
(499,-19,l),
(58,1356,l),
(262,1356,l)
);
}
);
width = 1933;
},
{
layerId = "52A4F8C9-22CB-40B3-89C9-4EF9D272773E";
shapes = (
{
closed = 1;
nodes = (
(513,380,l),
(538,235,l),
(541,235,l),
(571,382,l),
(923,1356,l),
(975,1356,l),
(1334,380,l),
(1364,235,l),
(1364,235,l),
(1397,382,l),
(1687,1356,l),
(1825,1356,l),
(1397,-24,l),
(1328,-24,l),
(986,928,l),
(947,1077,l),
(940,1077,l),
(904,927,l),
(561,-24,l),
(493,-24,l),
(52,1356,l),
(201,1356,l)
);
}
);
width = 1875;
}
);
unicode = 87;
},
{
glyphname = X;
layers = (
{
layerId = "C6F19E25-0F49-451F-AEE1-A003FA0ED529";
shapes = (
{
closed = 1;
nodes = (
(499,689,l),
(72,1356,l),
(495,1356,l),
(685,1028,l),
(755,911,l),
(828,1028,l),
(1044,1356,l),
(1429,1356,l),
(969,708,l),
(1451,0,l),
(1030,0,l),
(791,358,l),
(715,465,l),
(639,358,l),
(413,0,l),
(28,0,l)
);
}
);
width = 1479;
},
{
layerId = "EDE6E634-030B-4ED7-B889-69990611018D";
shapes = (
{
closed = 1;
nodes = (
(549,689,l),
(98,1356,l),
(444,1356,l),
(691,973,l),
(754,870,l),
(818,973,l),
(1086,1356,l),
(1402,1356,l),
(926,706,l),
(1424,0,l),
(1081,0,l),
(792,412,l),
(723,512,l),
(655,412,l),
(371,0,l),
(55,0,l)
);
}
);
width = 1479;
},
{
layerId = "EE85CFF4-71C8-4DB0-B443-69364CCEBDFC";
shapes = (
{
closed = 1;
nodes = (
(624,689,l),
(137,1356,l),
(368,1356,l),
(700,891,l),
(753,808,l),
(803,891,l),
(1149,1356,l),
(1362,1356,l),
(861,703,l),
(1383,0,l),
(1157,0,l),
(794,493,l),
(735,583,l),
(679,493,l),
(308,0,l),
(95,0,l)
);
}
);
width = 1479;
},
{
layerId = "52A4F8C9-22CB-40B3-89C9-4EF9D272773E";
shapes = (
{
closed = 1;
nodes = (
(662,689,l),
(157,1356,l),
(330,1356,l),
(705,850,l),
(752,777,l),
(795,850,l),
(1181,1356,l),
(1342,1356,l),
(828,701,l),
(1362,0,l),
(1195,0,l),
(795,534,l),
(741,619,l),
(691,534,l),
(276,0,l),
(115,0,l)
);
}
);
width = 1479;
}
);
unicode = 88;
},
{
glyphname = Y;
layers = (
{
layerId = "C6F19E25-0F49-451F-AEE1-A003FA0ED529";
shapes = (
{
closed = 1;
nodes = (
(561,478,l),
(-17,1356,l),
(422,1356,l),
(669,943,l),
(751,801,l),
(760,801,l),
(838,946,l),
(1095,1356,l),
(1496,1356,l),
(911,480,l),
(911,0,l),
(561,0,l)
);
}
);
width = 1479;
},
{
layerId = "EDE6E634-030B-4ED7-B889-69990611018D";
shapes = (
{
closed = 1;
nodes = (
(596,499,l),
(32,1356,l),
(386,1356,l),
(690,866,l),
(752,751,l),
(759,751,l),
(821,869,l),
(1124,1356,l),
(1447,1356,l),
(883,501,l),
(883,0,l),
(596,0,l)
);
}
);
width = 1479;
},
{
layerId = "EE85CFF4-71C8-4DB0-B443-69364CCEBDFC";
shapes = (
{
closed = 1;
nodes = (
(648,530,l),
(105,1356,l),
(332,1356,l),
(721,750,l),
(754,676,l),
(758,676,l),
(795,754,l),
(1168,1356,l),
(1373,1356,l),
(841,532,l),
(841,0,l),
(648,0,l)
);
}
);
width = 1479;
},
{
layerId = "52A4F8C9-22CB-40B3-89C9-4EF9D272773E";
shapes = (
{
closed = 1;
nodes = (
(674,546,l),
(142,1356,l),
(305,1356,l),
(737,692,l),
(755,638,l),
(757,638,l),
(782,696,l),
(1190,1356,l),
(1336,1356,l),
(820,548,l),
(820,0,l),
(674,0,l)
);
}
);
width = 1479;
}
);
unicode = 89;
},
{
glyphname = Z;
layers = (
{
layerId = "C6F19E25-0F49-451F-AEE1-A003FA0ED529";
shapes = (
{
closed = 1;
nodes = (
(111,307,l),
(837,969,l),
(951,1050,l),
(144,1050,l),
(144,1356,l),
(1330,1356,l),
(1330,1050,l),
(602,380,l),
(493,307,l),
(1359,307,l),
(1359,0,l),
(111,0,l)
);
}
);
width = 1443;
},
{
layerId = "EDE6E634-030B-4ED7-B889-69990611018D";
shapes = (
{
closed = 1;
nodes = (
(116,252,l),
(844,1024,l),
(942,1104,l),
(136,1104,l),
(136,1356,l),
(1249,1356,l),
(1249,1104,l),
(517,325,l),
(424,252,l),
(1266,252,l),
(1266,0,l),
(116,0,l)
);
}
);
width = 1366;
},
{
layerId = "EE85CFF4-71C8-4DB0-B443-69364CCEBDFC";
shapes = (
{
closed = 1;
nodes = (
(124,170,l),
(854,1107,l),
(928,1185,l),
(124,1185,l),
(124,1356,l),
(1127,1356,l),
(1127,1185,l),
(390,242,l),
(320,170,l),
(1127,170,l),
(1127,0,l),
(124,0,l)
);
}
);
width = 1251;
},
{
layerId = "52A4F8C9-22CB-40B3-89C9-4EF9D272773E";
shapes = (
{
closed = 1;
nodes = (
(128,129,l),
(859,1149,l),
(921,1226,l),
(118,1226,l),
(118,1356,l),
(1066,1356,l),
(1066,1226,l),
(326,200,l),
(268,129,l),
(1057,129,l),
(1057,0,l),
(128,0,l)
);
}
);
width = 1193;
}
);
unicode = 90;
},
{
glyphname = bracketleft;
layers = (
{
layerId = "C6F19E25-0F49-451F-AEE1-A003FA0ED529";
shapes = (
{
closed = 1;
nodes = (
(83,1356,l),
(636,1356,l),
(636,1081,l),
(397,1081,l),
(397,-170,l),
(636,-170,l),
(636,-445,l),
(83,-445,l)
);
}
);
width = 682;
},
{
layerId = "EDE6E634-030B-4ED7-B889-69990611018D";
shapes = (
{
closed = 1;
nodes = (
(130,1356,l),
(621,1356,l),
(621,1129,l),
(390,1129,l),
(390,-218,l),
(621,-218,l),
(621,-445,l),
(130,-445,l)
);
}
);
width = 682;
},
{
layerId = "EE85CFF4-71C8-4DB0-B443-69364CCEBDFC";
shapes = (
{
closed = 1;
nodes = (
(200,1356,l),
(599,1356,l),
(599,1201,l),
(379,1201,l),
(379,-290,l),
(599,-290,l),
(599,-445,l),
(200,-445,l)
);
}
);
width = 682;
},
{
layerId = "52A4F8C9-22CB-40B3-89C9-4EF9D272773E";
shapes = (
{
closed = 1;
nodes = (
(235,1356,l),
(588,1356,l),
(588,1237,l),
(373,1237,l),
(373,-326,l),
(588,-326,l),
(588,-445,l),
(235,-445,l)
);
}
);
width = 682;
}
);
unicode = 91;
},
{
glyphname = backslash;
layers = (
{
layerId = "C6F19E25-0F49-451F-AEE1-A003FA0ED529";
shapes = (
{
closed = 1;
nodes = (
(652,-320,l),
(372,-383,l),
(-82,1314,l),
(189,1376,l)
);
}
);
width = 569;
},
{
layerId = "EDE6E634-030B-4ED7-B889-69990611018D";
shapes = (
{
closed = 1;
nodes = (
(650,-272,l),
(423,-338,l),
(-81,1312,l),
(141,1377,l)
);
}
);
width = 569;
},
{
layerId = "EE85CFF4-71C8-4DB0-B443-69364CCEBDFC";
shapes = (
{
closed = 1;
nodes = (
(647,-200,l),
(500,-271,l),
(-79,1309,l),
(69,1379,l)
);
}
);
width = 569;
},
{
layerId = "52A4F8C9-22CB-40B3-89C9-4EF9D272773E";
shapes = (
{
closed = 1;
nodes = (
(696,-164,l),
(589,-237,l),
(-128,1307,l),
(-18,1380,l)
);
}
);
width = 569;
}
);
unicode = 92;
},
{
glyphname = bracketright;
layers = (
{
layerId = "C6F19E25-0F49-451F-AEE1-A003FA0ED529";
shapes = (
{
closed = 1;
nodes = (
(599,-445,l),
(45,-445,l),
(45,-170,l),
(285,-170,l),
(285,1081,l),
(45,1081,l),
(45,1356,l),
(599,1356,l)
);
}
);
width = 682;
},
{
layerId = "EDE6E634-030B-4ED7-B889-69990611018D";
shapes = (
{
closed = 1;
nodes = (
(552,-445,l),
(60,-445,l),
(60,-218,l),
(292,-218,l),
(292,1129,l),
(60,1129,l),
(60,1356,l),
(552,1356,l)
);
}
);
width = 682;
},
{
layerId = "EE85CFF4-71C8-4DB0-B443-69364CCEBDFC";
shapes = (
{
closed = 1;
nodes = (
(482,-445,l),
(83,-445,l),
(83,-290,l),
(303,-290,l),
(303,1201,l),
(83,1201,l),
(83,1356,l),
(482,1356,l)
);
}
);
width = 682;
},
{
layerId = "52A4F8C9-22CB-40B3-89C9-4EF9D272773E";
shapes = (
{
closed = 1;
nodes = (
(447,-445,l),
(95,-445,l),
(95,-326,l),
(309,-326,l),
(309,1237,l),
(95,1237,l),
(95,1356,l),
(447,1356,l)
);
}
);
width = 682;
}
);
unicode = 93;
},
{
glyphname = asciicircum;
layers = (
{
layerId = "C6F19E25-0F49-451F-AEE1-A003FA0ED529";
shapes = (
{
closed = 1;
nodes = (
(582,1358,l),
(776,1358,l),
(1181,771,l),
(850,771,l),
(728,968,l),
(666,1089,l),
(601,966,l),
(480,771,l),
(160,771,l)
);
}
);
width = 1343;
},
{
layerId = "EDE6E634-030B-4ED7-B889-69990611018D";
shapes = (
{
closed = 1;
nodes = (
(533,1365,l),
(679,1365,l),
(1068,796,l),
(793,796,l),
(654,1016,l),
(597,1142,l),
(533,1014,l),
(383,796,l),
(121,796,l)
);
}
);
width = 1190;
},
{
layerId = "EE85CFF4-71C8-4DB0-B443-69364CCEBDFC";
shapes = (
{
closed = 1;
nodes = (
(460,1375,l),
(534,1375,l),
(898,833,l),
(708,833,l),
(543,1088,l),
(493,1222,l),
(431,1086,l),
(237,833,l),
(63,833,l)
);
}
);
width = 961;
},
{
layerId = "52A4F8C9-22CB-40B3-89C9-4EF9D272773E";
shapes = (
{
closed = 1;
nodes = (
(423,1380,l),
(461,1380,l),
(812,852,l),
(665,852,l),
(487,1124,l),
(441,1262,l),
(380,1122,l),
(164,852,l),
(34,852,l)
);
}
);
width = 846;
}
);
unicode = 94;
},
{
glyphname = underscore;
layers = (
{
layerId = "C6F19E25-0F49-451F-AEE1-A003FA0ED529";
shapes = (
{
closed = 1;
nodes = (
(-24,-195,l),
(1050,-195,l),
(1050,-460,l),
(-24,-460,l)
);
}
);
width = 1024;
},
{
layerId = "EDE6E634-030B-4ED7-B889-69990611018D";
shapes = (
{
closed = 1;
nodes = (
(15,-218,l),
(1010,-218,l),
(1010,-438,l),
(15,-438,l)
);
}
);
width = 1024;
},
{
layerId = "EE85CFF4-71C8-4DB0-B443-69364CCEBDFC";
shapes = (
{
closed = 1;
nodes = (
(74,-253,l),
(950,-253,l),
(950,-405,l),
(74,-405,l)
);
}
);
width = 1024;
},
{
layerId = "52A4F8C9-22CB-40B3-89C9-4EF9D272773E";
shapes = (
{
closed = 1;
nodes = (
(104,-271,l),
(920,-271,l),
(920,-388,l),
(104,-388,l)
);
}
);
width = 1024;
}
);
unicode = 95;
},
{
glyphname = grave;
layers = (
{
layerId = "C6F19E25-0F49-451F-AEE1-A003FA0ED529";
shapes = (
{
closed = 1;
nodes = (
(545,1128,l),
(375,1128,l),
(85,1383,l),
(85,1449,l),
(418,1449,l)
);
}
);
width = 682;
},
{
layerId = "EDE6E634-030B-4ED7-B889-69990611018D";
shapes = (
{
closed = 1;
nodes = (
(530,1105,l),
(386,1105,l),
(114,1354,l),
(114,1412,l),
(399,1412,l)
);
}
);
width = 682;
},
{
layerId = "EE85CFF4-71C8-4DB0-B443-69364CCEBDFC";
shapes = (
{
closed = 1;
nodes = (
(508,1070,l),
(403,1070,l),
(158,1310,l),
(158,1356,l),
(370,1356,l)
);
}
);
width = 682;
},
{
layerId = "52A4F8C9-22CB-40B3-89C9-4EF9D272773E";
shapes = (
{
closed = 1;
nodes = (
(497,1052,l),
(412,1052,l),
(180,1288,l),
(180,1328,l),
(355,1328,l)
);
}
);
width = 682;
}
);
unicode = 96;
},
{
glyphname = a;
layers = (
{
layerId = "C6F19E25-0F49-451F-AEE1-A003FA0ED529";
shapes = (
{
closed = 1;
nodes = (
(156,888,l),
(340,968,o),
(474,967,o),
(612,967,cs),
(866,967,o),
(991,853,o),
(991,609,cs),
(991,493,o),
(977,383,o),
(977,262,cs),
(977,168,o),
(991,85,o),
(1023,-1,c),
(760,-1,l),
(723,138,l),
(694,138,l),
(606,-2,o),
(482,-14,o),
(400,-14,cs),
(214,-14,o),
(89,87,o),
(89,281,cs),
(89,539,o),
(306,603,o),
(518,603,c),
(479,603,o),
(595,600,o),
(686,577,c),
(688,596,o),
(690,616,o),
(690,621,cs),
(690,710,o),
(588,724,o),
(536,724,c),
(404,722,o),
(320,690,o),
(236,658,c)
);
},
{
closed = 1;
nodes = (
(689,408,l),
(651,420,o),
(560,435,o),
(565,435,c),
(419,435,o),
(402,335,o),
(402,311,cs),
(402,246,o),
(430,228,o),
(520,228,cs),
(591,228,o),
(659,268,o),
(689,327,c)
);
}
);
width = 1101;
},
{
layerId = "EDE6E634-030B-4ED7-B889-69990611018D";
shapes = (
{
closed = 1;
nodes = (
(147,876,l),
(299,943,o),
(407,953,o),
(552,953,cs),
(816,953,o),
(905,822,o),
(905,622,cs),
(905,501,o),
(891,386,o),
(891,253,cs),
(891,161,o),
(902,78,o),
(929,-2,c),
(725,-2,l),
(685,137,l),
(663,137,l),
(590,19,o),
(479,-14,o),
(370,-14,cs),
(199,-14,o),
(85,90,o),
(85,270,cs),
(85,509,o),
(269,580,o),
(475,580,cs),
(509,580,o),
(586,574,o),
(655,558,c),
(658,583,o),
(660,603,o),
(660,622,cs),
(660,728,o),
(583,753,o),
(489,753,cs),
(376,753,o),
(295,722,o),
(213,687,c)
);
},
{
closed = 1;
nodes = (
(657,411,l),
(620,421,o),
(559,433,o),
(513,433,cs),
(385,433,o),
(341,359,o),
(341,295,cs),
(341,219,o),
(382,185,o),
(463,185,cs),
(555,185,o),
(627,244,o),
(657,306,c)
);
}
);
width = 1024;
},
{
layerId = "EE85CFF4-71C8-4DB0-B443-69364CCEBDFC";
shapes = (
{
closed = 1;
nodes = (
(133,858,l),
(238,906,o),
(307,932,o),
(462,932,cs),
(741,932,o),
(776,775,o),
(776,642,cs),
(776,513,o),
(762,390,o),
(762,239,cs),
(762,151,o),
(769,68,o),
(788,-4,c),
(672,-4,l),
(628,136,l),
(617,136,l),
(566,51,o),
(474,-14,o),
(325,-14,cs),
(177,-14,o),
(79,95,o),
(79,254,cs),
(79,464,o),
(214,545,o),
(410,545,cs),
(554,545,o),
(572,535,o),
(609,530,c),
(613,563,o),
(615,584,o),
(615,624,cs),
(615,755,o),
(576,796,o),
(419,796,c),
(334,799,o),
(258,770,o),
(178,731,c)
);
},
{
closed = 1;
nodes = (
(609,415,l),
(574,423,o),
(558,430,o),
(435,430,cs),
(334,430,o),
(250,395,o),
(250,271,cs),
(250,179,o),
(310,121,o),
(377,121,cs),
(501,121,o),
(579,208,o),
(609,275,c)
);
}
);
width = 909;
},
{
layerId = "52A4F8C9-22CB-40B3-89C9-4EF9D272773E";
shapes = (
{
closed = 1;
nodes = (
(126,849,l),
(207,887,o),
(257,921,o),
(417,921,cs),
(703,921,o),
(711,751,o),
(711,652,cs),
(711,519,o),
(697,392,o),
(697,232,cs),
(697,146,o),
(702,63,o),
(717,-5,c),
(645,-5,l),
(599,135,l),
(594,135,l),
(554,67,o),
(471,-14,o),
(302,-14,cs),
(166,-14,o),
(76,98,o),
(76,246,cs),
(76,441,o),
(186,527,o),
(377,527,cs),
(577,527,o),
(565,515,o),
(586,516,c),
(590,553,o),
(592,574,o),
(592,625,cs),
(592,769,o),
(572,818,o),
(384,818,c),
(313,822,o),
(239,794,o),
(160,753,c)
);
},
{
closed = 1;
nodes = (
(585,417,l),
(551,424,o),
(557,428,o),
(396,428,cs),
(308,428,o),
(204,413,o),
(204,259,cs),
(204,159,o),
(274,89,o),
(334,89,cs),
(474,89,o),
(555,190,o),
(585,259,c)
);
}
);
width = 851;
}
);
unicode = 97;
},
{
glyphname = b;
layers = (
{
layerId = "C6F19E25-0F49-451F-AEE1-A003FA0ED529";
shapes = (
{
closed = 1;
nodes = (
(157,1377,l),
(464,1377,l),
(464,892,l),
(489,892,l),
(540,934,o),
(646,972,o),
(755,972,cs),
(978,972,o),
(1116,807,o),
(1116,506,cs),
(1116,177,o),
(941,-30,o),
(626,-30,cs),
(415,-30,o),
(217,13,o),
(157,31,c)
);
},
{
closed = 1;
nodes = (
(577,714,o),
(495,698,o),
(464,612,c),
(464,253,l),
(506,226,o),
(571,228,o),
(624,228,cs),
(742,228,o),
(801,300,o),
(801,496,cs),
(801,660,o),
(744,714,o),
(645,714,cs)
);
}
);
width = 1216;
},
{
layerId = "EDE6E634-030B-4ED7-B889-69990611018D";
shapes = (
{
closed = 1;
nodes = (
(150,1377,l),
(399,1377,l),
(399,856,l),
(421,856,l),
(477,920,o),
(579,959,o),
(686,959,cs),
(921,959,o),
(1049,798,o),
(1049,493,cs),
(1049,168,o),
(868,-24,o),
(559,-24,cs),
(384,-24,o),
(225,6,o),
(150,38,c)
);
},
{
closed = 1;
nodes = (
(512,750,o),
(432,699,o),
(399,602,c),
(399,213,l),
(447,188,o),
(502,185,o),
(566,185,cs),
(719,185,o),
(792,285,o),
(792,488,cs),
(792,660,o),
(736,750,o),
(611,750,cs)
);
}
);
width = 1139;
},
{
layerId = "EE85CFF4-71C8-4DB0-B443-69364CCEBDFC";
shapes = (
{
closed = 1;
nodes = (
(140,1377,l),
(302,1377,l),
(302,802,l),
(319,802,l),
(382,899,o),
(479,940,o),
(583,940,cs),
(835,940,o),
(949,785,o),
(949,474,cs),
(949,155,o),
(759,-15,o),
(458,-15,cs),
(337,-15,o),
(237,-4,o),
(140,49,c)
);
},
{
closed = 1;
nodes = (
(414,804,o),
(337,700,o),
(302,587,c),
(302,153,l),
(359,131,o),
(399,120,o),
(479,120,cs),
(684,120,o),
(779,262,o),
(779,476,cs),
(779,660,o),
(724,804,o),
(560,804,cs)
);
}
);
width = 1024;
},
{
layerId = "52A4F8C9-22CB-40B3-89C9-4EF9D272773E";
shapes = (
{
closed = 1;
nodes = (
(135,1377,l),
(253,1377,l),
(253,775,l),
(268,775,l),
(334,888,o),
(429,930,o),
(531,930,cs),
(792,930,o),
(899,778,o),
(899,464,cs),
(899,148,o),
(704,-10,o),
(407,-10,cs),
(313,-10,o),
(243,-9,o),
(135,55,c)
);
},
{
closed = 1;
nodes = (
(365,831,o),
(289,701,o),
(253,579,c),
(253,123,l),
(315,102,o),
(347,87,o),
(435,87,cs),
(666,87,o),
(772,250,o),
(772,470,cs),
(772,660,o),
(718,831,o),
(534,831,cs)
);
}
);
width = 966;
}
);
unicode = 98;
},
{
glyphname = c;
layers = (
{
layerId = "C6F19E25-0F49-451F-AEE1-A003FA0ED529";
shapes = (
{
closed = 1;
nodes = (
(859,52,l),
(781,-2,o),
(664,-29,o),
(561,-29,cs),
(233,-29,o),
(96,180,o),
(96,474,cs),
(96,762,o),
(276,976,o),
(593,976,cs),
(733,976,o),
(798,940,o),
(870,920,c),
(811,667,l),
(747,680,o),
(705,700,o),
(628,700,cs),
(464,700,o),
(409,594,o),
(409,474,cs),
(409,333,o),
(470,249,o),
(603,249,cs),
(693,249,o),
(756,278,o),
(800,288,c)
);
}
);
width = 909;
},
{
layerId = "EDE6E634-030B-4ED7-B889-69990611018D";
shapes = (
{
closed = 1;
nodes = (
(859,63,l),
(780,8,o),
(659,-27,o),
(538,-27,cs),
(218,-27,o),
(90,175,o),
(90,467,cs),
(90,763,o),
(260,962,o),
(562,962,cs),
(695,962,o),
(788,929,o),
(859,894,c),
(799,694,l),
(735,719,o),
(672,742,o),
(591,742,cs),
(417,742,o),
(346,632,o),
(346,467,cs),
(346,312,o),
(413,194,o),
(581,194,cs),
(674,194,o),
(751,224,o),
(803,251,c)
);
}
);
width = 909;
},
{
layerId = "EE85CFF4-71C8-4DB0-B443-69364CCEBDFC";
shapes = (
{
closed = 1;
nodes = (
(859,79,l),
(778,23,o),
(651,-24,o),
(504,-24,cs),
(195,-24,o),
(81,168,o),
(81,457,cs),
(81,765,o),
(236,941,o),
(516,941,cs),
(638,941,o),
(773,913,o),
(842,855,c),
(781,734,l),
(717,777,o),
(623,805,o),
(535,805,cs),
(346,805,o),
(252,689,o),
(252,457,cs),
(252,281,o),
(327,112,o),
(548,112,cs),
(645,112,o),
(743,143,o),
(807,196,c)
);
}
);
width = 909;
},
{
layerId = "52A4F8C9-22CB-40B3-89C9-4EF9D272773E";
shapes = (
{
closed = 1;
nodes = (
(859,87,l),
(777,31,o),
(647,-22,o),
(487,-22,cs),
(183,-22,o),
(76,164,o),
(76,452,cs),
(76,766,o),
(224,930,o),
(493,930,cs),
(609,930,o),
(765,905,o),
(833,835,c),
(772,754,l),
(708,806,o),
(598,837,o),
(507,837,cs),
(310,837,o),
(205,718,o),
(205,452,cs),
(205,265,o),
(284,71,o),
(531,71,cs),
(630,71,o),
(739,102,o),
(809,168,c)
);
}
);
width = 909;
}
);
unicode = 99;
},
{
glyphname = d;
layers = (
{
layerId = "C6F19E25-0F49-451F-AEE1-A003FA0ED529";
shapes = (
{
closed = 1;
nodes = (
(1058,336,ls),
(1058,249,o),
(1054,141,o),
(1076,-1,c),
(856,-1,l),
(825,123,l),
(800,123,l),
(697,1,o),
(639,-29,o),
(501,-29,cs),
(232,-29,o),
(102,172,o),
(102,472,cs),
(102,765,o),
(233,977,o),
(538,977,cs),
(631,977,o),
(698,962,o),
(750,943,c),
(750,1377,l),
(1058,1377,l)
);
},
{
closed = 1;
nodes = (
(677,229,o),
(723,272,o),
(750,334,c),
(750,676,l),
(707,706,o),
(679,721,o),
(588,721,cs),
(413,721,o),
(419,561,o),
(419,456,cs),
(419,333,o),
(443,237,o),
(584,229,c)
);
}
);
width = 1216;
},
{
layerId = "EDE6E634-030B-4ED7-B889-69990611018D";
shapes = (
{
closed = 1;
nodes = (
(981,328,ls),
(981,228,o),
(979,123,o),
(999,-2,c),
(825,-2,l),
(790,128,l),
(768,128,l),
(685,18,o),
(607,-27,o),
(470,-27,cs),
(219,-27,o),
(90,155,o),
(90,451,cs),
(90,764,o),
(235,960,o),
(533,960,cs),
(616,960,o),
(672,945,o),
(732,926,c),
(732,1377,l),
(981,1377,l)
);
},
{
closed = 1;
nodes = (
(645,182,o),
(703,236,o),
(732,329,c),
(732,704,l),
(686,736,o),
(646,752,o),
(567,752,cs),
(387,752,o),
(347,615,o),
(347,453,cs),
(347,302,o),
(390,187,o),
(533,182,c)
);
}
);
width = 1139;
},
{
layerId = "EE85CFF4-71C8-4DB0-B443-69364CCEBDFC";
shapes = (
{
closed = 1;
nodes = (
(865,316,ls),
(865,196,o),
(867,96,o),
(884,-4,c),
(778,-4,l),
(737,136,l),
(720,136,l),
(667,44,o),
(559,-24,o),
(423,-24,cs),
(200,-24,o),
(72,129,o),
(72,420,cs),
(72,763,o),
(238,934,o),
(526,934,cs),
(593,934,o),
(633,920,o),
(705,901,c),
(705,1377,l),
(865,1377,l)
);
},
{
closed = 1;
nodes = (
(597,112,o),
(673,182,o),
(705,322,c),
(705,746,l),
(654,781,o),
(596,798,o),
(536,798,cs),
(348,798,o),
(239,696,o),
(239,449,cs),
(239,255,o),
(310,112,o),
(456,112,cs)
);
}
);
width = 1024;
},
{
layerId = "52A4F8C9-22CB-40B3-89C9-4EF9D272773E";
shapes = (
{
closed = 1;
nodes = (
(807,310,ls),
(807,180,o),
(811,82,o),
(826,-5,c),
(754,-5,l),
(710,140,l),
(696,140,l),
(658,57,o),
(535,-22,o),
(399,-22,cs),
(190,-22,o),
(63,116,o),
(63,404,cs),
(63,762,o),
(240,921,o),
(522,921,cs),
(581,921,o),
(613,907,o),
(691,888,c),
(691,1377,l),
(807,1377,l)
);
},
{
closed = 1;
nodes = (
(573,77,o),
(658,155,o),
(691,318,c),
(691,767,l),
(638,804,o),
(571,821,o),
(520,821,cs),
(328,821,o),
(185,737,o),
(185,447,cs),
(185,231,o),
(270,74,o),
(417,77,c)
);
}
);
width = 966;
}
);
unicode = 100;
},
{
glyphname = e;
layers = (
{
layerId = "C6F19E25-0F49-451F-AEE1-A003FA0ED529";
shapes = (
{
closed = 1;
nodes = (
(838,50,l),
(774,2,o),
(651,-29,o),
(517,-29,cs),
(186,-29,o),
(53,159,o),
(53,465,cs),
(53,710,o),
(198,976,o),
(494,976,cs),
(765,976,o),
(866,799,o),
(866,588,cs),
(866,513,o),
(857,430,o),
(844,379,c),
(368,379,l),
(370,287,o),
(384,207,o),
(528,207,cs),
(612,207,o),
(690,236,o),
(739,264,c)
);
},
{
closed = 1;
nodes = (
(580,556,l),
(594,640,o),
(577,740,o),
(470,740,cs),
(367,740,o),
(357,613,o),
(363,556,c)
);
}
);
width = 909;
},
{
layerId = "EDE6E634-030B-4ED7-B889-69990611018D";
shapes = (
{
closed = 1;
nodes = (
(824,60,l),
(753,7,o),
(641,-27,o),
(504,-27,cs),
(192,-27,o),
(60,161,o),
(60,462,cs),
(60,734,o),
(203,962,o),
(495,962,cs),
(730,962,o),
(854,817,o),
(854,581,cs),
(854,522,o),
(848,451,o),
(837,402,c),
(314,402,l),
(314,252,o),
(372,169,o),
(529,169,cs),
(618,169,o),
(691,202,o),
(740,237,c)
);
},
{
closed = 1;
nodes = (
(621,554,l),
(631,655,o),
(609,766,o),
(481,766,cs),
(354,766,o),
(317,662,o),
(314,554,c)
);
}
);
width = 909;
},
{
layerId = "EE85CFF4-71C8-4DB0-B443-69364CCEBDFC";
shapes = (
{
closed = 1;
nodes = (
(803,75,l),
(722,15,o),
(626,-24,o),
(485,-24,cs),
(201,-24,o),
(70,164,o),
(70,457,cs),
(70,770,o),
(211,941,o),
(496,941,cs),
(677,941,o),
(836,844,o),
(836,571,cs),
(836,535,o),
(835,483,o),
(827,436,c),
(233,436,l),
(230,200,o),
(354,112,o),
(530,112,cs),
(627,112,o),
(693,151,o),
(742,196,c)
);
},
{
closed = 1;
nodes = (
(683,551,l),
(686,678,o),
(657,805,o),
(498,805,cs),
(335,805,o),
(257,736,o),
(241,551,c)
);
}
);
width = 909;
},
{
layerId = "52A4F8C9-22CB-40B3-89C9-4EF9D272773E";
shapes = (
{
closed = 1;
nodes = (
(792,83,l),
(706,19,o),
(618,-22,o),
(475,-22,cs),
(206,-22,o),
(75,166,o),
(75,454,cs),
(75,788,o),
(215,930,o),
(497,930,cs),
(650,930,o),
(827,858,o),
(827,566,cs),
(827,542,o),
(828,499,o),
(822,453,c),
(192,453,l),
(188,174,o),
(345,83,o),
(531,83,cs),
(632,83,o),
(694,125,o),
(743,175,c)
);
},
{
closed = 1;
nodes = (
(714,549,l),
(714,690,o),
(681,825,o),
(507,825,cs),
(325,825,o),
(227,773,o),
(204,549,c)
);
}
);
width = 909;
}
);
unicode = 101;
},
{
glyphname = f;
layers = (
{
layerId = "C6F19E25-0F49-451F-AEE1-A003FA0ED529";
shapes = (
{
closed = 1;
nodes = (
(9,950,l),
(149,950,l),
(149,1136,ls),
(149,1322,o),
(306,1377,o),
(487,1377,cs),
(620,1377,o),
(656,1367,o),
(734,1343,c),
(679,1107,l),
(624,1122,o),
(607,1137,o),
(544,1137,cs),
(464,1137,o),
(450,1095,o),
(450,1033,cs),
(450,950,l),
(626,950,l),
(626,695,l),
(457,695,l),
(457,0,l),
(149,0,l),
(149,695,l),
(9,695,l)
);
}
);
width = 682;
},
{
layerId = "EDE6E634-030B-4ED7-B889-69990611018D";
shapes = (
{
closed = 1;
nodes = (
(35,936,l),
(181,936,l),
(181,1083,ls),
(181,1285,o),
(307,1377,o),
(499,1377,cs),
(614,1377,o),
(660,1367,o),
(735,1343,c),
(688,1149,l),
(631,1168,o),
(600,1179,o),
(543,1179,cs),
(449,1179,o),
(426,1114,o),
(426,1032,cs),
(426,936,l),
(639,936,l),
(639,728,l),
(430,728,l),
(430,0,l),
(181,0,l),
(181,728,l),
(35,728,l)
);
}
);
width = 682;
},
{
layerId = "EE85CFF4-71C8-4DB0-B443-69364CCEBDFC";
shapes = (
{
closed = 1;
nodes = (
(74,915,l),
(229,915,l),
(229,1003,ls),
(229,1230,o),
(308,1377,o),
(517,1377,cs),
(605,1377,o),
(666,1367,o),
(737,1343,c),
(702,1212,l),
(642,1237,o),
(590,1242,o),
(541,1242,cs),
(426,1242,o),
(390,1142,o),
(390,1031,cs),
(390,915,l),
(658,915,l),
(658,778,l),
(390,778,l),
(390,0,l),
(229,0,l),
(229,778,l),
(74,778,l)
);
}
);
width = 682;
},
{
layerId = "52A4F8C9-22CB-40B3-89C9-4EF9D272773E";
shapes = (
{
closed = 1;
nodes = (
(94,904,l),
(253,904,l),
(253,963,ls),
(253,1202,o),
(309,1377,o),
(526,1377,cs),
(600,1377,o),
(669,1367,o),
(738,1343,c),
(709,1244,l),
(648,1272,o),
(585,1274,o),
(540,1274,cs),
(414,1274,o),
(372,1156,o),
(372,1030,cs),
(372,904,l),
(668,904,l),
(668,803,l),
(370,803,l),
(370,0,l),
(253,0,l),
(253,803,l),
(94,803,l)
);
}
);
width = 682;
}
);
unicode = 102;
},
{
glyphname = g;
layers = (
{
layerId = "C6F19E25-0F49-451F-AEE1-A003FA0ED529";
shapes = (
{
closed = 1;
nodes = (
(917,30,ls),
(917,-211,o),
(817,-385,o),
(512,-385,cs),
(288,-385,o),
(174,-335,o),
(98,-298,c),
(197,-67,l),
(246,-91,o),
(320,-137,o),
(444,-137,cs),
(631,-137,o),
(619,-19,o),
(619,38,cs),
(619,128,l),
(595,128,l),
(589,103,o),
(535,39,o),
(415,39,cs),
(197,39,o),
(51,160,o),
(51,477,cs),
(51,812,o),
(226,973,o),
(548,973,cs),
(704,973,o),
(829,942,o),
(917,915,c)
);
},
{
closed = 1;
nodes = (
(556,271,o),
(579,294,o),
(608,316,c),
(608,687,l),
(570,708,o),
(536,717,o),
(514,717,cs),
(394,717,o),
(357,662,o),
(357,491,cs),
(357,310,o),
(420,271,o),
(477,271,cs)
);
}
);
width = 1024;
},
{
layerId = "EDE6E634-030B-4ED7-B889-69990611018D";
shapes = (
{
closed = 1;
nodes = (
(902,35,ls),
(902,-241,o),
(780,-388,o),
(492,-388,cs),
(307,-388,o),
(174,-336,o),
(100,-283,c),
(198,-105,l),
(254,-146,o),
(343,-185,o),
(450,-185,cs),
(638,-185,o),
(660,-81,o),
(660,39,cs),
(660,116,l),
(638,116,l),
(622,82,o),
(558,22,o),
(434,22,cs),
(186,22,o),
(60,173,o),
(60,466,cs),
(60,793,o),
(231,960,o),
(552,960,cs),
(707,960,o),
(814,933,o),
(902,904,c)
);
},
{
closed = 1;
nodes = (
(581,216,o),
(624,261,o),
(653,321,c),
(653,723,l),
(609,742,o),
(570,752,o),
(522,752,cs),
(378,752,o),
(312,673,o),
(312,476,cs),
(312,295,o),
(373,216,o),
(484,216,cs)
);
}
);
width = 1024;
},
{
layerId = "EE85CFF4-71C8-4DB0-B443-69364CCEBDFC";
shapes = (
{
closed = 1;
nodes = (
(880,42,ls),
(880,-286,o),
(725,-393,o),
(462,-393,cs),
(335,-393,o),
(174,-337,o),
(103,-260,c),
(199,-162,l),
(266,-229,o),
(377,-257,o),
(459,-257,cs),
(649,-257,o),
(721,-174,o),
(721,41,cs),
(721,98,l),
(703,98,l),
(671,50,o),
(592,-4,o),
(462,-4,cs),
(170,-4,o),
(74,193,o),
(74,449,cs),
(74,764,o),
(238,940,o),
(558,940,cs),
(711,940,o),
(792,920,o),
(880,888,c)
);
},
{
closed = 1;
nodes = (
(618,133,o),
(691,212,o),
(720,328,c),
(720,777,l),
(667,793,o),
(621,804,o),
(534,804,cs),
(354,804,o),
(245,690,o),
(245,453,cs),
(245,272,o),
(303,133,o),
(495,133,cs)
);
}
);
width = 1024;
},
{
layerId = "52A4F8C9-22CB-40B3-89C9-4EF9D272773E";
shapes = (
{
closed = 1;
nodes = (
(869,46,ls),
(869,-309,o),
(697,-396,o),
(447,-396,cs),
(349,-396,o),
(174,-338,o),
(105,-248,c),
(200,-191,l),
(272,-271,o),
(394,-293,o),
(464,-293,cs),
(655,-293,o),
(752,-221,o),
(752,42,cs),
(752,89,l),
(736,89,l),
(696,34,o),
(609,-17,o),
(476,-17,cs),
(162,-17,o),
(81,203,o),
(81,440,cs),
(81,749,o),
(242,930,o),
(561,930,cs),
(713,930,o),
(781,913,o),
(869,880,c)
);
},
{
closed = 1;
nodes = (
(637,91,o),
(725,187,o),
(754,332,c),
(754,804,l),
(696,819,o),
(647,830,o),
(540,830,cs),
(342,830,o),
(211,699,o),
(211,441,cs),
(211,260,o),
(268,91,o),
(501,91,cs)
);
}
);
width = 1024;
}
);
unicode = 103;
},
{
glyphname = h;
layers = (
{
layerId = "C6F19E25-0F49-451F-AEE1-A003FA0ED529";
shapes = (
{
closed = 1;
nodes = (
(763,0,l),
(763,521,ls),
(763,561,o),
(736,705,o),
(629,705,cs),
(553,705,o),
(507,652,o),
(464,571,c),
(464,0,l),
(157,0,l),
(157,1377,l),
(464,1377,l),
(464,835,l),
(488,835,l),
(541,904,o),
(630,976,o),
(777,976,cs),
(903,976,o),
(1072,885,o),
(1072,588,cs),
(1072,0,l)
);
}
);
width = 1216;
},
{
layerId = "EDE6E634-030B-4ED7-B889-69990611018D";
shapes = (
{
closed = 1;
nodes = (
(753,0,l),
(753,515,ls),
(753,618,o),
(727,742,o),
(594,742,cs),
(506,742,o),
(436,677,o),
(399,576,c),
(399,0,l),
(150,0,l),
(150,1377,l),
(399,1377,l),
(399,822,l),
(421,822,l),
(480,897,o),
(569,962,o),
(705,962,cs),
(869,962,o),
(1003,872,o),
(1003,569,cs),
(1003,0,l)
);
}
);
width = 1139;
},
{
layerId = "EE85CFF4-71C8-4DB0-B443-69364CCEBDFC";
shapes = (
{
closed = 1;
nodes = (
(738,0,l),
(738,506,ls),
(738,703,o),
(713,798,o),
(541,798,cs),
(436,798,o),
(330,715,o),
(301,584,c),
(301,0,l),
(140,0,l),
(140,1377,l),
(301,1377,l),
(301,802,l),
(320,802,l),
(389,886,o),
(478,941,o),
(597,941,cs),
(818,941,o),
(899,853,o),
(899,540,cs),
(899,0,l)
);
}
);
width = 1024;
},
{
layerId = "52A4F8C9-22CB-40B3-89C9-4EF9D272773E";
shapes = (
{
closed = 1;
nodes = (
(730,0,l),
(730,501,ls),
(730,746,o),
(706,826,o),
(514,826,cs),
(401,826,o),
(277,734,o),
(252,588,c),
(252,0,l),
(135,0,l),
(135,1377,l),
(252,1377,l),
(252,792,l),
(269,792,l),
(343,880,o),
(432,930,o),
(543,930,cs),
(792,930,o),
(847,843,o),
(847,525,cs),
(847,0,l)
);
}
);
width = 966;
}
);
unicode = 104;
},
{
glyphname = i;
layers = (
{
layerId = "C6F19E25-0F49-451F-AEE1-A003FA0ED529";
shapes = (
{
closed = 1;
nodes = (
(129,950,l),
(439,950,l),
(439,0,l),
(129,0,l)
);
},
{
closed = 1;
nodes = (
(62,1383,o),
(160,1451,o),
(276,1451,cs),
(414,1451,o),
(507,1383,o),
(507,1284,cs),
(507,1168,o),
(416,1115,o),
(276,1115,cs),
(160,1115,o),
(62,1170,o),
(62,1284,cs)
);
}
);
width = 569;
},
{
layerId = "EDE6E634-030B-4ED7-B889-69990611018D";
shapes = (
{
closed = 1;
nodes = (
(159,936,l),
(409,936,l),
(409,0,l),
(159,0,l)
);
},
{
closed = 1;
nodes = (
(109,1358,o),
(185,1416,o),
(280,1416,cs),
(388,1416,o),
(460,1358,o),
(460,1275,cs),
(460,1183,o),
(389,1133,o),
(280,1133,cs),
(185,1133,o),
(109,1184,o),
(109,1275,cs)
);
}
);
width = 569;
},
{
layerId = "EE85CFF4-71C8-4DB0-B443-69364CCEBDFC";
shapes = (
{
closed = 1;
nodes = (
(204,915,l),
(364,915,l),
(364,0,l),
(204,0,l)
);
},
{
closed = 1;
nodes = (
(180,1320,o),
(222,1364,o),
(286,1364,cs),
(349,1364,o),
(389,1320,o),
(389,1261,cs),
(389,1205,o),
(349,1160,o),
(286,1160,cs),
(222,1160,o),
(180,1205,o),
(180,1261,cs)
);
}
);
width = 569;
},
{
layerId = "52A4F8C9-22CB-40B3-89C9-4EF9D272773E";
shapes = (
{
closed = 1;
nodes = (
(227,904,l),
(341,904,l),
(341,0,l),
(227,0,l)
);
},
{
closed = 1;
nodes = (
(207,1301,o),
(232,1338,o),
(280,1338,cs),
(320,1338,o),
(344,1301,o),
(344,1254,cs),
(344,1216,o),
(320,1174,o),
(280,1174,cs),
(232,1174,o),
(207,1216,o),
(207,1254,cs)
);
}
);
width = 569;
}
);
unicode = 105;
},
{
glyphname = j;
layers = (
{
layerId = "C6F19E25-0F49-451F-AEE1-A003FA0ED529";
shapes = (
{
closed = 1;
nodes = (
(243,950,l),
(551,950,l),
(551,12,ls),
(551,-200,o),
(472,-402,o),
(194,-402,cs),
(141,-402,o),
(71,-393,o),
(29,-377,c),
(29,-119,l),
(34,-121,o),
(59,-123,o),
(67,-125,c),
(236,-136,o),
(243,-55,o),
(243,43,cs)
);
},
{
closed = 1;
nodes = (
(186,1383,o),
(285,1451,o),
(400,1451,cs),
(538,1451,o),
(632,1383,o),
(632,1284,cs),
(632,1168,o),
(540,1115,o),
(400,1115,cs),
(285,1115,o),
(186,1170,o),
(186,1284,cs)
);
}
);
width = 757;
},
{
layerId = "EDE6E634-030B-4ED7-B889-69990611018D";
shapes = (
{
closed = 1;
nodes = (
(236,936,l),
(485,936,l),
(485,-6,ls),
(485,-223,o),
(405,-388,o),
(163,-388,cs),
(124,-388,o),
(73,-383,o),
(38,-372,c),
(38,-164,l),
(49,-165,o),
(71,-166,o),
(82,-166,cs),
(225,-166,o),
(236,-84,o),
(236,36,cs)
);
},
{
closed = 1;
nodes = (
(190,1358,o),
(266,1416,o),
(361,1416,cs),
(469,1416,o),
(541,1358,o),
(541,1275,cs),
(541,1183,o),
(470,1133,o),
(361,1133,cs),
(266,1133,o),
(190,1184,o),
(190,1275,cs)
);
}
);
width = 682;
},
{
layerId = "EE85CFF4-71C8-4DB0-B443-69364CCEBDFC";
shapes = (
{
closed = 1;
nodes = (
(225,915,l),
(386,915,l),
(386,-33,ls),
(386,-258,o),
(305,-367,o),
(117,-367,cs),
(98,-367,o),
(76,-368,o),
(52,-364,c),
(52,-231,l),
(72,-231,o),
(89,-230,o),
(104,-228,cs),
(208,-211,o),
(225,-128,o),
(225,25,cs)
);
},
{
closed = 1;
nodes = (
(201,1320,o),
(243,1364,o),
(307,1364,cs),
(370,1364,o),
(410,1320,o),
(410,1261,cs),
(410,1205,o),
(370,1160,o),
(307,1160,cs),
(243,1160,o),
(201,1205,o),
(201,1261,cs)
);
}
);
width = 569;
},
{
layerId = "52A4F8C9-22CB-40B3-89C9-4EF9D272773E";
shapes = (
{
closed = 1;
nodes = (
(219,904,l),
(336,904,l),
(336,-47,ls),
(336,-276,o),
(255,-356,o),
(94,-356,cs),
(85,-356,o),
(78,-360,o),
(59,-360,c),
(59,-265,l),
(84,-264,o),
(98,-262,o),
(115,-259,c),
(199,-234,o),
(219,-150,o),
(219,19,cs)
);
},
{
closed = 1;
nodes = (
(202,1301,o),
(227,1338,o),
(276,1338,cs),
(316,1338,o),
(340,1301,o),
(340,1254,cs),
(340,1216,o),
(316,1174,o),
(276,1174,cs),
(227,1174,o),
(202,1216,o),
(202,1254,cs)
);
}
);
width = 512;
}
);
unicode = 106;
},
{
glyphname = k;
layers = (
{
layerId = "C6F19E25-0F49-451F-AEE1-A003FA0ED529";
shapes = (
{
closed = 1;
nodes = (
(546,373,l),
(459,373,l),
(459,0,l),
(148,0,l),
(148,1377,l),
(459,1377,l),
(459,552,l),
(542,590,l),
(832,950,l),
(1168,950,l),
(860,596,l),
(785,505,l),
(856,428,l),
(1216,0,l),
(850,0,l)
);
}
);
width = 1216;
},
{
layerId = "EDE6E634-030B-4ED7-B889-69990611018D";
shapes = (
{
closed = 1;
nodes = (
(493,388,l),
(401,388,l),
(401,0,l),
(150,0,l),
(150,1377,l),
(401,1377,l),
(401,531,l),
(487,565,l),
(798,936,l),
(1075,936,l),
(754,582,l),
(680,500,l),
(758,422,l),
(1123,0,l),
(822,0,l)
);
}
);
width = 1139;
},
{
layerId = "EE85CFF4-71C8-4DB0-B443-69364CCEBDFC";
shapes = (
{
closed = 1;
nodes = (
(413,411,l),
(314,411,l),
(314,0,l),
(153,0,l),
(153,1377,l),
(314,1377,l),
(314,499,l),
(404,528,l),
(747,915,l),
(936,915,l),
(595,561,l),
(523,493,l),
(611,413,l),
(983,0,l),
(780,0,l)
);
}
);
width = 1024;
},
{
layerId = "52A4F8C9-22CB-40B3-89C9-4EF9D272773E";
shapes = (
{
closed = 1;
nodes = (
(373,423,l),
(270,423,l),
(270,0,l),
(155,0,l),
(155,1377,l),
(270,1377,l),
(270,483,l),
(362,509,l),
(721,904,l),
(866,904,l),
(515,550,l),
(444,489,l),
(537,408,l),
(913,0,l),
(759,0,l)
);
}
);
width = 966;
}
);
unicode = 107;
},
{
glyphname = l;
layers = (
{
layerId = "C6F19E25-0F49-451F-AEE1-A003FA0ED529";
shapes = (
{
closed = 1;
nodes = (
(375,385,ls),
(375,295,o),
(375,245,o),
(450,245,cs),
(478,245,o),
(521,261,o),
(556,277,c),
(566,22,l),
(479,-16,o),
(418,-32,o),
(316,-32,cs),
(151,-32,o),
(68,82,o),
(68,236,cs),
(68,1377,l),
(375,1377,l)
);
}
);
width = 569;
},
{
layerId = "EDE6E634-030B-4ED7-B889-69990611018D";
shapes = (
{
closed = 1;
nodes = (
(358,328,ls),
(358,236,o),
(374,192,o),
(443,192,cs),
(475,192,o),
(509,202,o),
(549,218,c),
(564,17,l),
(492,-12,o),
(425,-29,o),
(341,-29,cs),
(192,-29,o),
(110,63,o),
(110,215,cs),
(110,1377,l),
(358,1377,l)
);
}
);
width = 569;
},
{
layerId = "EE85CFF4-71C8-4DB0-B443-69364CCEBDFC";
shapes = (
{
closed = 1;
nodes = (
(333,242,ls),
(333,147,o),
(372,112,o),
(433,112,cs),
(470,112,o),
(491,114,o),
(539,130,c),
(561,10,l),
(512,-6,o),
(436,-24,o),
(378,-24,cs),
(254,-24,o),
(173,34,o),
(173,183,cs),
(173,1377,l),
(333,1377,l)
);
}
);
width = 569;
},
{
layerId = "52A4F8C9-22CB-40B3-89C9-4EF9D272773E";
shapes = (
{
closed = 1;
nodes = (
(320,199,ls),
(320,102,o),
(371,72,o),
(428,72,cs),
(467,72,o),
(482,70,o),
(534,86,c),
(559,6,l),
(522,-3,o),
(442,-21,o),
(397,-21,cs),
(285,-21,o),
(205,19,o),
(205,167,cs),
(205,1377,l),
(320,1377,l)
);
}
);
width = 569;
}
);
unicode = 108;
},
{
glyphname = m;
layers = (
{
layerId = "C6F19E25-0F49-451F-AEE1-A003FA0ED529";
shapes = (
{
closed = 1;
nodes = (
(748,0,l),
(748,479,ls),
(748,504,o),
(748,560,o),
(735,611,c),
(721,661,o),
(693,705,o),
(637,705,cs),
(593,705,o),
(551,682,o),
(520,659,c),
(489,633,o),
(465,609,o),
(458,604,c),
(458,0,l),
(151,0,l),
(151,950,l),
(399,950,l),
(424,815,l),
(452,815,l),
(474,849,o),
(507,889,o),
(556,921,cs),
(606,953,o),
(671,976,o),
(755,976,cs),
(881,976,o),
(979,925,o),
(1032,789,c),
(1100,911,o),
(1222,976,o),
(1349,976,cs),
(1437,976,o),
(1515,952,o),
(1572,888,cs),
(1630,822,o),
(1663,714,o),
(1663,549,cs),
(1663,0,l),
(1355,0,l),
(1355,483,ls),
(1355,550,o),
(1347,607,o),
(1327,645,cs),
(1308,683,o),
(1279,705,o),
(1238,705,cs),
(1197,705,o),
(1156,681,o),
(1123,658,c),
(1091,633,o),
(1066,608,o),
(1058,602,c),
(1058,0,l)
);
}
);
width = 1781;
},
{
layerId = "EDE6E634-030B-4ED7-B889-69990611018D";
shapes = (
{
closed = 1;
nodes = (
(738,0,l),
(738,488,ls),
(738,543,o),
(735,606,o),
(716,656,cs),
(696,706,o),
(660,742,o),
(595,742,cs),
(544,742,o),
(500,721,o),
(467,694,cs),
(434,666,o),
(410,633,o),
(399,609,c),
(399,0,l),
(150,0,l),
(150,936,l),
(343,936,l),
(371,806,l),
(395,806,l),
(426,846,o),
(463,885,o),
(511,914,cs),
(559,943,o),
(618,962,o),
(693,962,cs),
(820,962,o),
(912,912,o),
(961,780,c),
(1030,896,o),
(1139,962,o),
(1268,962,cs),
(1365,962,o),
(1443,939,o),
(1497,875,cs),
(1551,810,o),
(1580,704,o),
(1580,540,cs),
(1580,0,l),
(1331,0,l),
(1331,500,ls),
(1331,577,o),
(1323,639,o),
(1300,680,cs),
(1277,720,o),
(1240,742,o),
(1183,742,cs),
(1132,742,o),
(1089,721,o),
(1056,693,cs),
(1023,664,o),
(999,628,o),
(988,597,c),
(988,0,l)
);
}
);
width = 1706;
},
{
layerId = "EE85CFF4-71C8-4DB0-B443-69364CCEBDFC";
shapes = (
{
closed = 1;
nodes = (
(723,0,l),
(723,502,ls),
(723,601,o),
(715,675,o),
(687,724,cs),
(659,773,o),
(611,798,o),
(532,798,cs),
(471,798,o),
(424,779,o),
(388,747,cs),
(352,715,o),
(327,669,o),
(310,616,c),
(310,0,l),
(149,0,l),
(149,915,l),
(259,915,l),
(291,793,l),
(309,793,l),
(354,842,o),
(397,879,o),
(443,904,cs),
(489,928,o),
(539,941,o),
(600,941,cs),
(728,941,o),
(811,892,o),
(854,767,c),
(925,874,o),
(1014,941,o),
(1146,941,cs),
(1257,941,o),
(1335,919,o),
(1384,856,cs),
(1433,792,o),
(1455,689,o),
(1455,526,cs),
(1455,0,l),
(1295,0,l),
(1295,526,ls),
(1295,618,o),
(1287,687,o),
(1259,732,cs),
(1230,776,o),
(1181,798,o),
(1101,798,cs),
(1034,798,o),
(989,781,o),
(955,746,cs),
(921,711,o),
(899,658,o),
(883,589,c),
(883,0,l)
);
}
);
width = 1593;
},
{
layerId = "52A4F8C9-22CB-40B3-89C9-4EF9D272773E";
shapes = (
{
closed = 1;
nodes = (
(715,0,l),
(715,509,ls),
(715,630,o),
(705,710,o),
(672,758,cs),
(640,807,o),
(586,826,o),
(500,826,cs),
(434,826,o),
(386,808,o),
(348,774,cs),
(311,740,o),
(285,687,o),
(265,620,c),
(265,0,l),
(148,0,l),
(148,904,l),
(217,904,l),
(251,786,l),
(266,786,l),
(318,840,o),
(364,876,o),
(409,899,c),
(454,920,o),
(499,930,o),
(553,930,cs),
(682,930,o),
(760,882,o),
(800,760,c),
(872,863,o),
(951,930,o),
(1085,930,cs),
(1203,930,o),
(1281,909,o),
(1327,846,cs),
(1374,783,o),
(1392,681,o),
(1392,519,cs),
(1392,0,l),
(1277,0,l),
(1277,539,ls),
(1277,639,o),
(1269,711,o),
(1238,758,c),
(1206,804,o),
(1151,826,o),
(1060,826,cs),
(985,826,o),
(939,811,o),
(904,773,cs),
(870,735,o),
(849,673,o),
(830,585,c),
(830,0,l)
);
}
);
width = 1536;
}
);
unicode = 109;
},
{
glyphname = n;
layers = (
{
layerId = "C6F19E25-0F49-451F-AEE1-A003FA0ED529";
shapes = (
{
closed = 1;
nodes = (
(780,0,l),
(780,518,ls),
(780,672,o),
(705,705,o),
(653,705,cs),
(574,705,o),
(486,611,o),
(464,575,c),
(464,0,l),
(157,0,l),
(157,950,l),
(409,950,l),
(433,808,l),
(466,808,l),
(515,890,o),
(657,976,o),
(763,976,cs),
(927,976,o),
(1089,887,o),
(1089,582,cs),
(1089,0,l)
);
}
);
width = 1216;
},
{
layerId = "EDE6E634-030B-4ED7-B889-69990611018D";
shapes = (
{
closed = 1;
nodes = (
(763,0,l),
(763,513,ls),
(763,674,o),
(706,742,o),
(603,742,cs),
(499,742,o),
(426,653,o),
(399,586,c),
(399,0,l),
(150,0,l),
(150,936,l),
(346,936,l),
(373,802,l),
(399,802,l),
(456,885,o),
(564,962,o),
(689,962,cs),
(872,962,o),
(1013,874,o),
(1013,565,cs),
(1013,0,l)
);
}
);
width = 1139;
},
{
layerId = "EE85CFF4-71C8-4DB0-B443-69364CCEBDFC";
shapes = (
{
closed = 1;
nodes = (
(738,0,l),
(738,506,ls),
(738,677,o),
(708,798,o),
(528,798,cs),
(387,798,o),
(336,716,o),
(301,603,c),
(301,0,l),
(140,0,l),
(140,915,l),
(251,915,l),
(283,793,l),
(299,793,l),
(367,877,o),
(425,941,o),
(578,941,cs),
(789,941,o),
(899,854,o),
(899,539,cs),
(899,0,l)
);
}
);
width = 1024;
},
{
layerId = "52A4F8C9-22CB-40B3-89C9-4EF9D272773E";
shapes = (
{
closed = 1;
nodes = (
(725,0,l),
(725,502,ls),
(725,679,o),
(709,826,o),
(490,826,cs),
(331,826,o),
(291,748,o),
(252,612,c),
(252,0,l),
(135,0,l),
(135,904,l),
(203,904,l),
(238,788,l),
(249,788,l),
(322,873,o),
(355,930,o),
(522,930,cs),
(747,930,o),
(842,844,o),
(842,526,cs),
(842,0,l)
);
}
);
width = 966;
}
);
unicode = 110;
},
{
glyphname = o;
layers = (
{
layerId = "C6F19E25-0F49-451F-AEE1-A003FA0ED529";
shapes = (
{
closed = 1;
nodes = (
(52,757,o),
(214,976,o),
(514,976,cs),
(814,976,o),
(972,761,o),
(972,474,cs),
(972,201,o),
(826,-31,o),
(514,-31,cs),
(230,-31,o),
(52,172,o),
(52,474,cs)
);
},
{
closed = 1;
nodes = (
(366,254,o),
(449,227,o),
(512,227,cs),
(624,227,o),
(660,353,o),
(660,474,cs),
(660,629,o),
(615,718,o),
(512,718,cs),
(436,718,o),
(366,651,o),
(366,474,cs)
);
}
);
width = 1024;
},
{
layerId = "EDE6E634-030B-4ED7-B889-69990611018D";
shapes = (
{
closed = 1;
nodes = (
(60,758,o),
(220,962,o),
(513,962,cs),
(813,962,o),
(964,750,o),
(964,467,cs),
(964,184,o),
(813,-28,o),
(513,-28,cs),
(220,-28,o),
(60,176,o),
(60,467,cs)
);
},
{
closed = 1;
nodes = (
(317,266,o),
(394,181,o),
(513,181,cs),
(653,181,o),
(709,302,o),
(709,467,cs),
(709,632,o),
(653,753,o),
(513,753,cs),
(394,753,o),
(317,668,o),
(317,467,cs)
);
}
);
width = 1024;
},
{
layerId = "EE85CFF4-71C8-4DB0-B443-69364CCEBDFC";
shapes = (
{
closed = 1;
nodes = (
(72,760,o),
(229,941,o),
(512,941,cs),
(812,941,o),
(952,733,o),
(952,457,cs),
(952,158,o),
(793,-24,o),
(512,-24,cs),
(205,-24,o),
(72,182,o),
(72,457,cs)
);
},
{
closed = 1;
nodes = (
(243,284,o),
(311,112,o),
(514,112,cs),
(697,112,o),
(782,225,o),
(782,457,cs),
(782,637,o),
(710,805,o),
(514,805,cs),
(331,805,o),
(243,693,o),
(243,457,cs)
);
}
);
width = 1024;
},
{
layerId = "52A4F8C9-22CB-40B3-89C9-4EF9D272773E";
shapes = (
{
closed = 1;
nodes = (
(78,761,o),
(234,930,o),
(511,930,cs),
(811,930,o),
(946,724,o),
(946,452,cs),
(946,145,o),
(783,-22,o),
(511,-22,cs),
(197,-22,o),
(78,185,o),
(78,452,cs)
);
},
{
closed = 1;
nodes = (
(206,293,o),
(269,77,o),
(515,77,cs),
(719,77,o),
(819,186,o),
(819,452,cs),
(819,640,o),
(739,831,o),
(515,831,cs),
(299,831,o),
(206,706,o),
(206,452,cs)
);
}
);
width = 1024;
}
);
unicode = 111;
},
{
glyphname = p;
layers = (
{
layerId = "C6F19E25-0F49-451F-AEE1-A003FA0ED529";
shapes = (
{
closed = 1;
nodes = (
(157,950,l),
(381,950,l),
(412,835,l),
(437,835,l),
(516,932,o),
(621,976,o),
(757,976,cs),
(1021,976,o),
(1115,791,o),
(1115,497,cs),
(1115,182,o),
(967,-32,o),
(659,-32,cs),
(588,-32,o),
(518,-14,o),
(464,10,c),
(464,-367,l),
(157,-367,l)
);
},
{
closed = 1;
nodes = (
(557,718,o),
(499,684,o),
(464,600,c),
(464,274,l),
(497,246,o),
(551,225,o),
(613,225,cs),
(754,225,o),
(800,272,o),
(800,476,cs),
(800,586,o),
(798,718,o),
(652,718,cs)
);
}
);
width = 1216;
},
{
layerId = "EDE6E634-030B-4ED7-B889-69990611018D";
shapes = (
{
closed = 1;
nodes = (
(150,936,l),
(328,936,l),
(359,820,l),
(380,820,l),
(453,915,o),
(556,962,o),
(689,962,cs),
(940,962,o),
(1049,798,o),
(1049,489,cs),
(1049,177,o),
(901,-29,o),
(602,-29,cs),
(522,-29,o),
(459,-13,o),
(399,14,c),
(399,-367,l),
(150,-367,l)
);
},
{
closed = 1;
nodes = (
(498,753,o),
(434,705,o),
(399,597,c),
(399,233,l),
(440,201,o),
(495,180,o),
(571,180,cs),
(731,180,o),
(792,257,o),
(792,477,cs),
(792,636,o),
(755,753,o),
(611,753,cs)
);
}
);
width = 1139;
},
{
layerId = "EE85CFF4-71C8-4DB0-B443-69364CCEBDFC";
shapes = (
{
closed = 1;
nodes = (
(140,915,l),
(248,915,l),
(280,798,l),
(295,798,l),
(359,890,o),
(459,941,o),
(587,941,cs),
(819,941,o),
(950,809,o),
(950,477,cs),
(950,169,o),
(802,-24,o),
(517,-24,cs),
(423,-24,o),
(370,-12,o),
(301,20,c),
(301,-367,l),
(140,-367,l)
);
},
{
closed = 1;
nodes = (
(410,805,o),
(336,737,o),
(301,592,c),
(301,171,l),
(354,134,o),
(411,112,o),
(508,112,cs),
(697,112,o),
(780,234,o),
(780,479,cs),
(780,711,o),
(691,805,o),
(550,805,cs)
);
}
);
width = 1024;
},
{
layerId = "52A4F8C9-22CB-40B3-89C9-4EF9D272773E";
shapes = (
{
closed = 1;
nodes = (
(135,904,l),
(208,904,l),
(240,787,l),
(252,787,l),
(312,877,o),
(410,930,o),
(536,930,cs),
(758,930,o),
(900,815,o),
(900,471,cs),
(900,165,o),
(752,-21,o),
(474,-21,cs),
(373,-21,o),
(325,-11,o),
(252,23,c),
(252,-367,l),
(135,-367,l)
);
},
{
closed = 1;
nodes = (
(366,831,o),
(287,753,o),
(252,589,c),
(252,140,l),
(311,100,o),
(369,78,o),
(476,78,cs),
(680,78,o),
(774,222,o),
(774,480,cs),
(774,749,o),
(659,831,o),
(519,831,cs)
);
}
);
width = 966;
}
);
unicode = 112;
},
{
glyphname = q;
layers = (
{
layerId = "C6F19E25-0F49-451F-AEE1-A003FA0ED529";
shapes = (
{
closed = 1;
nodes = (
(1059,-367,l),
(749,-367,l),
(750,80,l),
(727,80,l),
(683,13,o),
(603,-29,o),
(478,-29,cs),
(219,-29,o),
(97,147,o),
(97,446,cs),
(97,791,o),
(275,977,o),
(646,977,cs),
(796,977,o),
(968,951,o),
(1059,920,c)
);
},
{
closed = 1;
nodes = (
(750,701,l),
(714,718,o),
(655,721,o),
(598,721,cs),
(438,721,o),
(411,605,o),
(411,460,cs),
(411,301,o),
(457,229,o),
(574,229,cs),
(668,229,o),
(732,288,o),
(750,325,c)
);
}
);
width = 1216;
},
{
layerId = "EDE6E634-030B-4ED7-B889-69990611018D";
shapes = (
{
closed = 1;
nodes = (
(989,-367,l),
(739,-367,l),
(739,88,l),
(718,88,l),
(670,16,o),
(591,-27,o),
(463,-27,cs),
(214,-27,o),
(90,142,o),
(90,447,cs),
(90,782,o),
(266,960,o),
(605,960,cs),
(751,960,o),
(909,932,o),
(989,903,c)
);
},
{
closed = 1;
nodes = (
(739,726,l),
(696,745,o),
(633,752,o),
(565,752,cs),
(408,752,o),
(347,637,o),
(347,457,cs),
(347,280,o),
(407,182,o),
(535,182,cs),
(647,182,o),
(715,245,o),
(739,323,c)
);
}
);
width = 1139;
},
{
layerId = "EE85CFF4-71C8-4DB0-B443-69364CCEBDFC";
shapes = (
{
closed = 1;
nodes = (
(884,-367,l),
(724,-367,l),
(723,100,l),
(705,100,l),
(650,20,o),
(573,-24,o),
(441,-24,cs),
(206,-24,o),
(80,134,o),
(80,449,cs),
(80,768,o),
(253,934,o),
(544,934,cs),
(684,934,o),
(821,904,o),
(884,878,c)
);
},
{
closed = 1;
nodes = (
(723,763,l),
(669,786,o),
(600,798,o),
(515,798,cs),
(363,798,o),
(251,685,o),
(251,453,cs),
(251,249,o),
(332,112,o),
(476,112,cs),
(616,112,o),
(690,181,o),
(723,320,c)
);
}
);
width = 1024;
},
{
layerId = "52A4F8C9-22CB-40B3-89C9-4EF9D272773E";
shapes = (
{
closed = 1;
nodes = (
(831,-367,l),
(716,-367,l),
(715,106,l),
(698,106,l),
(640,22,o),
(564,-22,o),
(430,-22,cs),
(202,-22,o),
(75,130,o),
(75,450,cs),
(75,761,o),
(246,921,o),
(513,921,cs),
(650,921,o),
(777,890,o),
(831,865,c)
);
},
{
closed = 1;
nodes = (
(715,782,l),
(655,807,o),
(583,821,o),
(490,821,cs),
(340,821,o),
(203,709,o),
(203,451,cs),
(203,233,o),
(294,77,o),
(446,77,cs),
(600,77,o),
(677,149,o),
(715,318,c)
);
}
);
width = 966;
}
);
unicode = 113;
},
{
glyphname = r;
layers = (
{
layerId = "C6F19E25-0F49-451F-AEE1-A003FA0ED529";
shapes = (
{
closed = 1;
nodes = (
(409,950,l),
(446,805,l),
(474,805,l),
(596,957,o),
(699,971,o),
(808,971,cs),
(874,971,o),
(950,949,o),
(1016,894,c),
(904,613,l),
(854,658,o),
(771,689,o),
(733,689,cs),
(669,689,o),
(577,673,o),
(479,565,c),
(479,0,l),
(172,0,l),
(172,950,l)
);
}
);
width = 1060;
},
{
layerId = "EDE6E634-030B-4ED7-B889-69990611018D";
shapes = (
{
closed = 1;
nodes = (
(351,936,l),
(386,800,l),
(409,800,l),
(503,928,o),
(592,957,o),
(700,957,cs),
(753,957,o),
(817,942,o),
(874,903,c),
(794,673,l),
(749,705,o),
(684,728,o),
(648,728,cs),
(560,728,o),
(478,690,o),
(413,587,c),
(413,0,l),
(164,0,l),
(164,936,l)
);
}
);
width = 909;
},
{
layerId = "EE85CFF4-71C8-4DB0-B443-69364CCEBDFC";
shapes = (
{
closed = 1;
nodes = (
(264,915,l),
(296,793,l),
(312,793,l),
(364,884,o),
(431,936,o),
(538,936,cs),
(571,936,o),
(617,932,o),
(661,916,c),
(629,763,l),
(592,775,o),
(553,787,o),
(520,787,cs),
(396,787,o),
(330,716,o),
(314,620,c),
(314,0,l),
(152,0,l),
(152,915,l)
);
}
);
width = 682;
},
{
layerId = "52A4F8C9-22CB-40B3-89C9-4EF9D272773E";
shapes = (
{
closed = 1;
nodes = (
(220,904,l),
(251,789,l),
(263,789,l),
(294,862,o),
(350,925,o),
(456,925,cs),
(479,925,o),
(516,927,o),
(554,923,c),
(546,808,l),
(513,810,o),
(487,817,o),
(456,817,cs),
(313,817,o),
(256,729,o),
(264,637,c),
(264,0,l),
(146,0,l),
(146,904,l)
);
}
);
width = 568;
}
);
unicode = 114;
},
{
glyphname = s;
layers = (
{
layerId = "C6F19E25-0F49-451F-AEE1-A003FA0ED529";
shapes = (
{
closed = 1;
nodes = (
(126,293,l),
(206,230,o),
(275,207,o),
(383,207,cs),
(454,207,o),
(453,245,o),
(453,248,cs),
(453,325,o),
(367,340,o),
(311,353,c),
(211,380,o),
(55,466,o),
(55,673,cs),
(55,866,o),
(218,976,o),
(445,976,cs),
(527,976,o),
(599,967,o),
(722,917,c),
(660,692,l),
(583,720,o),
(507,740,o),
(437,740,cs),
(400,740,o),
(366,714,o),
(366,685,cs),
(366,597,o),
(474,597,o),
(537,581,c),
(652,546,o),
(762,469,o),
(762,296,cs),
(762,137,o),
(685,-29,o),
(369,-29,cs),
(232,-29,o),
(105,10,o),
(34,52,c)
);
}
);
width = 797;
},
{
layerId = "EDE6E634-030B-4ED7-B889-69990611018D";
shapes = (
{
closed = 1;
nodes = (
(123,252,l),
(208,196,o),
(282,169,o),
(386,169,cs),
(470,169,o),
(498,204,o),
(498,251,cs),
(498,339,o),
(392,356,o),
(309,383,cs),
(207,415,o),
(75,491,o),
(75,673,cs),
(75,861,o),
(214,962,o),
(428,962,cs),
(536,962,o),
(610,943,o),
(713,900,c),
(661,711,l),
(589,739,o),
(516,766,o),
(432,766,cs),
(365,766,o),
(326,738,o),
(326,682,cs),
(326,592,o),
(439,583,o),
(524,556,cs),
(638,519,o),
(747,449,o),
(747,284,cs),
(747,104,o),
(639,-27,o),
(380,-27,cs),
(239,-27,o),
(122,11,o),
(50,51,c)
);
}
);
width = 797;
},
{
layerId = "EE85CFF4-71C8-4DB0-B443-69364CCEBDFC";
shapes = (
{
closed = 1;
nodes = (
(119,190,l),
(211,145,o),
(293,112,o),
(390,112,cs),
(494,112,o),
(565,142,o),
(565,256,cs),
(565,360,o),
(430,380,o),
(306,428,cs),
(201,468,o),
(105,528,o),
(105,673,cs),
(105,854,o),
(208,941,o),
(403,941,cs),
(550,941,o),
(627,907,o),
(699,875,c),
(662,739,l),
(598,768,o),
(529,805,o),
(425,805,cs),
(312,805,o),
(266,774,o),
(266,677,cs),
(266,585,o),
(387,562,o),
(505,519,cs),
(617,478,o),
(725,419,o),
(725,266,cs),
(725,54,o),
(570,-24,o),
(397,-24,cs),
(250,-24,o),
(148,13,o),
(74,50,c)
);
}
);
width = 797;
},
{
layerId = "52A4F8C9-22CB-40B3-89C9-4EF9D272773E";
shapes = (
{
closed = 1;
nodes = (
(117,159,l),
(213,119,o),
(299,83,o),
(392,83,cs),
(506,83,o),
(599,111,o),
(599,259,cs),
(599,371,o),
(449,392,o),
(304,451,cs),
(198,495,o),
(120,547,o),
(120,673,cs),
(120,850,o),
(205,930,o),
(390,930,cs),
(557,930,o),
(636,889,o),
(692,862,c),
(663,753,l),
(603,783,o),
(536,825,o),
(421,825,cs),
(285,825,o),
(236,792,o),
(236,674,cs),
(236,581,o),
(361,551,o),
(495,500,cs),
(606,457,o),
(714,404,o),
(714,257,cs),
(714,29,o),
(535,-22,o),
(406,-22,cs),
(256,-22,o),
(161,14,o),
(86,49,c)
);
}
);
width = 797;
}
);
unicode = 115;
},
{
glyphname = t;
layers = (
{
layerId = "C6F19E25-0F49-451F-AEE1-A003FA0ED529";
shapes = (
{
closed = 1;
nodes = (
(19,950,l),
(164,950,l),
(164,1165,l),
(474,1213,l),
(474,950,l),
(709,950,l),
(709,695,l),
(474,695,l),
(474,447,ls),
(474,297,o),
(482,245,o),
(568,245,cs),
(625,245,o),
(680,273,o),
(693,287,c),
(741,39,l),
(717,18,o),
(580,-32,o),
(491,-32,cs),
(302,-32,o),
(164,60,o),
(164,261,cs),
(164,695,l),
(19,695,l)
);
}
);
width = 757;
},
{
layerId = "EDE6E634-030B-4ED7-B889-69990611018D";
shapes = (
{
closed = 1;
nodes = (
(20,936,l),
(161,936,l),
(161,1148,l),
(411,1213,l),
(411,936,l),
(642,936,l),
(642,728,l),
(411,728,l),
(411,393,ls),
(411,244,o),
(429,192,o),
(517,192,cs),
(561,192,o),
(609,210,o),
(628,226,c),
(672,32,l),
(645,11,o),
(539,-29,o),
(447,-29,cs),
(268,-29,o),
(161,59,o),
(161,260,cs),
(161,728,l),
(20,728,l)
);
}
);
width = 682;
},
{
layerId = "EE85CFF4-71C8-4DB0-B443-69364CCEBDFC";
shapes = (
{
closed = 1;
nodes = (
(21,915,l),
(156,915,l),
(156,1122,l),
(317,1213,l),
(317,915,l),
(542,915,l),
(542,778,l),
(317,778,l),
(317,312,ls),
(317,165,o),
(349,112,o),
(440,112,cs),
(465,112,o),
(503,116,o),
(531,135,c),
(568,21,l),
(537,0,o),
(478,-24,o),
(381,-24,cs),
(217,-24,o),
(156,58,o),
(156,258,cs),
(156,778,l),
(21,778,l)
);
}
);
width = 569;
},
{
layerId = "52A4F8C9-22CB-40B3-89C9-4EF9D272773E";
shapes = (
{
closed = 1;
nodes = (
(22,904,l),
(153,904,l),
(153,1109,l),
(270,1213,l),
(270,904,l),
(492,904,l),
(492,803,l),
(270,803,l),
(270,271,ls),
(270,125,o),
(309,72,o),
(401,72,cs),
(417,72,o),
(450,69,o),
(482,89,c),
(516,15,l),
(483,-6,o),
(447,-21,o),
(348,-21,cs),
(191,-21,o),
(153,57,o),
(153,257,cs),
(153,803,l),
(22,803,l)
);
}
);
width = 512;
}
);
unicode = 116;
},
{
glyphname = u;
layers = (
{
layerId = "C6F19E25-0F49-451F-AEE1-A003FA0ED529";
shapes = (
{
closed = 1;
nodes = (
(451,950,l),
(451,421,ls),
(451,380,o),
(474,249,o),
(592,249,cs),
(698,249,o),
(750,341,o),
(755,353,c),
(755,950,l),
(1065,950,l),
(1065,302,ls),
(1065,194,o),
(1078,84,o),
(1101,0,c),
(867,0,l),
(812,143,l),
(794,143,l),
(704,5,o),
(590,-29,o),
(475,-29,cs),
(271,-29,o),
(142,72,o),
(142,356,cs),
(142,950,l)
);
}
);
width = 1216;
},
{
layerId = "EDE6E634-030B-4ED7-B889-69990611018D";
shapes = (
{
closed = 1;
nodes = (
(386,936,l),
(386,417,ls),
(386,315,o),
(406,194,o),
(535,194,cs),
(641,194,o),
(713,286,o),
(734,339,c),
(734,936,l),
(984,936,l),
(984,285,ls),
(984,185,o),
(994,81,o),
(1014,0,c),
(830,0,l),
(781,146,l),
(763,146,l),
(691,34,o),
(582,-27,o),
(449,-27,cs),
(254,-27,o),
(136,70,o),
(136,363,cs),
(136,936,l)
);
}
);
width = 1139;
},
{
layerId = "EE85CFF4-71C8-4DB0-B443-69364CCEBDFC";
shapes = (
{
closed = 1;
nodes = (
(288,915,l),
(288,411,ls),
(288,217,o),
(304,112,o),
(450,112,cs),
(555,112,o),
(657,204,o),
(702,318,c),
(702,915,l),
(862,915,l),
(862,259,ls),
(862,171,o),
(868,76,o),
(883,0,c),
(775,0,l),
(734,151,l),
(716,151,l),
(671,77,o),
(570,-24,o),
(410,-24,cs),
(228,-24,o),
(127,67,o),
(127,374,cs),
(127,915,l)
);
}
);
width = 1024;
},
{
layerId = "52A4F8C9-22CB-40B3-89C9-4EF9D272773E";
shapes = (
{
closed = 1;
nodes = (
(239,904,l),
(239,408,ls),
(239,168,o),
(253,71,o),
(407,71,cs),
(512,71,o),
(629,163,o),
(686,307,c),
(686,904,l),
(801,904,l),
(801,246,ls),
(801,164,o),
(805,73,o),
(817,0,c),
(747,0,l),
(710,154,l),
(692,154,l),
(661,99,o),
(564,-22,o),
(390,-22,cs),
(215,-22,o),
(122,65,o),
(122,380,cs),
(122,904,l)
);
}
);
width = 966;
}
);
unicode = 117;
},
{
glyphname = v;
layers = (
{
layerId = "C6F19E25-0F49-451F-AEE1-A003FA0ED529";
shapes = (
{
closed = 1;
nodes = (
(506,526,l),
(529,446,l),
(563,529,l),
(701,950,l),
(1031,950,l),
(620,0,l),
(429,0,l),
(-6,950,l),
(354,950,l)
);
}
);
width = 1024;
},
{
layerId = "EDE6E634-030B-4ED7-B889-69990611018D";
shapes = (
{
closed = 1;
nodes = (
(491,471,l),
(529,356,l),
(572,474,l),
(742,936,l),
(1010,936,l),
(593,-8,l),
(450,-8,l),
(15,936,l),
(306,936,l)
);
}
);
width = 1024;
},
{
layerId = "EE85CFF4-71C8-4DB0-B443-69364CCEBDFC";
shapes = (
{
closed = 1;
nodes = (
(468,389,l),
(529,221,l),
(586,392,l),
(804,915,l),
(979,915,l),
(552,-20,l),
(482,-20,l),
(46,915,l),
(234,915,l)
);
}
);
width = 1024;
},
{
layerId = "52A4F8C9-22CB-40B3-89C9-4EF9D272773E";
shapes = (
{
closed = 1;
nodes = (
(456,348,l),
(529,153,l),
(593,351,l),
(835,904,l),
(963,904,l),
(531,-26,l),
(498,-26,l),
(62,904,l),
(198,904,l)
);
}
);
width = 1024;
}
);
unicode = 118;
},
{
glyphname = w;
layers = (
{
layerId = "C6F19E25-0F49-451F-AEE1-A003FA0ED529";
shapes = (
{
closed = 1;
nodes = (
(874,950,l),
(943,737,l),
(1017,524,l),
(1050,418,l),
(1054,418,l),
(1077,523,l),
(1188,950,l),
(1466,950,l),
(1183,0,l),
(941,0,l),
(774,413,l),
(743,482,l),
(712,409,l),
(558,0,l),
(298,0,l),
(8,950,l),
(343,950,l),
(441,558,l),
(477,429,l),
(476,429,l),
(515,560,l),
(649,950,l)
);
}
);
width = 1479;
},
{
layerId = "EDE6E634-030B-4ED7-B889-69990611018D";
shapes = (
{
closed = 1;
nodes = (
(852,936,l),
(950,670,l),
(1024,471,l),
(1063,345,l),
(1070,345,l),
(1100,473,l),
(1231,936,l),
(1459,936,l),
(1160,-8,l),
(980,-8,l),
(781,476,l),
(744,577,l),
(705,474,l),
(518,-8,l),
(329,-8,l),
(20,936,l),
(291,936,l),
(424,494,l),
(459,351,l),
(465,351,l),
(507,496,l),
(668,936,l)
);
}
);
width = 1479;
},
{
layerId = "EE85CFF4-71C8-4DB0-B443-69364CCEBDFC";
shapes = (
{
closed = 1;
nodes = (
(819,915,l),
(960,569,l),
(1035,392,l),
(1083,236,l),
(1094,236,l),
(1134,398,l),
(1295,915,l),
(1448,915,l),
(1125,-20,l),
(1038,-20,l),
(792,571,l),
(746,719,l),
(694,571,l),
(458,-20,l),
(375,-20,l),
(38,915,l),
(213,915,l),
(398,398,l),
(432,234,l),
(448,234,l),
(495,400,l),
(696,915,l)
);
}
);
width = 1479;
},
{
layerId = "52A4F8C9-22CB-40B3-89C9-4EF9D272773E";
shapes = (
{
closed = 1;
nodes = (
(802,904,l),
(965,518,l),
(1021,352,l),
(1073,181,l),
(1086,181,l),
(1131,360,l),
(1327,904,l),
(1442,904,l),
(1107,-26,l),
(1067,-26,l),
(804,619,l),
(753,790,l),
(694,620,l),
(428,-26,l),
(398,-26,l),
(47,904,l),
(174,904,l),
(365,350,l),
(398,175,l),
(419,175,l),
(469,352,l),
(710,904,l)
);
}
);
width = 1479;
}
);
unicode = 119;
},
{
glyphname = x;
layers = (
{
layerId = "C6F19E25-0F49-451F-AEE1-A003FA0ED529";
shapes = (
{
closed = 1;
nodes = (
(286,486,l),
(38,950,l),
(405,950,l),
(446,818,l),
(531,655,l),
(610,818,l),
(658,950,l),
(994,950,l),
(744,494,l),
(1003,0,l),
(643,0,l),
(584,162,l),
(504,318,l),
(418,166,l),
(356,0,l),
(21,0,l)
);
}
);
width = 1024;
},
{
layerId = "EDE6E634-030B-4ED7-B889-69990611018D";
shapes = (
{
closed = 1;
nodes = (
(333,479,l),
(44,936,l),
(346,936,l),
(450,755,l),
(525,620,l),
(601,755,l),
(712,936,l),
(986,936,l),
(695,487,l),
(1000,0,l),
(705,0,l),
(581,209,l),
(505,343,l),
(425,211,l),
(299,0,l),
(24,0,l)
);
}
);
width = 1024;
},
{
layerId = "EE85CFF4-71C8-4DB0-B443-69364CCEBDFC";
shapes = (
{
closed = 1;
nodes = (
(403,469,l),
(53,915,l),
(258,915,l),
(456,661,l),
(516,567,l),
(587,661,l),
(793,915,l),
(974,915,l),
(621,476,l),
(996,0,l),
(798,0,l),
(577,279,l),
(507,381,l),
(436,279,l),
(214,0,l),
(29,0,l)
);
}
);
width = 1024;
},
{
layerId = "52A4F8C9-22CB-40B3-89C9-4EF9D272773E";
shapes = (
{
closed = 1;
nodes = (
(438,464,l),
(58,904,l),
(214,904,l),
(459,614,l),
(511,540,l),
(580,614,l),
(834,904,l),
(968,904,l),
(584,470,l),
(994,0,l),
(845,0,l),
(575,314,l),
(508,400,l),
(442,313,l),
(171,0,l),
(32,0,l)
);
}
);
width = 1024;
}
);
unicode = 120;
},
{
glyphname = y;
layers = (
{
layerId = "C6F19E25-0F49-451F-AEE1-A003FA0ED529";
shapes = (
{
closed = 1;
nodes = (
(534,527,l),
(562,420,l),
(561,420,l),
(582,527,l),
(701,950,l),
(1019,950,l),
(725,89,l),
(647,-138,o),
(578,-385,o),
(289,-385,cs),
(246,-385,o),
(156,-372,o),
(69,-319,c),
(127,-91,l),
(194,-124,o),
(250,-122,o),
(253,-122,c),
(370,-119,o),
(402,-81,o),
(429,23,c),
(13,950,l),
(387,950,l)
);
}
);
width = 1024;
},
{
layerId = "EDE6E634-030B-4ED7-B889-69990611018D";
shapes = (
{
closed = 1;
nodes = (
(515,451,l),
(556,321,l),
(561,321,l),
(592,451,l),
(748,936,l),
(1004,936,l),
(700,88,ls),
(628,-113,o),
(545,-388,o),
(286,-388,cs),
(225,-388,o),
(142,-367,o),
(78,-320,c),
(137,-140,l),
(185,-167,o),
(239,-173,o),
(259,-173,cs),
(374,-173,o),
(418,-85,o),
(447,12,c),
(25,936,l),
(326,936,l)
);
}
);
width = 1024;
},
{
layerId = "EE85CFF4-71C8-4DB0-B443-69364CCEBDFC";
shapes = (
{
closed = 1;
nodes = (
(487,337,l),
(547,173,l),
(561,173,l),
(607,337,l),
(818,915,l),
(981,915,l),
(662,86,ls),
(600,-76,o),
(496,-393,o),
(281,-393,cs),
(193,-393,o),
(121,-360,o),
(92,-321,c),
(152,-213,l),
(171,-232,o),
(223,-250,o),
(268,-250,c),
(380,-254,o),
(442,-91,o),
(474,-5,c),
(43,915,l),
(234,915,l)
);
}
);
width = 1024;
},
{
layerId = "52A4F8C9-22CB-40B3-89C9-4EF9D272773E";
shapes = (
{
closed = 1;
nodes = (
(473,280,l),
(542,99,l),
(561,99,l),
(615,280,l),
(853,904,l),
(969,904,l),
(643,85,ls),
(586,-57,o),
(471,-396,o),
(278,-396,cs),
(177,-396,o),
(110,-356,o),
(99,-322,c),
(160,-250,l),
(164,-265,o),
(215,-289,o),
(273,-289,c),
(383,-295,o),
(454,-94,o),
(488,-14,c),
(52,904,l),
(188,904,l)
);
}
);
width = 1024;
}
);
unicode = 121;
},
{
glyphname = z;
layers = (
{
layerId = "C6F19E25-0F49-451F-AEE1-A003FA0ED529";
shapes = (
{
closed = 1;
nodes = (
(65,263,l),
(383,585,l),
(506,695,l),
(107,695,l),
(107,950,l),
(845,950,l),
(845,687,l),
(543,359,l),
(416,258,l),
(845,258,l),
(845,0,l),
(65,0,l)
);
}
);
width = 909;
},
{
layerId = "EDE6E634-030B-4ED7-B889-69990611018D";
shapes = (
{
closed = 1;
nodes = (
(69,213,l),
(456,626,l),
(571,728,l),
(94,728,l),
(94,936,l),
(841,936,l),
(841,723,l),
(461,304,l),
(345,209,l),
(841,209,l),
(841,0,l),
(69,0,l)
);
}
);
width = 909;
},
{
layerId = "EE85CFF4-71C8-4DB0-B443-69364CCEBDFC";
shapes = (
{
closed = 1;
nodes = (
(75,138,l),
(566,688,l),
(668,778,l),
(75,778,l),
(75,915,l),
(835,915,l),
(835,777,l),
(338,221,l),
(238,136,l),
(835,136,l),
(835,0,l),
(75,0,l)
);
}
);
width = 909;
},
{
layerId = "52A4F8C9-22CB-40B3-89C9-4EF9D272773E";
shapes = (
{
closed = 1;
nodes = (
(78,100,l),
(621,719,l),
(717,803,l),
(65,803,l),
(65,904,l),
(832,904,l),
(832,804,l),
(276,179,l),
(184,99,l),
(832,99,l),
(832,0,l),
(78,0,l)
);
}
);
width = 909;
}
);
unicode = 122;
},
{
glyphname = braceleft;
layers = (
{
layerId = "C6F19E25-0F49-451F-AEE1-A003FA0ED529";
shapes = (
{
closed = 1;
nodes = (
(186,161,l),
(189,273,o),
(146,334,o),
(18,334,c),
(18,577,l),
(126,577,o),
(186,628,o),
(186,741,cs),
(186,1097,l),
(189,1256,o),
(260,1358,o),
(423,1358,cs),
(712,1358,l),
(712,1083,l),
(608,1083,ls),
(533,1083,o),
(502,1051,o),
(502,966,cs),
(502,652,l),
(506,560,o),
(449,484,o),
(354,470,c),
(354,448,l),
(452,436,o),
(502,350,o),
(502,258,cs),
(502,-53,ls),
(502,-134,o),
(535,-170,o),
(610,-170,cs),
(712,-170,l),
(712,-445,l),
(423,-445,ls),
(267,-445,o),
(186,-349,o),
(186,-185,cs)
);
}
);
width = 690;
},
{
layerId = "EDE6E634-030B-4ED7-B889-69990611018D";
shapes = (
{
closed = 1;
nodes = (
(262,180,l),
(264,300,o),
(214,353,o),
(94,353,c),
(94,558,l),
(202,558,o),
(262,609,o),
(262,722,cs),
(262,1116,l),
(264,1261,o),
(333,1358,o),
(486,1358,cs),
(737,1358,l),
(737,1131,l),
(631,1131,ls),
(556,1131,o),
(523,1096,o),
(523,1013,cs),
(523,651,l),
(525,557,o),
(470,484,o),
(375,469,c),
(375,449,l),
(470,437,o),
(523,349,o),
(523,259,cs),
(523,-100,ls),
(523,-181,o),
(556,-218,o),
(633,-218,cs),
(737,-218,l),
(737,-445,l),
(486,-445,ls),
(341,-445,o),
(262,-358,o),
(262,-205,cs)
);
}
);
width = 807;
},
{
layerId = "EE85CFF4-71C8-4DB0-B443-69364CCEBDFC";
shapes = (
{
closed = 1;
nodes = (
(376,209,ls),
(376,341,o),
(316,381,o),
(208,381,c),
(208,529,l),
(316,529,o),
(376,580,o),
(376,693,cs),
(376,1144,ls),
(376,1268,o),
(443,1358,o),
(580,1358,cs),
(774,1358,l),
(774,1203,l),
(665,1203,ls),
(591,1203,o),
(554,1163,o),
(554,1083,cs),
(554,649,ls),
(554,553,o),
(501,484,o),
(406,467,c),
(406,451,l),
(497,438,o),
(554,347,o),
(554,261,cs),
(554,-170,ls),
(554,-251,o),
(587,-290,o),
(667,-290,cs),
(774,-290,l),
(774,-445,l),
(580,-445,ls),
(452,-445,o),
(376,-372,o),
(376,-235,cs)
);
}
);
width = 983;
},
{
layerId = "52A4F8C9-22CB-40B3-89C9-4EF9D272773E";
shapes = (
{
closed = 1;
nodes = (
(433,224,l),
(432,362,o),
(367,395,o),
(265,395,c),
(265,514,l),
(373,514,o),
(433,565,o),
(433,678,cs),
(433,1158,l),
(432,1272,o),
(498,1358,o),
(627,1358,cs),
(793,1358,l),
(793,1239,l),
(682,1239,ls),
(609,1239,o),
(570,1197,o),
(570,1118,cs),
(570,648,l),
(569,551,o),
(517,484,o),
(422,466,c),
(422,452,l),
(511,439,o),
(570,346,o),
(570,262,cs),
(570,-205,ls),
(570,-286,o),
(603,-326,o),
(684,-326,cs),
(793,-326,l),
(793,-445,l),
(627,-445,ls),
(508,-445,o),
(433,-379,o),
(433,-250,cs)
);
}
);
width = 1072;
}
);
unicode = 123;
},
{
glyphname = bar;
layers = (
{
layerId = "C6F19E25-0F49-451F-AEE1-A003FA0ED529";
shapes = (
{
closed = 1;
nodes = (
(104,1356,l),
(375,1356,l),
(375,-125,l),
(104,-125,l)
);
}
);
width = 478;
},
{
layerId = "EDE6E634-030B-4ED7-B889-69990611018D";
shapes = (
{
closed = 1;
nodes = (
(113,1356,l),
(338,1356,l),
(338,-252,l),
(113,-252,l)
);
}
);
width = 451;
},
{
layerId = "EE85CFF4-71C8-4DB0-B443-69364CCEBDFC";
shapes = (
{
closed = 1;
nodes = (
(127,1356,l),
(282,1356,l),
(282,-442,l),
(127,-442,l)
);
}
);
width = 410;
},
{
layerId = "52A4F8C9-22CB-40B3-89C9-4EF9D272773E";
shapes = (
{
closed = 1;
nodes = (
(134,1356,l),
(254,1356,l),
(254,-538,l),
(134,-538,l)
);
}
);
width = 389;
}
);
unicode = 124;
},
{
glyphname = braceright;
layers = (
{
layerId = "C6F19E25-0F49-451F-AEE1-A003FA0ED529";
shapes = (
{
closed = 1;
nodes = (
(506,751,l),
(510,643,o),
(545,580,o),
(672,580,c),
(672,336,l),
(565,336,o),
(506,282,o),
(506,171,cs),
(506,-180,l),
(510,-336,o),
(422,-445,o),
(260,-445,cs),
(-22,-445,l),
(-22,-170,l),
(82,-170,ls),
(158,-170,o),
(192,-140,o),
(192,-53,cs),
(192,259,l),
(195,357,o),
(239,427,o),
(339,442,c),
(339,463,l),
(248,479,o),
(192,564,o),
(192,653,cs),
(192,966,ls),
(192,1046,o),
(164,1083,o),
(80,1083,cs),
(-22,1083,l),
(-22,1358,l),
(268,1358,ls),
(428,1358,o),
(506,1256,o),
(506,1096,cs)
);
}
);
width = 690;
},
{
layerId = "EDE6E634-030B-4ED7-B889-69990611018D";
shapes = (
{
closed = 1;
nodes = (
(545,732,l),
(547,614,o),
(593,560,o),
(713,560,c),
(713,355,l),
(605,355,o),
(545,303,o),
(545,190,cs),
(545,-201,l),
(547,-347,o),
(464,-445,o),
(314,-445,cs),
(70,-445,l),
(70,-218,l),
(175,-218,ls),
(250,-218,o),
(285,-184,o),
(285,-100,cs),
(285,261,l),
(287,357,o),
(334,428,o),
(432,443,c),
(432,462,l),
(340,477,o),
(285,563,o),
(285,652,cs),
(285,1013,ls),
(285,1093,o),
(253,1131,o),
(173,1131,cs),
(70,1131,l),
(70,1358,l),
(320,1358,ls),
(467,1358,o),
(545,1267,o),
(545,1116,cs)
);
}
);
width = 807;
},
{
layerId = "EE85CFF4-71C8-4DB0-B443-69364CCEBDFC";
shapes = (
{
closed = 1;
nodes = (
(603,703,ls),
(603,571,o),
(665,530,o),
(774,530,c),
(774,384,l),
(665,384,o),
(603,334,o),
(603,218,cs),
(603,-233,ls),
(603,-364,o),
(527,-445,o),
(395,-445,cs),
(208,-445,l),
(208,-290,l),
(314,-290,ls),
(388,-290,o),
(425,-250,o),
(425,-170,cs),
(425,264,ls),
(425,357,o),
(477,430,o),
(572,445,c),
(572,461,l),
(478,474,o),
(425,562,o),
(425,651,cs),
(425,1083,ls),
(425,1163,o),
(387,1203,o),
(312,1203,cs),
(208,1203,l),
(208,1358,l),
(398,1358,ls),
(526,1358,o),
(603,1283,o),
(603,1146,cs)
);
}
);
width = 983;
},
{
layerId = "52A4F8C9-22CB-40B3-89C9-4EF9D272773E";
shapes = (
{
closed = 1;
nodes = (
(632,688,l),
(631,549,o),
(701,515,o),
(805,515,c),
(805,399,l),
(695,399,o),
(632,350,o),
(632,232,cs),
(632,-249,l),
(631,-373,o),
(559,-445,o),
(436,-445,cs),
(277,-445,l),
(277,-326,l),
(384,-326,ls),
(457,-326,o),
(495,-283,o),
(495,-205,cs),
(495,266,l),
(494,357,o),
(549,431,o),
(642,446,c),
(642,460,l),
(547,472,o),
(495,561,o),
(495,650,cs),
(495,1118,ls),
(495,1198,o),
(454,1239,o),
(382,1239,cs),
(277,1239,l),
(277,1358,l),
(437,1358,ls),
(556,1358,o),
(632,1291,o),
(632,1161,cs)
);
}
);
width = 1072;
}
);
unicode = 125;
},
{
glyphname = asciitilde;
layers = (
{
layerId = "C6F19E25-0F49-451F-AEE1-A003FA0ED529";
shapes = (
{
closed = 1;
nodes = (
(8,755,l),
(145,858,o),
(252,898,o),
(345,898,cs),
(426,898,o),
(497,872,o),
(564,846,cs),
(628,820,o),
(689,792,o),
(758,792,cs),
(808,792,o),
(859,807,o),
(914,844,c),
(1031,587,l),
(934,512,o),
(851,490,o),
(777,490,cs),
(700,490,o),
(630,519,o),
(564,550,cs),
(495,582,o),
(430,609,o),
(357,609,cs),
(285,609,o),
(203,587,o),
(114,506,c)
);
}
);
width = 1036;
},
{
layerId = "EDE6E634-030B-4ED7-B889-69990611018D";
shapes = (
{
closed = 1;
nodes = (
(38,736,l),
(170,833,o),
(272,868,o),
(361,868,cs),
(441,868,o),
(510,842,o),
(575,816,cs),
(639,790,o),
(699,763,o),
(766,763,cs),
(817,763,o),
(869,778,o),
(929,821,c),
(1028,612,l),
(927,540,o),
(846,517,o),
(774,517,cs),
(697,517,o),
(631,545,o),
(567,575,cs),
(502,605,o),
(439,632,o),
(368,632,cs),
(299,632,o),
(221,608,o),
(129,532,c)
);
}
);
width = 1065;
},
{
layerId = "EE85CFF4-71C8-4DB0-B443-69364CCEBDFC";
shapes = (
{
closed = 1;
nodes = (
(83,707,l),
(207,795,o),
(302,823,o),
(385,823,cs),
(464,823,o),
(529,797,o),
(592,771,cs),
(655,745,o),
(714,719,o),
(778,719,cs),
(830,719,o),
(884,735,o),
(952,786,c),
(1024,649,l),
(917,582,o),
(838,558,o),
(769,558,cs),
(693,558,o),
(632,584,o),
(572,612,cs),
(512,639,o),
(453,667,o),
(385,667,cs),
(320,667,o),
(248,640,o),
(152,571,c)
);
}
);
width = 1108;
},
{
layerId = "52A4F8C9-22CB-40B3-89C9-4EF9D272773E";
shapes = (
{
closed = 1;
nodes = (
(106,692,l),
(226,776,o),
(317,800,o),
(397,800,cs),
(476,800,o),
(539,774,o),
(601,748,cs),
(663,722,o),
(722,697,o),
(784,697,cs),
(837,697,o),
(892,713,o),
(964,768,c),
(1022,668,l),
(912,603,o),
(834,579,o),
(766,579,cs),
(691,579,o),
(633,604,o),
(575,631,c),
(517,656,o),
(460,685,o),
(394,685,cs),
(331,685,o),
(262,656,o),
(164,591,c)
);
}
);
width = 1130;
}
);
unicode = 126;
},
{
glyphname = exclamdown;
layers = (
{
layerId = "C6F19E25-0F49-451F-AEE1-A003FA0ED529";
shapes = (
{
closed = 1;
nodes = (
(541,-388,l),
(198,-388,l),
(198,225,l),
(262,522,l),
(472,522,l),
(541,225,l)
);
},
{
closed = 1;
nodes = (
(184,907,o),
(264,971,o),
(378,971,cs),
(500,971,o),
(577,907,o),
(577,798,cs),
(577,746,o),
(560,704,o),
(523,672,c),
(488,639,o),
(438,624,o),
(378,624,cs),
(320,624,o),
(275,639,o),
(239,672,cs),
(203,704,o),
(184,746,o),
(184,798,cs)
);
}
);
width = 682;
},
{
layerId = "EDE6E634-030B-4ED7-B889-69990611018D";
shapes = (
{
closed = 1;
nodes = (
(477,-388,l),
(194,-388,l),
(194,246,l),
(248,558,l),
(420,558,l),
(477,246,l)
);
},
{
closed = 1;
nodes = (
(171,933,o),
(239,990,o),
(339,990,cs),
(443,990,o),
(510,933,o),
(510,837,cs),
(510,792,o),
(495,755,o),
(464,727,cs),
(433,698,o),
(391,684,o),
(339,684,cs),
(289,684,o),
(249,698,o),
(218,727,cs),
(187,755,o),
(171,792,o),
(171,837,cs)
);
}
);
width = 682;
},
{
layerId = "EE85CFF4-71C8-4DB0-B443-69364CCEBDFC";
shapes = (
{
closed = 1;
nodes = (
(381,-388,l),
(188,-388,l),
(188,277,l),
(227,612,l),
(342,612,l),
(381,277,l)
);
},
{
closed = 1;
nodes = (
(151,972,o),
(202,1018,o),
(281,1018,cs),
(358,1018,o),
(410,972,o),
(410,896,cs),
(410,861,o),
(398,832,o),
(375,809,cs),
(351,786,o),
(320,774,o),
(281,774,cs),
(242,774,o),
(210,786,o),
(187,809,cs),
(163,832,o),
(151,861,o),
(151,896,cs)
);
}
);
width = 682;
},
{
layerId = "52A4F8C9-22CB-40B3-89C9-4EF9D272773E";
shapes = (
{
closed = 1;
nodes = (
(333,-388,l),
(185,-388,l),
(185,293,l),
(216,639,l),
(303,639,l),
(333,293,l)
);
},
{
closed = 1;
nodes = (
(141,992,o),
(183,1032,o),
(252,1032,cs),
(315,1032,o),
(360,992,o),
(360,926,cs),
(360,896,o),
(349,871,o),
(330,850,c),
(310,830,o),
(284,819,o),
(252,819,cs),
(218,819,o),
(190,830,o),
(171,850,cs),
(151,871,o),
(141,896,o),
(141,926,cs)
);
}
);
width = 682;
}
);
unicode = 161;
},
{
glyphname = cent;
layers = (
{
layerId = "C6F19E25-0F49-451F-AEE1-A003FA0ED529";
shapes = (
{
closed = 1;
nodes = (
(927,56,l),
(891,29,o),
(836,8,o),
(768,-5,c),
(768,-173,l),
(473,-173,l),
(473,-19,l),
(214,26,o),
(122,190,o),
(122,438,cs),
(122,695,o),
(242,851,o),
(473,891,c),
(473,1050,l),
(768,1050,l),
(768,889,l),
(831,879,o),
(878,863,o),
(916,843,c),
(847,590,l),
(820,594,o),
(796,608,o),
(762,613,c),
(762,262,l),
(809,277,o),
(836,285,o),
(857,295,c)
);
},
{
closed = 1;
nodes = (
(532,609,l),
(464,583,o),
(431,539,o),
(431,438,c),
(435,359,o),
(461,305,o),
(532,275,c)
);
}
);
width = 1024;
},
{
layerId = "EDE6E634-030B-4ED7-B889-69990611018D";
shapes = (
{
closed = 1;
nodes = (
(910,57,l),
(863,26,o),
(796,3,o),
(720,-10,c),
(720,-178,l),
(488,-178,l),
(488,-20,l),
(225,15,o),
(127,189,o),
(127,445,cs),
(127,712,o),
(252,873,o),
(488,908,c),
(488,1069,l),
(720,1069,l),
(720,908,l),
(793,900,o),
(849,883,o),
(896,860,c),
(836,656,l),
(797,669,o),
(756,683,o),
(711,688,c),
(711,201,l),
(771,212,o),
(815,228,o),
(850,247,c)
);
},
{
closed = 1;
nodes = (
(531,684,l),
(427,660,o),
(376,588,o),
(376,445,c),
(378,336,o),
(419,243,o),
(531,211,c)
);
}
);
width = 1024;
},
{
layerId = "EE85CFF4-71C8-4DB0-B443-69364CCEBDFC";
shapes = (
{
closed = 1;
nodes = (
(884,59,l),
(821,22,o),
(736,-5,o),
(648,-17,c),
(648,-186,l),
(510,-186,l),
(510,-22,l),
(242,-1,o),
(135,187,o),
(135,455,cs),
(135,738,o),
(267,906,o),
(510,934,c),
(510,1098,l),
(648,1098,l),
(648,936,l),
(736,931,o),
(806,913,o),
(866,886,c),
(819,755,l),
(763,782,o),
(696,795,o),
(635,800,c),
(635,110,l),
(714,114,o),
(784,143,o),
(839,175,c)
);
},
{
closed = 1;
nodes = (
(529,796,l),
(372,775,o),
(293,662,o),
(293,455,cs),
(293,302,o),
(356,150,o),
(529,115,c)
);
}
);
width = 1024;
},
{
layerId = "52A4F8C9-22CB-40B3-89C9-4EF9D272773E";
shapes = (
{
closed = 1;
nodes = (
(871,60,l),
(800,20,o),
(706,-9,o),
(612,-21,c),
(612,-190,l),
(521,-190,l),
(521,-23,l),
(251,-9,o),
(139,186,o),
(139,460,cs),
(139,751,o),
(275,923,o),
(521,947,c),
(521,1113,l),
(612,1113,l),
(612,950,l),
(707,947,o),
(784,928,o),
(851,899,c),
(810,805,l),
(746,839,o),
(666,851,o),
(597,856,c),
(597,64,l),
(685,65,o),
(768,100,o),
(833,139,c)
);
},
{
closed = 1;
nodes = (
(528,852,l),
(344,833,o),
(251,699,o),
(251,460,c),
(250,285,o),
(324,103,o),
(528,67,c)
);
}
);
width = 1024;
}
);
unicode = 162;
},
{
glyphname = sterling;
layers = (
{
layerId = "C6F19E25-0F49-451F-AEE1-A003FA0ED529";
shapes = (
{
closed = 1;
nodes = (
(53,782,l),
(226,782,l),
(201,821,o),
(163,905,o),
(163,1008,cs),
(163,1227,o),
(329,1383,o),
(588,1383,cs),
(754,1383,o),
(845,1330,o),
(931,1284,c),
(822,984,l),
(741,1031,o),
(680,1069,o),
(632,1069,cs),
(518,1069,o),
(493,1023,o),
(493,938,cs),
(493,874,o),
(546,797,o),
(572,782,c),
(819,782,l),
(819,518,l),
(666,518,l),
(656,525,o),
(651,536,o),
(651,551,c),
(651,461,o),
(620,375,o),
(554,317,c),
(474,266,l),
(474,258,l),
(609,291,l),
(957,291,l),
(957,0,l),
(69,0,l),
(69,291,l),
(191,296,o),
(314,329,o),
(314,503,c),
(314,497,o),
(321,504,o),
(323,518,c),
(53,518,l)
);
}
);
width = 1024;
},
{
layerId = "EDE6E634-030B-4ED7-B889-69990611018D";
shapes = (
{
closed = 1;
nodes = (
(50,767,l),
(210,767,l),
(182,818,o),
(148,897,o),
(148,1001,cs),
(148,1232,o),
(318,1382,o),
(582,1382,cs),
(751,1382,o),
(858,1337,o),
(943,1295,c),
(854,1049,l),
(782,1090,o),
(701,1127,o),
(609,1127,cs),
(486,1127,o),
(424,1072,o),
(424,961,cs),
(424,884,o),
(469,810,o),
(501,767,c),
(782,767,l),
(782,547,l),
(587,547,l),
(587,532,o),
(589,517,o),
(589,501,cs),
(589,416,o),
(559,330,o),
(499,273,c),
(420,218,l),
(420,209,l),
(550,240,l),
(974,240,l),
(974,0,l),
(60,0,l),
(60,240,l),
(204,245,o),
(310,311,o),
(310,465,cs),
(310,490,o),
(307,518,o),
(300,547,c),
(50,547,l)
);
}
);
width = 1024;
},
{
layerId = "EE85CFF4-71C8-4DB0-B443-69364CCEBDFC";
shapes = (
{
closed = 1;
nodes = (
(46,745,l),
(186,745,l),
(153,813,o),
(126,885,o),
(126,990,cs),
(126,1240,o),
(302,1381,o),
(573,1381,cs),
(746,1381,o),
(877,1347,o),
(961,1311,c),
(902,1146,l),
(843,1178,o),
(732,1214,o),
(575,1214,cs),
(438,1214,o),
(320,1145,o),
(320,996,cs),
(320,899,o),
(353,830,o),
(395,745,c),
(726,745,l),
(726,591,l),
(469,591,l),
(484,542,o),
(496,489,o),
(496,426,cs),
(496,349,o),
(468,262,o),
(416,207,c),
(339,146,l),
(339,135,l),
(462,163,l),
(1000,163,l),
(1000,0,l),
(46,0,l),
(46,163,l),
(224,168,o),
(304,284,o),
(304,408,cs),
(304,480,o),
(286,539,o),
(266,591,c),
(46,591,l)
);
}
);
width = 1024;
},
{
layerId = "52A4F8C9-22CB-40B3-89C9-4EF9D272773E";
shapes = (
{
closed = 1;
nodes = (
(44,734,l),
(174,734,l),
(138,810,o),
(115,879,o),
(115,984,cs),
(115,1244,o),
(294,1380,o),
(568,1380,cs),
(743,1380,o),
(887,1352,o),
(970,1319,c),
(926,1195,l),
(874,1222,o),
(748,1258,o),
(558,1258,cs),
(414,1258,o),
(268,1182,o),
(268,1014,cs),
(268,907,o),
(295,840,o),
(342,734,c),
(698,734,l),
(698,613,l),
(410,613,l),
(432,547,o),
(449,475,o),
(449,388,cs),
(449,315,o),
(422,228,o),
(374,174,c),
(298,110,l),
(298,98,l),
(418,124,l),
(1013,124,l),
(1013,0,l),
(39,0,l),
(39,124,l),
(234,129,o),
(301,270,o),
(301,379,cs),
(301,475,o),
(275,550,o),
(249,613,c),
(44,613,l)
);
}
);
width = 1024;
}
);
unicode = 163;
},
{
glyphname = currency;
layers = (
{
layerId = "C6F19E25-0F49-451F-AEE1-A003FA0ED529";
shapes = (
{
closed = 1;
nodes = (
(186,1193,l),
(286,1090,l),
(317,1017,l),
(370,1052,o),
(428,1071,o),
(504,1071,cs),
(578,1071,o),
(648,1051,o),
(696,1017,c),
(730,1090,l),
(842,1196,l),
(1030,999,l),
(920,889,l),
(845,870,l),
(880,813,o),
(890,741,o),
(890,669,cs),
(890,588,o),
(876,518,o),
(845,474,c),
(920,449,l),
(1007,363,l),
(818,170,l),
(730,254,l),
(701,326,l),
(654,289,o),
(580,272,o),
(504,272,cs),
(432,272,o),
(368,290,o),
(317,326,c),
(286,254,l),
(199,164,l),
(9,356,l),
(95,449,l),
(168,481,l),
(147,528,o),
(126,586,o),
(126,669,cs),
(126,742,o),
(146,803,o),
(175,863,c),
(95,893,l),
(-4,999,l)
);
},
{
closed = 1;
nodes = (
(392,594,o),
(438,533,o),
(508,533,c),
(586,531,o),
(623,592,o),
(623,669,c),
(621,748,o),
(580,810,o),
(508,810,c),
(432,809,o),
(392,735,o),
(392,669,cs)
);
}
);
width = 1024;
},
{
layerId = "EDE6E634-030B-4ED7-B889-69990611018D";
shapes = (
{
closed = 1;
nodes = (
(159,1182,l),
(279,1061,l),
(314,990,l),
(367,1027,o),
(431,1046,o),
(507,1046,cs),
(583,1046,o),
(651,1026,o),
(702,990,c),
(739,1061,l),
(867,1184,l),
(1022,1022,l),
(896,896,l),
(824,868,l),
(861,812,o),
(875,742,o),
(875,669,cs),
(875,589,o),
(859,520,o),
(824,473,c),
(896,442,l),
(1008,330,l),
(853,171,l),
(739,281,l),
(706,351,l),
(657,314,o),
(583,294,o),
(507,294,cs),
(432,294,o),
(367,313,o),
(314,351,c),
(279,281,l),
(167,167,l),
(11,326,l),
(122,442,l),
(192,477,l),
(164,528,o),
(144,589,o),
(144,669,cs),
(144,742,o),
(165,805,o),
(196,865,c),
(122,898,l),
(3,1022,l)
);
},
{
closed = 1;
nodes = (
(364,579,o),
(421,508,o),
(509,508,cs),
(602,508,o),
(654,577,o),
(654,669,cs),
(654,761,o),
(597,832,o),
(509,832,cs),
(418,832,o),
(364,753,o),
(364,669,cs)
);
}
);
width = 1024;
},
{
layerId = "EE85CFF4-71C8-4DB0-B443-69364CCEBDFC";
shapes = (
{
closed = 1;
nodes = (
(119,1166,l),
(269,1017,l),
(310,949,l),
(363,990,o),
(435,1009,o),
(511,1009,cs),
(590,1009,o),
(656,989,o),
(711,949,c),
(753,1017,l),
(905,1166,l),
(1010,1057,l),
(860,906,l),
(792,865,l),
(833,810,o),
(853,744,o),
(853,669,cs),
(853,590,o),
(833,523,o),
(792,471,c),
(860,432,l),
(1010,281,l),
(905,172,l),
(753,322,l),
(713,388,l),
(661,351,o),
(587,327,o),
(511,327,cs),
(432,327,o),
(365,347,o),
(310,388,c),
(269,322,l),
(119,172,l),
(14,281,l),
(163,432,l),
(228,471,l),
(190,528,o),
(171,594,o),
(171,669,cs),
(171,742,o),
(193,808,o),
(228,868,c),
(163,906,l),
(14,1057,l)
);
},
{
closed = 1;
nodes = (
(322,556,o),
(395,471,o),
(511,471,c),
(626,473,o),
(701,555,o),
(701,669,c),
(703,780,o),
(623,865,o),
(511,865,c),
(397,867,o),
(322,780,o),
(322,669,cs)
);
}
);
width = 1024;
},
{
layerId = "52A4F8C9-22CB-40B3-89C9-4EF9D272773E";
shapes = (
{
closed = 1;
nodes = (
(99,1158,l),
(264,995,l),
(308,928,l),
(361,971,o),
(437,990,o),
(513,990,cs),
(594,990,o),
(659,970,o),
(716,928,c),
(760,995,l),
(924,1157,l),
(1004,1075,l),
(842,911,l),
(776,863,l),
(819,809,o),
(842,745,o),
(842,669,cs),
(842,591,o),
(820,525,o),
(776,470,c),
(842,427,l),
(1011,256,l),
(931,173,l),
(760,343,l),
(717,407,l),
(663,370,o),
(589,344,o),
(513,344,cs),
(432,344,o),
(364,364,o),
(308,407,c),
(264,343,l),
(95,175,l),
(16,258,l),
(184,427,l),
(246,468,l),
(203,528,o),
(185,597,o),
(185,669,cs),
(185,742,o),
(207,810,o),
(244,870,c),
(184,910,l),
(20,1075,l)
);
},
{
closed = 1;
nodes = (
(301,544,o),
(382,452,o),
(512,452,c),
(638,455,o),
(725,544,o),
(725,669,c),
(728,790,o),
(636,882,o),
(512,882,c),
(386,885,o),
(301,794,o),
(301,669,cs)
);
}
);
width = 1024;
}
);
unicode = 164;
},
{
glyphname = yen;
layers = (
{
layerId = "C6F19E25-0F49-451F-AEE1-A003FA0ED529";
shapes = (
{
closed = 1;
nodes = (
(26,663,l),
(251,663,l),
(25,1356,l),
(377,1356,l),
(443,1038,l),
(493,894,l),
(507,894,l),
(559,1036,l),
(630,1356,l),
(999,1356,l),
(744,663,l),
(941,663,l),
(941,446,l),
(658,446,l),
(658,352,l),
(941,352,l),
(941,134,l),
(658,134,l),
(658,0,l),
(309,0,l),
(309,134,l),
(26,134,l),
(26,352,l),
(309,352,l),
(309,446,l),
(26,446,l)
);
}
);
width = 1024;
},
{
layerId = "EDE6E634-030B-4ED7-B889-69990611018D";
shapes = (
{
closed = 1;
nodes = (
(78,654,l),
(292,654,l),
(10,1356,l),
(312,1356,l),
(459,935,l),
(506,799,l),
(516,799,l),
(563,935,l),
(710,1356,l),
(1014,1356,l),
(717,654,l),
(915,654,l),
(915,473,l),
(640,473,l),
(640,360,l),
(915,360,l),
(915,178,l),
(640,178,l),
(640,0,l),
(353,0,l),
(353,178,l),
(78,178,l),
(78,360,l),
(353,360,l),
(353,473,l),
(78,473,l)
);
}
);
width = 1024;
},
{
layerId = "EE85CFF4-71C8-4DB0-B443-69364CCEBDFC";
shapes = (
{
closed = 1;
nodes = (
(156,641,l),
(353,641,l),
(-12,1356,l),
(214,1356,l),
(483,780,l),
(526,656,l),
(530,656,l),
(569,784,l),
(830,1356,l),
(1036,1356,l),
(677,641,l),
(876,641,l),
(876,513,l),
(613,513,l),
(613,372,l),
(876,372,l),
(876,244,l),
(613,244,l),
(613,0,l),
(419,0,l),
(419,244,l),
(156,244,l),
(156,372,l),
(419,372,l),
(419,513,l),
(156,513,l)
);
}
);
width = 1024;
},
{
layerId = "52A4F8C9-22CB-40B3-89C9-4EF9D272773E";
shapes = (
{
closed = 1;
nodes = (
(195,634,l),
(384,634,l),
(-23,1356,l),
(165,1356,l),
(495,702,l),
(536,584,l),
(537,584,l),
(572,708,l),
(890,1356,l),
(1047,1356,l),
(657,634,l),
(856,634,l),
(856,533,l),
(599,533,l),
(599,378,l),
(856,378,l),
(856,277,l),
(599,277,l),
(599,0,l),
(452,0,l),
(452,277,l),
(195,277,l),
(195,378,l),
(452,378,l),
(452,533,l),
(195,533,l)
);
}
);
width = 1024;
}
);
unicode = 165;
},
{
glyphname = brokenbar;
layers = (
{
layerId = "C6F19E25-0F49-451F-AEE1-A003FA0ED529";
shapes = (
{
closed = 1;
nodes = (
(104,418,l),
(375,418,l),
(375,-252,l),
(104,-252,l)
);
},
{
closed = 1;
nodes = (
(375,684,l),
(104,684,l),
(104,1356,l),
(375,1356,l)
);
}
);
width = 478;
},
{
layerId = "EDE6E634-030B-4ED7-B889-69990611018D";
shapes = (
{
closed = 1;
nodes = (
(113,412,l),
(338,412,l),
(338,-252,l),
(113,-252,l)
);
},
{
closed = 1;
nodes = (
(338,691,l),
(113,691,l),
(113,1356,l),
(338,1356,l)
);
}
);
width = 451;
},
{
layerId = "EE85CFF4-71C8-4DB0-B443-69364CCEBDFC";
shapes = (
{
closed = 1;
nodes = (
(127,403,l),
(282,403,l),
(282,-252,l),
(127,-252,l)
);
},
{
closed = 1;
nodes = (
(282,701,l),
(127,701,l),
(127,1356,l),
(282,1356,l)
);
}
);
width = 410;
},
{
layerId = "52A4F8C9-22CB-40B3-89C9-4EF9D272773E";
shapes = (
{
closed = 1;
nodes = (
(134,398,l),
(254,398,l),
(254,-252,l),
(134,-252,l)
);
},
{
closed = 1;
nodes = (
(254,706,l),
(134,706,l),
(134,1356,l),
(254,1356,l)
);
}
);
width = 389;
}
);
unicode = 166;
},
{
glyphname = section;
layers = (
{
layerId = "C6F19E25-0F49-451F-AEE1-A003FA0ED529";
shapes = (
{
closed = 1;
nodes = (
(47,763,o),
(77,859,o),
(146,903,c),
(236,928,l),
(157,970,o),
(111,1030,o),
(111,1134,cs),
(111,1226,o),
(155,1283,o),
(208,1317,cs),
(294,1371,o),
(416,1383,o),
(499,1383,cs),
(607,1383,o),
(755,1386,o),
(912,1318,c),
(831,1053,l),
(782,1073,o),
(734,1090,o),
(692,1098,cs),
(648,1106,o),
(601,1110,o),
(553,1110,cs),
(464,1110,o),
(439,1092,o),
(439,1065,c),
(437,1021,o),
(534,1023,o),
(716,975,cs),
(845,941,o),
(977,871,o),
(977,672,cs),
(977,594,o),
(932,488,o),
(879,456,c),
(786,429,l),
(859,389,o),
(918,325,o),
(918,222,cs),
(918,4,o),
(676,-28,o),
(520,-28,cs),
(451,-28,o),
(376,-23,o),
(295,-7,cs),
(233,6,o),
(168,29,o),
(103,70,c),
(195,314,l),
(223,297,o),
(327,247,o),
(463,247,cs),
(562,247,o),
(586,261,o),
(586,293,c),
(584,338,o),
(428,367,o),
(347,379,cs),
(339,380,o),
(334,381,o),
(332,380,c),
(168,410,o),
(65,503,o),
(47,684,c)
);
},
{
closed = 1;
nodes = (
(648,742,o),
(608,761,o),
(435,808,c),
(393,777,o),
(376,729,o),
(376,687,cs),
(376,625,o),
(417,586,o),
(586,552,c),
(641,583,o),
(648,628,o),
(648,669,cs)
);
}
);
width = 1024;
},
{
layerId = "EDE6E634-030B-4ED7-B889-69990611018D";
shapes = (
{
closed = 1;
nodes = (
(68,763,o),
(105,852,o),
(174,902,c),
(262,928,l),
(186,969,o),
(138,1029,o),
(138,1133,cs),
(138,1218,o),
(176,1276,o),
(231,1315,c),
(306,1366,o),
(412,1382,o),
(504,1382,cs),
(633,1382,o),
(765,1372,o),
(890,1317,c),
(823,1098,l),
(781,1116,o),
(737,1131,o),
(692,1141,cs),
(646,1151,o),
(598,1156,o),
(548,1156,cs),
(445,1156,o),
(408,1129,o),
(408,1086,cs),
(408,1019,o),
(548,1007,o),
(687,970,cs),
(826,933,o),
(956,860,o),
(956,672,cs),
(956,593,o),
(911,500,o),
(852,457,c),
(757,430,l),
(832,390,o),
(889,327,o),
(889,223,cs),
(889,27,o),
(685,-27,o),
(517,-27,cs),
(442,-27,o),
(369,-21,o),
(299,-5,cs),
(240,9,o),
(183,30,o),
(128,61,c),
(202,266,l),
(246,244,o),
(344,200,o),
(472,200,cs),
(576,200,o),
(617,220,o),
(617,271,cs),
(617,340,o),
(439,371,o),
(361,386,cs),
(351,388,o),
(343,390,o),
(337,391,cs),
(185,426,o),
(79,513,o),
(68,684,c)
);
},
{
closed = 1;
nodes = (
(685,762,o),
(599,783,o),
(432,831,c),
(376,800,o),
(339,747,o),
(339,687,cs),
(339,600,o),
(423,569,o),
(587,529,c),
(648,560,o),
(685,613,o),
(685,669,cs)
);
}
);
width = 1024;
},
{
layerId = "EE85CFF4-71C8-4DB0-B443-69364CCEBDFC";
shapes = (
{
closed = 1;
nodes = (
(100,763,o),
(147,841,o),
(216,900,c),
(301,928,l),
(229,967,o),
(179,1027,o),
(179,1131,cs),
(179,1206,o),
(208,1266,o),
(266,1312,cs),
(324,1358,o),
(406,1381,o),
(512,1381,cs),
(672,1381,o),
(780,1351,o),
(857,1315,c),
(811,1166,l),
(780,1180,o),
(741,1193,o),
(692,1206,cs),
(643,1219,o),
(593,1225,o),
(540,1225,cs),
(416,1225,o),
(362,1185,o),
(362,1118,c),
(365,1016,o),
(569,983,o),
(644,963,cs),
(797,921,o),
(925,844,o),
(925,672,cs),
(925,592,o),
(880,518,o),
(811,459,c),
(714,432,l),
(791,391,o),
(846,330,o),
(846,225,cs),
(846,61,o),
(699,-26,o),
(512,-26,cs),
(428,-26,o),
(359,-18,o),
(305,-2,cs),
(251,14,o),
(205,31,o),
(166,48,c),
(212,194,l),
(280,165,o),
(369,130,o),
(486,130,cs),
(597,130,o),
(663,158,o),
(663,238,c),
(666,343,o),
(456,377,o),
(382,397,cs),
(369,400,o),
(357,404,o),
(345,408,cs),
(211,450,o),
(100,528,o),
(100,684,cs)
);
},
{
closed = 1;
nodes = (
(741,792,o),
(586,816,o),
(427,865,c),
(351,835,o),
(284,774,o),
(284,687,cs),
(284,562,o),
(432,543,o),
(588,494,c),
(659,526,o),
(741,590,o),
(741,669,cs)
);
}
);
width = 1024;
},
{
layerId = "52A4F8C9-22CB-40B3-89C9-4EF9D272773E";
shapes = (
{
closed = 1;
nodes = (
(116,763,o),
(168,835,o),
(237,899,c),
(321,928,l),
(251,966,o),
(200,1026,o),
(200,1130,cs),
(200,1200,o),
(224,1261,o),
(284,1310,c),
(333,1354,o),
(403,1380,o),
(516,1380,cs),
(692,1380,o),
(788,1340,o),
(840,1314,c),
(805,1200,l),
(779,1212,o),
(743,1224,o),
(692,1239,cs),
(641,1253,o),
(590,1260,o),
(536,1260,cs),
(401,1260,o),
(339,1213,o),
(339,1134,c),
(343,1014,o),
(580,971,o),
(622,959,cs),
(782,915,o),
(909,836,o),
(909,672,cs),
(909,591,o),
(864,527,o),
(790,460,c),
(692,433,l),
(770,392,o),
(824,332,o),
(824,226,cs),
(824,78,o),
(706,-25,o),
(509,-25,cs),
(421,-25,o),
(354,-16,o),
(308,0,cs),
(257,17,o),
(216,32,o),
(185,41,c),
(217,158,l),
(297,125,o),
(382,95,o),
(493,95,cs),
(608,95,o),
(686,127,o),
(686,221,c),
(691,345,o),
(465,380,o),
(393,403,c),
(378,406,o),
(364,411,o),
(349,417,cs),
(224,462,o),
(111,536,o),
(116,684,c)
);
},
{
closed = 1;
nodes = (
(769,807,o),
(579,833,o),
(424,882,c),
(338,853,o),
(256,788,o),
(256,687,cs),
(256,543,o),
(437,530,o),
(589,476,c),
(665,509,o),
(769,578,o),
(769,669,cs)
);
}
);
width = 1024;
}
);
unicode = 167;
},
{
glyphname = dieresis;
layers = (
{
layerId = "C6F19E25-0F49-451F-AEE1-A003FA0ED529";
shapes = (
{
closed = 1;
nodes = (
(-56,1390,o),
(18,1459,o),
(122,1459,cs),
(226,1459,o),
(296,1390,o),
(296,1281,cs),
(296,1235,o),
(281,1196,o),
(248,1163,cs),
(216,1132,o),
(174,1115,o),
(122,1115,cs),
(70,1115,o),
(27,1132,o),
(-5,1163,cs),
(-39,1196,o),
(-56,1235,o),
(-56,1281,cs)
);
},
{
closed = 1;
nodes = (
(397,1390,o),
(465,1459,o),
(570,1459,cs),
(678,1459,o),
(746,1390,o),
(746,1281,cs),
(746,1235,o),
(730,1196,o),
(698,1163,c),
(665,1132,o),
(623,1115,o),
(570,1115,cs),
(517,1115,o),
(475,1132,o),
(445,1163,cs),
(412,1196,o),
(397,1235,o),
(397,1281,cs)
);
}
);
width = 682;
},
{
layerId = "EDE6E634-030B-4ED7-B889-69990611018D";
shapes = (
{
closed = 1;
nodes = (
(-20,1362,o),
(41,1421,o),
(129,1421,cs),
(217,1421,o),
(275,1362,o),
(275,1273,cs),
(275,1234,o),
(262,1201,o),
(235,1174,cs),
(208,1147,o),
(173,1133,o),
(129,1133,cs),
(85,1133,o),
(49,1147,o),
(22,1174,cs),
(-6,1201,o),
(-20,1234,o),
(-20,1273,cs)
);
},
{
closed = 1;
nodes = (
(410,1362,o),
(467,1421,o),
(555,1421,cs),
(646,1421,o),
(703,1362,o),
(703,1273,cs),
(703,1234,o),
(690,1201,o),
(663,1174,cs),
(636,1147,o),
(600,1133,o),
(555,1133,cs),
(511,1133,o),
(476,1147,o),
(450,1174,cs),
(423,1201,o),
(410,1234,o),
(410,1273,cs)
);
}
);
width = 682;
},
{
layerId = "EE85CFF4-71C8-4DB0-B443-69364CCEBDFC";
shapes = (
{
closed = 1;
nodes = (
(34,1320,o),
(76,1364,o),
(140,1364,cs),
(203,1364,o),
(243,1320,o),
(243,1261,cs),
(243,1233,o),
(234,1209,o),
(215,1190,cs),
(196,1170,o),
(171,1160,o),
(140,1160,cs),
(108,1160,o),
(82,1170,o),
(63,1190,cs),
(44,1209,o),
(34,1233,o),
(34,1261,cs)
);
},
{
closed = 1;
nodes = (
(429,1320,o),
(470,1364,o),
(533,1364,cs),
(598,1364,o),
(639,1320,o),
(639,1261,cs),
(639,1233,o),
(630,1209,o),
(611,1190,cs),
(592,1170,o),
(566,1160,o),
(533,1160,cs),
(502,1160,o),
(477,1170,o),
(458,1190,cs),
(439,1209,o),
(429,1233,o),
(429,1261,cs)
);
}
);
width = 682;
},
{
layerId = "52A4F8C9-22CB-40B3-89C9-4EF9D272773E";
shapes = (
{
closed = 1;
nodes = (
(61,1299,o),
(94,1335,o),
(146,1335,cs),
(196,1335,o),
(227,1299,o),
(227,1255,cs),
(227,1232,o),
(220,1213,o),
(205,1198,cs),
(190,1182,o),
(170,1174,o),
(146,1174,cs),
(120,1174,o),
(99,1182,o),
(84,1198,cs),
(69,1213,o),
(61,1232,o),
(61,1255,cs)
);
},
{
closed = 1;
nodes = (
(439,1299,o),
(472,1335,o),
(522,1335,cs),
(574,1335,o),
(607,1299,o),
(607,1255,cs),
(607,1232,o),
(600,1213,o),
(585,1198,cs),
(570,1182,o),
(549,1174,o),
(522,1174,cs),
(497,1174,o),
(478,1182,o),
(462,1198,cs),
(447,1213,o),
(439,1232,o),
(439,1255,cs)
);
}
);
width = 682;
}
);
unicode = 168;
},
{
glyphname = copyright;
layers = (
{
layerId = "C6F19E25-0F49-451F-AEE1-A003FA0ED529";
shapes = (
{
closed = 1;
nodes = (
(31,946,o),
(358,1334,o),
(756,1334,cs),
(1158,1334,o),
(1482,946,o),
(1482,548,cs),
(1482,149,o),
(1158,-236,o),
(756,-236,cs),
(380,-236,o),
(31,149,o),
(31,548,cs)
);
},
{
closed = 1;
nodes = (
(275,280,o),
(492,-1,o),
(756,-1,cs),
(1018,-1,o),
(1239,280,o),
(1239,550,cs),
(1239,819,o),
(1018,1100,o),
(756,1100,cs),
(492,1100,o),
(275,819,o),
(275,550,cs)
);
},
{
closed = 1;
nodes = (
(1093,218,l),
(1033,173,o),
(917,144,o),
(808,144,cs),
(693,144,o),
(605,180,o),
(544,252,c),
(483,327,o),
(453,426,o),
(453,551,cs),
(453,680,o),
(485,778,o),
(550,851,cs),
(616,923,o),
(702,958,o),
(808,958,cs),
(917,958,o),
(1009,928,o),
(1078,885,c),
(999,659,l),
(958,681,o),
(925,681,o),
(892,681,cs),
(864,681,o),
(842,673,o),
(826,653,c),
(809,637,o),
(803,601,o),
(803,551,cs),
(803,456,o),
(837,416,o),
(906,416,cs),
(945,416,o),
(974,421,o),
(1019,444,c)
);
}
);
width = 1513;
},
{
layerId = "EDE6E634-030B-4ED7-B889-69990611018D";
shapes = (
{
closed = 1;
nodes = (
(52,965,o),
(371,1301,o),
(765,1301,cs),
(1159,1301,o),
(1478,965,o),
(1478,552,cs),
(1478,139,o),
(1159,-196,o),
(765,-196,cs),
(371,-196,o),
(52,139,o),
(52,552,cs)
);
},
{
closed = 1;
nodes = (
(258,249,o),
(485,2,o),
(765,2,cs),
(1045,2,o),
(1272,249,o),
(1272,553,cs),
(1272,857,o),
(1045,1104,o),
(765,1104,cs),
(485,1104,o),
(258,857,o),
(258,553,cs)
);
},
{
closed = 1;
nodes = (
(1059,227,l),
(999,186,o),
(899,161,o),
(794,161,cs),
(683,161,o),
(598,196,o),
(539,266,cs),
(480,337,o),
(451,433,o),
(451,554,cs),
(451,679,o),
(482,775,o),
(545,844,cs),
(608,913,o),
(691,947,o),
(794,947,cs),
(898,947,o),
(972,921,o),
(1045,881,c),
(976,695,l),
(929,719,o),
(890,724,o),
(854,724,cs),
(817,724,o),
(787,712,o),
(764,687,c),
(741,664,o),
(730,619,o),
(730,554,cs),
(730,439,o),
(776,381,o),
(869,381,cs),
(918,381,o),
(953,389,o),
(997,412,c)
);
}
);
width = 1530;
},
{
layerId = "EE85CFF4-71C8-4DB0-B443-69364CCEBDFC";
shapes = (
{
closed = 1;
nodes = (
(84,993,o),
(391,1252,o),
(778,1252,cs),
(1161,1252,o),
(1472,993,o),
(1472,558,cs),
(1472,124,o),
(1161,-136,o),
(778,-136,cs),
(357,-136,o),
(84,124,o),
(84,558,cs)
);
},
{
closed = 1;
nodes = (
(233,202,o),
(474,6,o),
(778,6,cs),
(1085,6,o),
(1322,202,o),
(1322,558,cs),
(1322,914,o),
(1085,1110,o),
(778,1110,cs),
(474,1110,o),
(233,914,o),
(233,558,cs)
);
},
{
closed = 1;
nodes = (
(1008,241,l),
(948,206,o),
(872,187,o),
(773,187,cs),
(668,187,o),
(587,220,o),
(531,287,cs),
(476,352,o),
(448,443,o),
(448,558,cs),
(448,678,o),
(478,770,o),
(537,833,cs),
(596,898,o),
(674,930,o),
(773,930,cs),
(869,930,o),
(917,910,o),
(995,875,c),
(942,749,l),
(886,776,o),
(838,788,o),
(797,788,cs),
(746,788,o),
(704,771,o),
(671,738,cs),
(639,705,o),
(621,646,o),
(621,558,cs),
(621,414,o),
(685,329,o),
(814,329,cs),
(877,329,o),
(921,341,o),
(964,364,c)
);
}
);
width = 1556;
},
{
layerId = "52A4F8C9-22CB-40B3-89C9-4EF9D272773E";
shapes = (
{
closed = 1;
nodes = (
(100,1007,o),
(401,1227,o),
(785,1227,cs),
(1162,1227,o),
(1469,1007,o),
(1469,561,cs),
(1469,116,o),
(1162,-106,o),
(785,-106,cs),
(350,-106,o),
(100,116,o),
(100,561,cs)
);
},
{
closed = 1;
nodes = (
(220,178,o),
(468,8,o),
(785,8,cs),
(1105,8,o),
(1347,178,o),
(1347,561,cs),
(1347,943,o),
(1105,1113,o),
(785,1113,cs),
(468,1113,o),
(220,943,o),
(220,561,cs)
);
},
{
closed = 1;
nodes = (
(982,248,l),
(922,216,o),
(858,200,o),
(762,200,cs),
(660,200,o),
(581,232,o),
(527,298,cs),
(474,360,o),
(446,448,o),
(446,560,cs),
(446,677,o),
(476,767,o),
(533,827,c),
(590,890,o),
(665,921,o),
(762,921,cs),
(854,921,o),
(889,904,o),
(970,872,c),
(925,776,l),
(864,805,o),
(812,820,o),
(768,820,cs),
(710,820,o),
(662,801,o),
(624,764,c),
(588,726,o),
(566,660,o),
(566,560,cs),
(566,401,o),
(639,303,o),
(786,303,cs),
(856,303,o),
(905,317,o),
(947,340,c)
);
}
);
width = 1569;
}
);
unicode = 169;
},
{
glyphname = ordfeminine;
layers = (
{
layerId = "C6F19E25-0F49-451F-AEE1-A003FA0ED529";
shapes = (
{
closed = 1;
nodes = (
(15,1297,l),
(80,1332,o),
(177,1371,o),
(359,1371,cs),
(549,1371,o),
(588,1253,o),
(588,1110,cs),
(588,1031,o),
(582,976,o),
(582,901,cs),
(582,841,o),
(585,790,o),
(597,741,c),
(389,741,l),
(381,829,l),
(373,829,l),
(322,760,o),
(264,733,o),
(191,733,cs),
(90,733,o),
(19,817,o),
(19,932,cs),
(19,1052,o),
(74,1145,o),
(329,1145,cs),
(349,1145,o),
(353,1143,o),
(373,1143,c),
(369,1189,o),
(330,1208,o),
(286,1208,cs),
(187,1208,o),
(110,1168,o),
(69,1154,c)
);
},
{
closed = 1;
nodes = (
(342,913,o),
(371,963,o),
(373,956,c),
(373,1031,l),
(354,1034,o),
(340,1033,o),
(324,1033,cs),
(231,1033,o),
(235,1000,o),
(235,969,cs),
(235,930,o),
(253,913,o),
(284,913,cs)
);
}
);
width = 647;
},
{
layerId = "EDE6E634-030B-4ED7-B889-69990611018D";
shapes = (
{
closed = 1;
nodes = (
(24,1301,l),
(91,1336,o),
(176,1371,o),
(343,1371,cs),
(515,1371,o),
(571,1280,o),
(571,1133,cs),
(571,1045,o),
(565,978,o),
(565,898,cs),
(565,838,o),
(568,785,o),
(580,736,c),
(402,736,l),
(386,826,l),
(378,826,l),
(340,775,o),
(288,728,o),
(200,728,cs),
(85,728,o),
(14,808,o),
(14,922,cs),
(14,1059,o),
(109,1137,o),
(333,1137,cs),
(353,1137,o),
(358,1135,o),
(378,1135,c),
(380,1201,o),
(348,1226,o),
(282,1226,cs),
(188,1226,o),
(114,1191,o),
(69,1173,c)
);
},
{
closed = 1;
nodes = (
(333,885,o),
(370,938,o),
(378,953,c),
(378,1025,l),
(355,1028,o),
(341,1028,o),
(320,1028,cs),
(236,1028,o),
(208,1001,o),
(208,950,cs),
(208,907,o),
(232,885,o),
(273,885,cs)
);
}
);
width = 614;
},
{
layerId = "EE85CFF4-71C8-4DB0-B443-69364CCEBDFC";
shapes = (
{
closed = 1;
nodes = (
(38,1307,l),
(108,1342,o),
(174,1371,o),
(319,1371,cs),
(464,1371,o),
(545,1320,o),
(545,1167,cs),
(545,1066,o),
(539,981,o),
(539,893,cs),
(539,833,o),
(542,778,o),
(555,729,c),
(421,729,l),
(394,822,l),
(386,822,l),
(367,798,o),
(324,721,o),
(214,721,cs),
(78,721,o),
(6,794,o),
(6,907,cs),
(6,1069,o),
(162,1125,o),
(339,1125,cs),
(359,1125,o),
(366,1123,o),
(386,1123,c),
(396,1219,o),
(375,1253,o),
(276,1253,cs),
(189,1253,o),
(120,1226,o),
(69,1201,c)
);
},
{
closed = 1;
nodes = (
(320,843,o),
(368,901,o),
(386,948,c),
(386,1016,l),
(357,1019,o),
(343,1020,o),
(314,1020,cs),
(243,1020,o),
(168,1003,o),
(168,921,cs),
(168,872,o),
(201,843,o),
(256,843,cs)
);
}
);
width = 565;
},
{
layerId = "52A4F8C9-22CB-40B3-89C9-4EF9D272773E";
shapes = (
{
closed = 1;
nodes = (
(45,1310,l),
(117,1345,o),
(173,1371,o),
(307,1371,cs),
(438,1371,o),
(532,1340,o),
(532,1184,cs),
(532,1077,o),
(526,983,o),
(526,890,cs),
(526,830,o),
(529,774,o),
(542,725,c),
(431,725,l),
(398,820,l),
(390,820,l),
(381,810,o),
(342,717,o),
(221,717,cs),
(74,717,o),
(2,787,o),
(2,899,cs),
(2,1074,o),
(189,1119,o),
(342,1119,cs),
(362,1119,o),
(370,1117,o),
(390,1117,c),
(404,1228,o),
(389,1267,o),
(273,1267,cs),
(190,1267,o),
(123,1244,o),
(69,1215,c)
);
},
{
closed = 1;
nodes = (
(313,822,o),
(367,882,o),
(390,945,c),
(390,1011,l),
(358,1014,o),
(344,1016,o),
(311,1016,cs),
(247,1016,o),
(148,1004,o),
(148,906,cs),
(148,854,o),
(185,822,o),
(247,822,cs)
);
}
);
width = 540;
}
);
unicode = 170;
},
{
glyphname = guillemotleft;
layers = (
{
layerId = "C6F19E25-0F49-451F-AEE1-A003FA0ED529";
shapes = (
{
closed = 1;
nodes = (
(498,508,l),
(815,911,l),
(978,773,l),
(834,578,l),
(771,503,l),
(834,437,l),
(991,243,l),
(826,104,l)
);
},
{
closed = 1;
nodes = (
(76,501,l),
(412,947,l),
(603,788,l),
(440,582,l),
(371,503,l),
(440,434,l),
(615,231,l),
(422,74,l)
);
}
);
width = 1024;
},
{
layerId = "EDE6E634-030B-4ED7-B889-69990611018D";
shapes = (
{
closed = 1;
nodes = (
(477,506,l),
(802,922,l),
(945,800,l),
(780,579,l),
(714,503,l),
(780,436,l),
(957,217,l),
(813,95,l)
);
},
{
closed = 1;
nodes = (
(67,501,l),
(405,947,l),
(566,811,l),
(389,582,l),
(319,503,l),
(389,434,l),
(579,209,l),
(416,74,l)
);
}
);
width = 1024;
},
{
layerId = "EE85CFF4-71C8-4DB0-B443-69364CCEBDFC";
shapes = (
{
closed = 1;
nodes = (
(445,503,l),
(782,939,l),
(895,841,l),
(699,581,l),
(628,503,l),
(699,434,l),
(906,178,l),
(793,81,l)
);
},
{
closed = 1;
nodes = (
(54,501,l),
(394,947,l),
(511,846,l),
(313,582,l),
(241,503,l),
(313,434,l),
(525,176,l),
(407,74,l)
);
}
);
width = 1024;
},
{
layerId = "52A4F8C9-22CB-40B3-89C9-4EF9D272773E";
shapes = (
{
closed = 1;
nodes = (
(429,501,l),
(772,948,l),
(870,862,l),
(658,582,l),
(585,503,l),
(658,433,l),
(880,158,l),
(783,74,l)
);
},
{
closed = 1;
nodes = (
(47,501,l),
(388,947,l),
(483,864,l),
(275,582,l),
(202,503,l),
(275,434,l),
(498,159,l),
(402,74,l)
);
}
);
width = 1024;
}
);
unicode = 171;
},
{
glyphname = logicalnot;
layers = (
{
layerId = "C6F19E25-0F49-451F-AEE1-A003FA0ED529";
shapes = (
{
closed = 1;
nodes = (
(113,829,l),
(1062,829,l),
(1062,338,l),
(770,338,l),
(770,550,l),
(113,550,l)
);
}
);
width = 1175;
},
{
layerId = "EDE6E634-030B-4ED7-B889-69990611018D";
shapes = (
{
closed = 1;
nodes = (
(118,806,l),
(1049,806,l),
(1049,355,l),
(807,355,l),
(807,573,l),
(118,573,l)
);
}
);
width = 1167;
},
{
layerId = "EE85CFF4-71C8-4DB0-B443-69364CCEBDFC";
shapes = (
{
closed = 1;
nodes = (
(125,771,l),
(1030,771,l),
(1030,381,l),
(863,381,l),
(863,608,l),
(125,608,l)
);
}
);
width = 1155;
},
{
layerId = "52A4F8C9-22CB-40B3-89C9-4EF9D272773E";
shapes = (
{
closed = 1;
nodes = (
(129,753,l),
(1020,753,l),
(1020,394,l),
(891,394,l),
(891,626,l),
(129,626,l)
);
}
);
width = 1149;
}
);
unicode = 172;
},
